<svg xmlns="http://www.w3.org/2000/svg" xmlns:xlink="http://www.w3.org/1999/xlink" viewBox="0 0 138.592 66.305"><defs><style>.cls-1{isolation:isolate;}.cls-2{fill:url(#Áåçûìÿííûé_ãðàäèåíò_139);}.cls-3{fill:url(#Áåçûìÿííûé_ãðàäèåíò_129);}.cls-4{fill:#fff;}.cls-5{fill:#ced6ff;mix-blend-mode:multiply;}.cls-6{fill:url(#Áåçûìÿííûé_ãðàäèåíò_163);}.cls-7{fill:url(#Áåçûìÿííûé_ãðàäèåíò_160);}.cls-8{fill:url(#Áåçûìÿííûé_ãðàäèåíò_169);}.cls-10,.cls-11,.cls-13,.cls-14,.cls-15,.cls-16,.cls-17,.cls-18,.cls-19,.cls-20,.cls-21,.cls-22,.cls-23,.cls-24,.cls-9{mix-blend-mode:screen;}.cls-9{fill:url(#Áåçûìÿííûé_ãðàäèåíò_172);}.cls-10{fill:url(#Áåçûìÿííûé_ãðàäèåíò_155);}.cls-11{fill:url(#Áåçûìÿííûé_ãðàäèåíò_168);}.cls-12{fill:#ffffab;}.cls-13{fill:url(#Áåçûìÿííûé_ãðàäèåíò_168-2);}.cls-14{fill:url(#Áåçûìÿííûé_ãðàäèåíò_168-3);}.cls-15{fill:url(#Áåçûìÿííûé_ãðàäèåíò_168-4);}.cls-16{fill:url(#Áåçûìÿííûé_ãðàäèåíò_168-5);}.cls-17{fill:url(#Áåçûìÿííûé_ãðàäèåíò_168-6);}.cls-18{fill:url(#Áåçûìÿííûé_ãðàäèåíò_168-7);}.cls-19{fill:url(#Áåçûìÿííûé_ãðàäèåíò_168-8);}.cls-20{fill:url(#Áåçûìÿííûé_ãðàäèåíò_168-9);}.cls-21{fill:url(#Áåçûìÿííûé_ãðàäèåíò_168-10);}.cls-22{fill:url(#Áåçûìÿííûé_ãðàäèåíò_168-11);}.cls-23{fill:url(#Áåçûìÿííûé_ãðàäèåíò_168-12);}.cls-24{fill:url(#Áåçûìÿííûé_ãðàäèåíò_168-13);}</style><linearGradient id="Áåçûìÿííûé_ãðàäèåíò_139" x1="69.296" y1="66.305" x2="69.296" y2="2.086" gradientUnits="userSpaceOnUse"><stop offset="0" stop-color="#8b9ad1"/><stop offset="1" stop-color="#cee0ff"/></linearGradient><linearGradient id="Áåçûìÿííûé_ãðàäèåíò_129" x1="69.296" y1="64.222" x2="69.296" gradientUnits="userSpaceOnUse"><stop offset="0" stop-color="#cadcff"/><stop offset="1" stop-color="#fff"/></linearGradient><radialGradient id="Áåçûìÿííûé_ãðàäèåíò_163" cx="70.143" cy="55.912" r="49.494" gradientUnits="userSpaceOnUse"><stop offset="0" stop-color="#ffbd00"/><stop offset="1" stop-color="#ff772c"/></radialGradient><linearGradient id="Áåçûìÿííûé_ãðàäèåíò_160" x1="68.071" y1="56.936" x2="68.071" y2="3.936" gradientUnits="userSpaceOnUse"><stop offset="0" stop-color="#fff300"/><stop offset="1" stop-color="#ff9700"/></linearGradient><linearGradient id="Áåçûìÿííûé_ãðàäèåíò_169" x1="68.071" y1="55.941" x2="68.071" y2="4.509" gradientUnits="userSpaceOnUse"><stop offset="0" stop-color="#fc0"/><stop offset="1" stop-color="#ff9700"/></linearGradient><linearGradient id="Áåçûìÿííûé_ãðàäèåíò_172" x1="13.168" y1="14.84" x2="128.705" y2="14.84" gradientUnits="userSpaceOnUse"><stop offset="0" stop-color="#ff9840"/><stop offset="0.097" stop-color="#ef8e3c"/><stop offset="0.288" stop-color="#c57531"/><stop offset="0.553" stop-color="#814d20"/><stop offset="0.879" stop-color="#241609"/><stop offset="1"/></linearGradient><linearGradient id="Áåçûìÿííûé_ãðàäèåíò_155" x1="-1874.617" y1="49.58" x2="-1764.472" y2="49.58" gradientTransform="matrix(-1, 0, 0, 1, -1751.121, 0)" gradientUnits="userSpaceOnUse"><stop offset="0" stop-color="#ff6140"/><stop offset="0.097" stop-color="#ef5b3c"/><stop offset="0.288" stop-color="#c54b31"/><stop offset="0.553" stop-color="#813120"/><stop offset="0.879" stop-color="#240e09"/><stop offset="1"/></linearGradient><radialGradient id="Áåçûìÿííûé_ãðàäèåíò_168" cx="-506.912" cy="480.3" r="1.526" gradientTransform="matrix(-0.06, -0.998, 0.998, -0.06, -486.005, -455.051)" gradientUnits="userSpaceOnUse"><stop offset="0" stop-color="#00b359"/><stop offset="0.127" stop-color="#009148"/><stop offset="0.342" stop-color="#005e2f"/><stop offset="0.544" stop-color="#00351a"/><stop offset="0.727" stop-color="#00180c"/><stop offset="0.885" stop-color="#000603"/><stop offset="1"/></radialGradient><radialGradient id="Áåçûìÿííûé_ãðàäèåíò_168-2" cx="-500.495" cy="482.76" r="1.526" xlink:href="#Áåçûìÿííûé_ãðàäèåíò_168"/><radialGradient id="Áåçûìÿííûé_ãðàäèåíò_168-3" cx="-519.187" cy="480.419" r="1.526" xlink:href="#Áåçûìÿííûé_ãðàäèåíò_168"/><radialGradient id="Áåçûìÿííûé_ãðàäèåíò_168-4" cx="-499.392" cy="474.568" r="4.271" xlink:href="#Áåçûìÿííûé_ãðàäèåíò_168"/><radialGradient id="Áåçûìÿííûé_ãðàäèåíò_168-5" cx="-535.492" cy="560.223" r="4.271" xlink:href="#Áåçûìÿííûé_ãðàäèåíò_168"/><radialGradient id="Áåçûìÿííûé_ãðàäèåíò_168-6" cx="-532.535" cy="582.345" r="2.04" xlink:href="#Áåçûìÿííûé_ãðàäèåíò_168"/><radialGradient id="Áåçûìÿííûé_ãðàäèåíò_168-7" cx="-530.432" cy="484.787" r="2.04" xlink:href="#Áåçûìÿííûé_ãðàäèåíò_168"/><radialGradient id="Áåçûìÿííûé_ãðàäèåíò_168-8" cx="-525.296" cy="543.697" r="1.02" xlink:href="#Áåçûìÿííûé_ãðàäèåíò_168"/><radialGradient id="Áåçûìÿííûé_ãðàäèåíò_168-9" cx="-533.709" cy="466.387" r="1.02" xlink:href="#Áåçûìÿííûé_ãðàäèåíò_168"/><radialGradient id="Áåçûìÿííûé_ãðàäèåíò_168-10" cx="-517.939" cy="496.038" r="1.02" xlink:href="#Áåçûìÿííûé_ãðàäèåíò_168"/><radialGradient id="Áåçûìÿííûé_ãðàäèåíò_168-11" cx="-532.815" cy="480.96" r="0.76" xlink:href="#Áåçûìÿííûé_ãðàäèåíò_168"/><radialGradient id="Áåçûìÿííûé_ãðàäèåíò_168-12" cx="-538.833" cy="533.586" r="1.593" xlink:href="#Áåçûìÿííûé_ãðàäèåíò_168"/><radialGradient id="Áåçûìÿííûé_ãðàäèåíò_168-13" cx="-537.977" cy="500.001" r="1.593" xlink:href="#Áåçûìÿííûé_ãðàäèåíò_168"/></defs><title>Asset 5</title><g class="cls-1"><g id="Layer_2" data-name="Layer 2"><g id="Layer_1-2" data-name="Layer 1"><path class="cls-2" d="M133.219,58.72a3.126,3.126,0,0,1-.42.38c-11.84,9.67-114.46,9.33-128.75.64a3.674,3.674,0,0,1-1.49-1.43c-5.07-10.55-2.32-42.3,5.73-49.17,8.64-7.36,111.86-10.69,122.53-1.33C138.649,14.67,142.379,49.1,133.219,58.72Z"/><path class="cls-3" d="M2.556,56.223c4.886,10.18,120.588,10.994,130.664.411,9.157-9.618,5.431-44.049-2.4-50.914C120.151-3.635,16.928-.306,8.291,7.057.237,13.922-2.509,45.672,2.556,56.223Z"/><path class="cls-4" d="M7.293,52.755S22.916,61.12,71.042,61.12s55.85-8.365,55.85-8.365Z"/><path class="cls-5" d="M132.8,52.75V59.1c-11.84,9.67-114.46,9.33-128.75.64l.3-1.91,2.94-5.08,123.39-5.73Z"/><path class="cls-6" d="M6.17,51.606c4.436,9.243,111.906,11.84,121.054,2.231,8.315-8.734,4.932-40-2.178-46.23-9.688-8.494-105.18-2.53-113.023,4.156C4.71,18,1.571,42.025,6.17,51.606Z"/><path class="cls-7" d="M6.526,49.973c4.42,8.912,111.251,9.549,120.366.284,8.283-8.421,5.025-36.267-2.058-42.277-9.652-8.19-104.789-2.439-112.6,4.007C4.946,18,1.945,40.736,6.526,49.973Z"/><path class="cls-8" d="M7.857,49.184c4.324,8.649,108.845,9.267,117.763.276,8.1-8.171,4.917-35.194-2.013-41.026C114.163.486,21.084,6.067,13.439,12.322,6.311,18.154,3.375,40.22,7.857,49.184Z"/><path class="cls-9" d="M13.168,12.362S86.051-2.417,123.862,8.573a29.2,29.2,0,0,1,4.843,10.737,125.4,125.4,0,0,1-33.224,5.81C76.031,26,55.7,15.015,39.273,13.373S13.168,12.362,13.168,12.362Z"/><path class="cls-10" d="M123.5,49.625s-48.753,8.59-110.145,1.011c0,0,39.882,3.457,57.625,0C101.1,44.766,115.579,43.028,123.5,49.625Z"/><path class="cls-4" d="M10.437,16.1a11.511,11.511,0,0,1,5.074-4.822C19.059,9.6,29.155,7.912,29.73,8.337s-4.92,2.415-7.762,3.457S11.885,16.9,10.437,16.1Z"/><path class="cls-4" d="M10.122,16.942c-.731.109-2.552,5.773-2.444,6.7s2.3-2.013,2.645-3.576A6.491,6.491,0,0,0,10.122,16.942Z"/><path class="cls-11" d="M23.551,20.8a1.526,1.526,0,1,1-1.432,1.614A1.526,1.526,0,0,1,23.551,20.8Z"/><path class="cls-12" d="M23.735,21.894a.423.423,0,1,1-.4.447A.423.423,0,0,1,23.735,21.894Z"/><path class="cls-13" d="M25.625,14.248a1.526,1.526,0,1,1-1.433,1.614A1.525,1.525,0,0,1,25.625,14.248Z"/><path class="cls-12" d="M25.809,15.342a.423.423,0,1,1-.4.447A.423.423,0,0,1,25.809,15.342Z"/><path class="cls-14" d="M24.4,33.046a1.526,1.526,0,1,1-1.433,1.614A1.525,1.525,0,0,1,24.4,33.046Z"/><path class="cls-12" d="M24.586,34.14a.423.423,0,1,1-.4.447A.423.423,0,0,1,24.586,34.14Z"/><path class="cls-15" d="M17.218,10.9a4.271,4.271,0,1,1-4.008,4.518A4.271,4.271,0,0,1,17.218,10.9Z"/><path class="cls-12" d="M17.733,13.958a1.183,1.183,0,1,1-1.11,1.251A1.183,1.183,0,0,1,17.733,13.958Z"/><path class="cls-16" d="M104.871,41.825a4.271,4.271,0,1,1-4.009,4.518A4.27,4.27,0,0,1,104.871,41.825Z"/><path class="cls-12" d="M105.386,44.888a1.183,1.183,0,1,1-1.11,1.251A1.183,1.183,0,0,1,105.386,44.888Z"/><path class="cls-17" d="M126.909,39.781A2.04,2.04,0,1,1,125,41.939,2.04,2.04,0,0,1,126.909,39.781Z"/><path class="cls-12" d="M127.155,41.244a.565.565,0,1,1-.53.6A.566.566,0,0,1,127.155,41.244Z"/><path class="cls-18" d="M29.4,43.5a2.04,2.04,0,1,1-1.914,2.158A2.04,2.04,0,0,1,29.4,43.5Z"/><path class="cls-12" d="M29.647,44.96a.565.565,0,1,1-.53.6A.565.565,0,0,1,29.647,44.96Z"/><path class="cls-19" d="M87.961,35.878A1.02,1.02,0,1,1,87,36.957,1.019,1.019,0,0,1,87.961,35.878Z"/><path class="cls-12" d="M88.084,36.609a.282.282,0,1,1-.266.3A.283.283,0,0,1,88.084,36.609Z"/><path class="cls-20" d="M11.29,48.882a1.02,1.02,0,1,1-.957,1.079A1.02,1.02,0,0,1,11.29,48.882Z"/><path class="cls-12" d="M11.413,49.614a.283.283,0,1,1-.265.3A.282.282,0,0,1,11.413,49.614Z"/><path class="cls-21" d="M39.948,31.374a1.02,1.02,0,1,1-.957,1.079A1.02,1.02,0,0,1,39.948,31.374Z"/><path class="cls-12" d="M40.071,32.106a.283.283,0,1,1-.265.3A.282.282,0,0,1,40.071,32.106Z"/><path class="cls-22" d="M25.8,47.38a.761.761,0,1,1-.714.8A.761.761,0,0,1,25.8,47.38Z"/><path class="cls-12" d="M25.892,47.926a.21.21,0,1,1-.2.223A.209.209,0,0,1,25.892,47.926Z"/><path class="cls-23" d="M78.64,49.42a1.593,1.593,0,1,1-1.5,1.685A1.594,1.594,0,0,1,78.64,49.42Z"/><path class="cls-12" d="M78.833,50.563a.441.441,0,1,1-.414.466A.44.44,0,0,1,78.833,50.563Z"/><path class="cls-24" d="M45.064,50.567a1.593,1.593,0,1,1-1.495,1.685A1.593,1.593,0,0,1,45.064,50.567Z"/><path class="cls-12" d="M45.256,51.71a.441.441,0,1,1-.414.466A.442.442,0,0,1,45.256,51.71Z"/><path class="cls-4" d="M122.18,52.056c-.509-.909,4-5.053,5.146-5.036s.126,2.727-.568,3.36S122.434,52.511,122.18,52.056Z"/></g></g></g></svg>