<svg xmlns="http://www.w3.org/2000/svg" viewBox="0 0 564.994 117.016"><defs><style>.cls-1{fill:#ffa300;}</style></defs><title>Asset 1</title><g id="Layer_2" data-name="Layer 2"><g id="Layer_1-2" data-name="Layer 1"><path class="cls-1" d="M356.408,5c49.6,0,93.384.784,126.611,2.266,49.9,2.227,59.255,5.36,60.933,6.267,10.018,5.414,16.015,19.311,16.042,37.175.034,22.283-9.421,43.005-23,50.4-2.765,1.508-16.47,5.317-83.857,8.1-44,1.815-102.733,2.815-165.369,2.815-67.595,0-132.643-1.124-183.162-3.166-78.434-3.17-90.57-7.38-92.359-8.364C6.5,94.463,3.939,81.684,5.39,66.209c1.783-19.024,9.083-36.491,17.746-42.473C26.758,21.24,45.592,14.9,142,9.938,202.972,6.8,281.12,5,356.408,5m0-5C213.293,0,39.129,6.646,20.3,19.618,1.039,32.917-7.979,87.134,8.874,104.186c8.228,8.332,145.758,12.83,278.9,12.83,120.418,0,237.241-3.678,251.621-11.524C569.67,89.01,574.485,24.35,546.329,9.134,535,3.012,452.73,0,356.408,0Z"/></g></g></svg>