<?xml version="1.0" encoding="utf-8"?>
<!-- Generator: Adobe Illustrator 23.0.0, SVG Export Plug-In . SVG Version: 6.00 Build 0)  -->
<svg version="1.1" id="Layer_1" xmlns="http://www.w3.org/2000/svg" xmlns:xlink="http://www.w3.org/1999/xlink" x="0px" y="0px"
	 viewBox="0 0 565 117" style="enable-background:new 0 0 565 117;" xml:space="preserve">
<style type="text/css">
	.st0{clip-path:url(#SVGID_2_);}
	.st1{fill:url(#SVGID_3_);}
	.st2{fill:url(#SVGID_4_);}
	.st3{fill:#FFA300;}
</style>
<g>
	<defs>
		<rect id="SVGID_1_" width="565" height="117"/>
	</defs>
	<clipPath id="SVGID_2_">
		<use xlink:href="#SVGID_1_"  style="overflow:visible;"/>
	</clipPath>
	<g class="st0">
		
			<linearGradient id="SVGID_3_" gradientUnits="userSpaceOnUse" x1="282.4787" y1="0.9796" x2="282.4787" y2="117.9959" gradientTransform="matrix(1 0 0 -1 0 118)">
			<stop  offset="0" style="stop-color:#AECCFF"/>
			<stop  offset="1" style="stop-color:#6578C1"/>
		</linearGradient>
		<path class="st1" d="M20.3,19.6C1,32.9-8,87.1,8.9,104.2c15.7,15.9,500.2,17.8,530.5,1.3c30.3-16.5,35.1-81.1,6.9-96.4
			C518.2-6.1,51.8-2.1,20.3,19.6z"/>
		
			<linearGradient id="SVGID_4_" gradientUnits="userSpaceOnUse" x1="276.6344" y1="9.2754" x2="276.6344" y2="108" gradientTransform="matrix(1 0 0 -1 0 118)">
			<stop  offset="0" style="stop-color:#AECCFF"/>
			<stop  offset="1" style="stop-color:#8B9AD1"/>
		</linearGradient>
		<path class="st2" d="M19.9,26.6C1,37.8-7.8,83.5,8.7,97.9c15.3,13.4,489.9,15,519.5,1.1c29.6-13.9,34.4-68.5,6.8-81.3
			C507.4,4.9,50.7,8.2,19.9,26.6z"/>
	</g>
	<g class="st0">
		<path class="st3" d="M356.4,5C406,5,449.8,5.8,483,7.3c49.9,2.2,59.3,5.4,60.9,6.3c10,5.4,16,19.3,16,37.2c0,22.3-9.4,43-23,50.4
			c-2.8,1.5-16.5,5.3-83.9,8.1c-44,1.8-102.7,2.8-165.4,2.8c-67.6,0-132.6-1.1-183.2-3.2c-78.4-3.2-90.6-7.4-92.4-8.4
			c-5.7-6-8.3-18.8-6.9-34.3c1.8-19,9.1-36.5,17.7-42.5c3.6-2.5,22.5-8.8,118.9-13.8C203,6.8,281.1,5,356.4,5 M356.4,0
			C213.3,0,39.1,6.7,20.3,19.6C1,32.9-8,87.1,8.9,104.2c8.2,8.3,145.8,12.8,278.9,12.8c120.4,0,237.2-3.7,251.6-11.5
			c30.3-16.5,35.1-81.1,6.9-96.4C535,3,452.7,0,356.4,0L356.4,0z"/>
	</g>
</g>
</svg>
