<svg xmlns="http://www.w3.org/2000/svg" xmlns:xlink="http://www.w3.org/1999/xlink" viewBox="0 0 39.828 40.77"><defs><style>.cls-1{isolation:isolate;}.cls-2{fill:url(#radial-gradient);}.cls-3{opacity:0.48;}.cls-3,.cls-5,.cls-9{mix-blend-mode:screen;}.cls-4,.cls-5,.cls-9{fill:#9d9d9d;}.cls-6,.cls-8{opacity:0.5;mix-blend-mode:multiply;}.cls-7{fill:#888;}.cls-8{fill:url(#radial-gradient-2);}.cls-9{opacity:0.2;}.cls-10{fill:url(#radial-gradient-3);}</style><radialGradient id="radial-gradient" cx="973.644" cy="1086.946" r="46.204" gradientTransform="translate(1362.213 641.087) rotate(156.522)" gradientUnits="userSpaceOnUse"><stop offset="0.019" stop-color="#9d9d9d"/><stop offset="0.357" stop-color="#9a9a9a"/><stop offset="0.635" stop-color="#909090"/><stop offset="0.89" stop-color="#7f7f7f"/><stop offset="0.996" stop-color="#757575"/><stop offset="1" stop-color="#737373"/></radialGradient><radialGradient id="radial-gradient-2" cx="989.671" cy="1105.075" r="44.018" xlink:href="#radial-gradient"/><radialGradient id="radial-gradient-3" cx="183.45" cy="735.523" r="16.048" gradientTransform="translate(752.329 -163.438) rotate(90)" xlink:href="#radial-gradient"/></defs><title>Asset 10</title><g class="cls-1"><g id="Layer_2" data-name="Layer 2"><g id="Layer_1-2" data-name="Layer 1"><g id="aligned"><path class="cls-2" d="M1.736,26.481c.2.606.42,1.207.679,1.8a19.427,19.427,0,0,0,8.931,9.555c-.21.845.781,1.967,2.3,2.563,1.588.624,3.148.436,3.484-.419a.933.933,0,0,0,.052-.216,19.405,19.405,0,0,0,10.9-1.359c.143-.062.28-.13.421-.2.719.69,2.72.287,4.647-.976,2.053-1.346,3.246-3.157,2.663-4.046a.945.945,0,0,0-.4-.329,19.516,19.516,0,0,0-3.856-28.3,1.293,1.293,0,0,0,.092-.182c.483-1.23-.977-2.955-3.262-3.852s-4.529-.628-5.012.6c-.014.035-.02.072-.031.107A19.488,19.488,0,0,0,8.812,4.75c-.685-.6-2.223-.3-3.58.736C3.781,6.6,3.089,8.131,3.687,8.913a1.122,1.122,0,0,0,.648.4A19.561,19.561,0,0,0,.877,22.243a.63.63,0,0,0-.13.006C.118,22.4-.17,23.463.1,24.632S1.107,26.627,1.736,26.481Z"/><g class="cls-3"><path class="cls-4" d="M9.875,36.919c-.221-.114-.438-.233-.654-.355.213.147.43.289.648.427C9.873,36.968,9.869,36.942,9.875,36.919Z"/><path class="cls-4" d="M28.912.759c1.055.863,1.588,1.891,1.269,2.7a1.361,1.361,0,0,1-.092.183,19.515,19.515,0,0,1,3.856,28.3.945.945,0,0,1,.4.329c.582.889-.61,2.7-2.663,4.046-1.927,1.263-3.928,1.666-4.648.976-.14.065-.278.133-.42.2a19.407,19.407,0,0,1-10.9,1.359.887.887,0,0,1-.053.216c-.336.855-1.895,1.043-3.483.419-.033-.013-.063-.03-.1-.043a4.993,4.993,0,0,0,1.567.963c1.588.624,3.148.436,3.484-.419a.933.933,0,0,0,.052-.216,19.405,19.405,0,0,0,10.9-1.359c.143-.062.28-.13.421-.2.719.69,2.72.287,4.647-.976,2.053-1.346,3.246-3.157,2.663-4.046a.945.945,0,0,0-.4-.329,19.516,19.516,0,0,0-3.856-28.3,1.293,1.293,0,0,0,.092-.182C32.1,3.249,30.891,1.7,28.912.759Z"/></g><path class="cls-5" d="M36.072,29.156c-.858-.042-1.479-1.607-1.386-3.495s.863-3.384,1.721-3.342,1.479,1.607,1.386,3.5S36.93,29.2,36.072,29.156Z"/><path class="cls-5" d="M36.7,25.876A4.625,4.625,0,0,1,35.6,28.968a.819.819,0,0,0,.467.188c.858.042,1.629-1.455,1.721-3.342s-.528-3.453-1.386-3.5a.9.9,0,0,0-.629.25A4.255,4.255,0,0,1,36.7,25.876Z"/><path class="cls-5" d="M37.862,20.654c-.548.3-1.53-.434-2.193-1.641s-.754-2.43-.2-2.731,1.53.433,2.193,1.641S38.411,20.353,37.862,20.654Z"/><path class="cls-5" d="M37,18.38a3.368,3.368,0,0,1,.5,2.336.6.6,0,0,0,.361-.062c.549-.3.457-1.524-.205-2.731s-1.644-1.942-2.193-1.641a.657.657,0,0,0-.3.395A3.1,3.1,0,0,1,37,18.38Z"/><path class="cls-5" d="M8.015,29.134c.484-.4,1.585.142,2.459,1.206s1.193,2.248.709,2.645-1.584-.142-2.459-1.2S7.532,29.532,8.015,29.134Z"/><path class="cls-5" d="M9.285,31.209a3.365,3.365,0,0,1-.926-2.2.589.589,0,0,0-.344.127c-.483.4-.166,1.582.709,2.646s1.976,1.6,2.459,1.2a.649.649,0,0,0,.217-.443A3.094,3.094,0,0,1,9.285,31.209Z"/><path class="cls-5" d="M15.162,5.4c.329.532-.353,1.551-1.523,2.277s-2.387.881-2.717.349.352-1.551,1.523-2.276S14.832,4.863,15.162,5.4Z"/><path class="cls-5" d="M12.936,6.377a3.362,3.362,0,0,1,2.306-.624.6.6,0,0,0-.08-.358c-.33-.532-1.546-.376-2.717.35s-1.852,1.744-1.523,2.276a.655.655,0,0,0,.411.274A3.093,3.093,0,0,1,12.936,6.377Z"/><path class="cls-5" d="M30.6,4.217c-.3.735-1.854.8-3.471.136s-2.684-1.791-2.384-2.526,1.853-.8,3.47-.136S30.9,3.482,30.6,4.217Z"/><path class="cls-5" d="M27.93,2.666a4.27,4.27,0,0,1,2.36,1.9.756.756,0,0,0,.307-.349c.3-.735-.768-1.866-2.385-2.526s-3.171-.6-3.47.136a.834.834,0,0,0,.024.626A3.923,3.923,0,0,1,27.93,2.666Z"/><path class="cls-5" d="M12.18,38.252c.171-.487,1.177-.577,2.248-.2s1.8,1.075,1.63,1.561-1.177.577-2.248.2S12.01,38.738,12.18,38.252Z"/><path class="cls-5" d="M13.961,39.171a2.78,2.78,0,0,1-1.593-1.156.493.493,0,0,0-.188.237c-.17.486.559,1.185,1.63,1.561s2.077.285,2.248-.2a.537.537,0,0,0-.037-.4A2.554,2.554,0,0,1,13.961,39.171Z"/><path class="cls-5" d="M7.6,5.393c.369.36.025,1.31-.767,2.122s-1.735,1.178-2.1.817S4.707,7.022,5.5,6.21,7.234,5.032,7.6,5.393Z"/><path class="cls-5" d="M6.017,6.618a2.778,2.778,0,0,1,1.721-.955.49.49,0,0,0-.135-.27c-.369-.361-1.311,0-2.1.817S4.363,7.972,4.732,8.332a.539.539,0,0,0,.382.138A2.552,2.552,0,0,1,6.017,6.618Z"/><path class="cls-5" d="M.878,22.966c.351-.124.858.4,1.132,1.177s.21,1.5-.142,1.626-.859-.4-1.132-1.176S.526,23.091.878,22.966Z"/><path class="cls-5" d="M1.166,24.387a2.012,2.012,0,0,1-.07-1.422.353.353,0,0,0-.218,0c-.352.125-.416.853-.142,1.627s.78,1.3,1.132,1.176a.389.389,0,0,0,.212-.2A1.845,1.845,0,0,1,1.166,24.387Z"/><path class="cls-5" d="M30,37.363c-.414-.559.247-1.75,1.477-2.66s2.562-1.2,2.976-.636-.248,1.75-1.477,2.66S30.413,37.922,30,37.363Z"/><path class="cls-5" d="M32.374,36.072a3.735,3.735,0,0,1-2.5.9.662.662,0,0,0,.122.389c.413.559,1.746.275,2.976-.636s1.891-2.1,1.477-2.66a.722.722,0,0,0-.479-.266A3.436,3.436,0,0,1,32.374,36.072Z"/><path class="cls-5" d="M20.917,31.747a3.281,3.281,0,0,1,2.031-4.139,3.281,3.281,0,0,1,4.411,1.341,3.281,3.281,0,0,1-2.031,4.139A3.281,3.281,0,0,1,20.917,31.747Z"/><path class="cls-5" d="M24.647,31.784a3.5,3.5,0,0,1-3.893-.572,2.552,2.552,0,0,0,.163.535,3.281,3.281,0,0,0,4.411,1.341,3.281,3.281,0,0,0,2.031-4.139,2.568,2.568,0,0,0-.517-.769A3.41,3.41,0,0,1,24.647,31.784Z"/><path class="cls-5" d="M29.662,13.471a2.468,2.468,0,0,1-3.454-.307,2.468,2.468,0,0,1-.251-3.458,2.468,2.468,0,0,1,3.454.307A2.468,2.468,0,0,1,29.662,13.471Z"/><path class="cls-5" d="M28.68,10.843a2.634,2.634,0,0,1,.651,2.887,1.936,1.936,0,0,0,.331-.259,2.468,2.468,0,0,0-.251-3.458,2.468,2.468,0,0,0-3.454-.307,1.947,1.947,0,0,0-.4.571A2.564,2.564,0,0,1,28.68,10.843Z"/><path class="cls-5" d="M16.93,14.754a2.523,2.523,0,0,1,.886,3.433,2.524,2.524,0,0,1-3.246,1.425,2.523,2.523,0,0,1-.886-3.433A2.523,2.523,0,0,1,16.93,14.754Z"/><path class="cls-5" d="M14.734,16.6a2.693,2.693,0,0,1,2.559-1.616,1.993,1.993,0,0,0-.363-.23,2.523,2.523,0,0,0-3.246,1.425,2.523,2.523,0,0,0,.886,3.433,1.987,1.987,0,0,0,.687.19A2.621,2.621,0,0,1,14.734,16.6Z"/><path class="cls-5" d="M10.965,18.087a1.371,1.371,0,0,1-1.182,2.434,1.371,1.371,0,0,1,1.182-2.434Z"/><path class="cls-5" d="M9.865,19.012a1.348,1.348,0,0,1,1.282-.809,1,1,0,0,0-.182-.116,1.371,1.371,0,0,0-1.182,2.434.984.984,0,0,0,.344.1A1.314,1.314,0,0,1,9.865,19.012Z"/><g class="cls-6"><path class="cls-7" d="M29.048,35.324c.035.06-.286.34-.465.7a2.657,2.657,0,0,0-.245.749,2.616,2.616,0,0,0-.113.78c0,.4.162.8.1.836s-.354-.322-.455-.79a1.867,1.867,0,0,1,.415-1.772C28.587,35.455,29.018,35.263,29.048,35.324Z"/><path class="cls-7" d="M32.3,32.618c-.033-.061.252-.283.574-.453a4.881,4.881,0,0,1,.67-.286,4.751,4.751,0,0,1,.725-.062c.364,0,.721.059.72.128s-.345.133-.675.223-.649.2-.649.2-.332.053-.665.132S32.335,32.679,32.3,32.618Z"/><path class="cls-7" d="M24.548,25.871a2.25,2.25,0,0,1,1.483-.3,3.43,3.43,0,0,1,1.044.246,3.136,3.136,0,0,1,.445.219,3.224,3.224,0,0,1,.383.315,3.459,3.459,0,0,1,.655.851,2.248,2.248,0,0,1,.336,1.475,8.706,8.706,0,0,0-.637-1.289A3.39,3.39,0,0,0,27.6,26.7a3.027,3.027,0,0,0-.352-.242,2.944,2.944,0,0,0-.366-.221,3.361,3.361,0,0,0-.9-.314A8.626,8.626,0,0,0,24.548,25.871Z"/><path class="cls-7" d="M19.229,32.113c.068-.014.19.236.342.454a4.25,4.25,0,0,0,.324.409,4.14,4.14,0,0,0,.287.436c.158.212.358.407.323.467s-.316-.036-.565-.209a2.607,2.607,0,0,1-.45-.4,2.627,2.627,0,0,1-.24-.554C19.164,32.424,19.162,32.127,19.229,32.113Z"/><path class="cls-7" d="M33.141,17.584c-.053.05-.365-.312-.382-.793a1.524,1.524,0,0,1,.1-.638A1.407,1.407,0,0,1,33,15.88a1.358,1.358,0,0,1,.221-.211,1.52,1.52,0,0,1,.584-.278c.465-.122.9.075.869.14s-.426.019-.756.2a1.311,1.311,0,0,0-.39.287,9.168,9.168,0,0,0-.251.336,1.3,1.3,0,0,0-.164.456C33.039,17.171,33.2,17.548,33.141,17.584Z"/><path class="cls-7" d="M34.13,22.777a8.409,8.409,0,0,1-.383,1.515,9.428,9.428,0,0,0-.215,1.026c-.041.28-.052.467-.052.467s-.031.183-.048.462a4.56,4.56,0,0,0,.051,1.022,3.829,3.829,0,0,0,.307.984c.12.258.228.422.2.447s-.184-.1-.366-.347a3.184,3.184,0,0,1-.484-1,4.41,4.41,0,0,1-.168-1.108,4.6,4.6,0,0,1,.012-.512s.027-.2.1-.5a7.867,7.867,0,0,1,.332-1.048A5.117,5.117,0,0,1,34.13,22.777Z"/><path class="cls-7" d="M28.744,15.547c.015-.068.465-.053.865-.205a2.753,2.753,0,0,0,.73-.407,2.76,2.76,0,0,0,.645-.532c.288-.317.438-.742.506-.731s.04.5-.216.934a2.736,2.736,0,0,1-.653.743,2.737,2.737,0,0,1-.928.337C29.2,15.766,28.725,15.612,28.744,15.547Z"/><path class="cls-7" d="M24.212,10.4c.064.028-.091.572-.04,1.115a3.747,3.747,0,0,0,.138.724c.06.191.109.314.109.314s.037.128.108.315a3.751,3.751,0,0,0,.339.655c.294.459.752.792.719.853s-.586-.176-1-.633a3.615,3.615,0,0,1-.642-1.026,3.606,3.606,0,0,1-.128-1.2A1.763,1.763,0,0,1,24.212,10.4Z"/><path class="cls-7" d="M27.552,5.626c.036-.059.5.132.991.165A3.75,3.75,0,0,0,29.5,5.74a3.771,3.771,0,0,0,.938-.193c.462-.156.867-.46.916-.411s-.288.467-.768.732a3.49,3.49,0,0,1-1.022.368,3.518,3.518,0,0,1-1.081-.1C27.949,6.005,27.514,5.683,27.552,5.626Z"/><path class="cls-7" d="M22.488,1.885c.069-.01.224.559.55,1.026a4.122,4.122,0,0,0,.5.592c.15.146.257.234.257.234s.1.1.257.235a4.142,4.142,0,0,0,.635.439c.5.282,1.077.384,1.073.454a1.934,1.934,0,0,1-1.218-.131,3.974,3.974,0,0,1-1.084-.627,3.969,3.969,0,0,1-.724-1.022A1.933,1.933,0,0,1,22.488,1.885Z"/><path class="cls-7" d="M17.642,13.541c0-.03.154-.066.385-.019a1.682,1.682,0,0,1,.753.4,3.016,3.016,0,0,1,.539.658,3.327,3.327,0,0,1,.184.339,5.8,5.8,0,0,1,.287,1.165,2.344,2.344,0,0,1-.04,1.187,8.148,8.148,0,0,1-.306-1.113,7.241,7.241,0,0,0-.4-1.044,3.324,3.324,0,0,0-.517-.945,1.8,1.8,0,0,0-.562-.468C17.783,13.612,17.64,13.579,17.642,13.541Z"/><path class="cls-7" d="M15.233,21.75c-.02-.067.294-.229.581-.418s.553-.4.553-.4.3-.16.581-.354.558-.415.612-.371-.131.36-.378.637a4.36,4.36,0,0,1-.539.505,4.3,4.3,0,0,1-.677.3C15.616,21.77,15.252,21.815,15.233,21.75Z"/><path class="cls-7" d="M10.573,29.228a2.375,2.375,0,0,1,1.048.666,5.281,5.281,0,0,1,.808.965,5.1,5.1,0,0,1,.439,1.183,1.7,1.7,0,0,1-.006.892c-.081.242-.224.345-.245.324s.043-.156.055-.364a1.82,1.82,0,0,0-.143-.752A5.978,5.978,0,0,0,12,31.111a6.124,6.124,0,0,0-.635-.976C11,29.67,10.535,29.287,10.573,29.228Z"/><path class="cls-7" d="M7,27.861c-.026-.063.2-.215.453-.309a2.583,2.583,0,0,1,.529-.129,2.543,2.543,0,0,1,.535.105c.261.082.49.224.467.289s-.276.048-.517.061-.473.045-.473.045-.232-.024-.475-.023S7.022,27.926,7,27.861Z"/><path class="cls-7" d="M15,36.771c-.008-.068.419-.159.86-.1a3.237,3.237,0,0,1,.85.235,3.218,3.218,0,0,1,.68.562c.3.328.47.73.41.762s-.326-.275-.648-.5a3.853,3.853,0,0,0-.673-.379,3.837,3.837,0,0,0-.7-.334C15.416,36.88,15.009,36.84,15,36.771Z"/><path class="cls-7" d="M10.943,37.218c-.054-.042.033-.244.19-.405a1.526,1.526,0,0,1,.358-.268,1.517,1.517,0,0,1,.447-.033c.224.018.422.113.409.181s-.2.1-.369.171a2.2,2.2,0,0,0-.311.15,2.207,2.207,0,0,0-.334.091C11.165,37.163,11,37.262,10.943,37.218Z"/><path class="cls-7" d="M15.193,8.088c-.045-.056.333-.416.635-.813a3.676,3.676,0,0,0,.362-.565,2.733,2.733,0,0,0,.121-.27,2.253,2.253,0,0,0,.254-.894,1.936,1.936,0,0,0-.073-.652c-.051-.177-.109-.295-.08-.318s.139.06.256.235a1.66,1.66,0,0,1,.251.722,2.3,2.3,0,0,1-.047.773,2.269,2.269,0,0,1-.106.342,2.7,2.7,0,0,1-.181.3,3.435,3.435,0,0,1-.5.567C15.69,7.881,15.233,8.14,15.193,8.088Z"/><path class="cls-7" d="M10.033,9.6c.05-.048.251.053.454.082a1.608,1.608,0,0,0,.4.014,1.608,1.608,0,0,0,.394.032c.205-.006.416-.084.46-.03s-.119.257-.365.371a1.466,1.466,0,0,1-.518.127,1.466,1.466,0,0,1-.5-.186C10.122,9.874,9.983,9.65,10.033,9.6Z"/><path class="cls-7" d="M7.951,7.27c-.057-.04.09-.352.218-.659A5.868,5.868,0,0,0,8.39,6a2.59,2.59,0,0,0,.216-.581c.078-.3.021-.626.085-.654s.26.294.268.681a2.248,2.248,0,0,1-.1.735,3.781,3.781,0,0,1-.382.608C8.257,7.069,8.007,7.309,7.951,7.27Z"/><path class="cls-7" d="M4.573,9.662c.036-.059.318.013.581-.042a1.578,1.578,0,0,0,.486-.181A1.591,1.591,0,0,0,6.1,9.2c.218-.157.355-.416.422-.4s.048.356-.162.642a1.629,1.629,0,0,1-.518.456,1.65,1.65,0,0,1-.686.077C4.805,9.936,4.534,9.718,4.573,9.662Z"/><path class="cls-7" d="M2.517,24.324c.066-.018.2.254.257.557a2.833,2.833,0,0,1,.046.612,2.769,2.769,0,0,1-.208.578c-.136.275-.337.5-.4.467s.021-.308.06-.578a4.417,4.417,0,0,0,.048-.535,4.521,4.521,0,0,0,.1-.528C2.455,24.627,2.45,24.342,2.517,24.324Z"/><path class="cls-7" d="M.9,22.034c.008-.068.185-.107.367-.094a1.518,1.518,0,0,1,.357.072,1.542,1.542,0,0,1,.261.253c.114.143.182.311.13.356s-.2-.024-.345-.075-.279-.091-.279-.091-.109-.09-.234-.179S.894,22.1.9,22.034Z"/><path class="cls-7" d="M9.5,21.383c.053-.037.311.17.616.2a1.306,1.306,0,0,0,.574-.046,1.672,1.672,0,0,0,.571-.177c.285-.138.535-.371.591-.33s-.1.368-.388.62a1.75,1.75,0,0,1-.439.29,1.634,1.634,0,0,1-.232.087,1.407,1.407,0,0,1-.252.012,1.489,1.489,0,0,1-.528-.117C9.635,21.772,9.435,21.418,9.5,21.383Z"/><path class="cls-7" d="M8.441,17.567c-.063-.03.111-.439.481-.7a1.789,1.789,0,0,1,.55-.272,1.618,1.618,0,0,1,.28-.06,1.625,1.625,0,0,1,.286.026,1.774,1.774,0,0,1,.579.2c.4.215.62.6.56.638s-.348-.221-.7-.314a1.649,1.649,0,0,0-.692-.055,1.647,1.647,0,0,0-.68.137C8.761,17.307,8.5,17.6,8.441,17.567Z"/></g><path class="cls-8" d="M1.736,26.481c.2.606.42,1.207.679,1.8a19.427,19.427,0,0,0,8.931,9.555c-.21.845.781,1.967,2.3,2.563a4.061,4.061,0,0,0,2.793.2,17.226,17.226,0,0,1-6.162-7.423A17.775,17.775,0,0,1,19.746,9.9a18.014,18.014,0,0,1,18.145,2.146A19.416,19.416,0,0,0,31.56,4.564a1.293,1.293,0,0,0,.092-.182c.483-1.23-.977-2.955-3.262-3.852s-4.529-.628-5.012.6c-.014.035-.02.072-.031.107A19.488,19.488,0,0,0,8.812,4.75c-.685-.6-2.223-.3-3.58.736C3.781,6.6,3.089,8.131,3.687,8.913a1.122,1.122,0,0,0,.648.4A19.561,19.561,0,0,0,.877,22.243a.63.63,0,0,0-.13.006C.118,22.4-.17,23.463.1,24.632S1.107,26.627,1.736,26.481Z"/><ellipse class="cls-9" cx="24.777" cy="24.553" rx="11.783" ry="11.733" transform="translate(-7.732 11.907) rotate(-23.483)"/><path class="cls-10" d="M22.117,21.257a.642.642,0,1,1,.845.334A.643.643,0,0,1,22.117,21.257Zm-2.633.817a.771.771,0,1,0-1.014-.4A.771.771,0,0,0,19.484,22.074ZM15.4,32.441a1.028,1.028,0,1,0-1.352-.533A1.027,1.027,0,0,0,15.4,32.441Zm-1.586-4.727a.514.514,0,1,0-.676-.267A.514.514,0,0,0,13.809,27.714Zm-3.8-1.433a.428.428,0,1,0-.564-.222A.428.428,0,0,0,10.012,26.281ZM18.58,9.673A1.113,1.113,0,1,0,17.116,9.1,1.113,1.113,0,0,0,18.58,9.673Zm-3.41.641a.385.385,0,1,0-.507-.2A.386.386,0,0,0,15.17,10.314ZM8.932,12.183a.6.6,0,1,0-.789-.311A.6.6,0,0,0,8.932,12.183Zm-3.6,4.083a1.156,1.156,0,1,0-1.521-.6A1.155,1.155,0,0,0,5.335,16.266Zm0-4.3a.385.385,0,1,0-.507-.2A.386.386,0,0,0,5.337,11.97ZM2.963,21.125a.556.556,0,1,0-.732-.289A.557.557,0,0,0,2.963,21.125ZM18.1,3.721a.557.557,0,1,0-.732-.289A.557.557,0,0,0,18.1,3.721ZM31.014,11a.685.685,0,1,0-.9-.356A.685.685,0,0,0,31.014,11Zm-7.38-3.985a.385.385,0,1,0-.507-.2A.385.385,0,0,0,23.634,7.012Zm5.153,15.411a.943.943,0,1,0-1.24-.489A.942.942,0,0,0,28.787,22.423Zm-4.312-5.411a.257.257,0,1,0-.338-.134A.257.257,0,0,0,24.475,17.012Zm4.737,13.163a.471.471,0,1,0-.62-.244A.469.469,0,0,0,29.212,30.175Zm-1.555,1.8a.471.471,0,1,0-.619-.244A.472.472,0,0,0,27.657,31.971Zm-5.924,5.281a1.413,1.413,0,1,0-1.859-.733A1.413,1.413,0,0,0,21.733,37.252ZM19.881,33.2a.3.3,0,1,0-.395-.156A.3.3,0,0,0,19.881,33.2Z"/></g></g></g></g></svg>