<svg xmlns="http://www.w3.org/2000/svg" xmlns:xlink="http://www.w3.org/1999/xlink" viewBox="0 0 304.565 247.677"><defs><style>.cls-1{isolation:isolate;}.cls-2{fill:url(#radial-gradient);}.cls-3,.cls-6,.cls-9{mix-blend-mode:screen;}.cls-3{fill:url(#radial-gradient-2);}.cls-10,.cls-4,.cls-5,.cls-7{mix-blend-mode:multiply;}.cls-4{fill:url(#radial-gradient-3);}.cls-5{fill:url(#radial-gradient-4);}.cls-10,.cls-6,.cls-8{fill:#f4ae00;}.cls-11{fill:url(#radial-gradient-5);}.cls-12{fill:url(#radial-gradient-6);}.cls-13{fill:url(#radial-gradient-7);}.cls-14{fill:url(#radial-gradient-8);}.cls-15{fill:url(#radial-gradient-9);}.cls-16{fill:url(#radial-gradient-10);}.cls-17{fill:url(#radial-gradient-11);}.cls-18{fill:url(#radial-gradient-12);}.cls-19{fill:url(#radial-gradient-13);}</style><radialGradient id="radial-gradient" cx="379.74" cy="119.107" r="177.974" gradientTransform="matrix(0.732, 0.681, -0.681, 0.732, -6.681, -277.406)" gradientUnits="userSpaceOnUse"><stop offset="0.081" stop-color="#ffe22d"/><stop offset="0.996" stop-color="#fd8413"/></radialGradient><radialGradient id="radial-gradient-2" cx="385.913" cy="187.313" r="156.127" gradientTransform="translate(252.458 -294.669) rotate(77.806)" gradientUnits="userSpaceOnUse"><stop offset="0.081" stop-color="#f0ac39"/><stop offset="0.848" stop-color="#f0ac39" stop-opacity="0"/></radialGradient><radialGradient id="radial-gradient-3" cx="380.317" cy="135.146" r="165.272" gradientTransform="matrix(0.841, 0.542, -0.542, 0.841, -75.444, -243.404)" gradientUnits="userSpaceOnUse"><stop offset="0.004" stop-color="#fd8413"/><stop offset="0.919" stop-color="#ffe22d"/></radialGradient><radialGradient id="radial-gradient-4" cx="366.65" cy="-394.783" r="165.271" gradientTransform="translate(-262.692 -169.229) rotate(77.801)" xlink:href="#radial-gradient-3"/><radialGradient id="radial-gradient-5" cx="390.381" cy="185.287" r="112.529" gradientTransform="matrix(0.841, 0.542, -0.542, 0.841, -75.444, -243.404)" xlink:href="#radial-gradient"/><radialGradient id="radial-gradient-6" cx="390.381" cy="185.287" r="112.529" gradientTransform="matrix(0.841, 0.542, -0.542, 0.841, -75.444, -243.404)" gradientUnits="userSpaceOnUse"><stop offset="0.081" stop-color="#f0ac39"/><stop offset="1" stop-color="#ff491b"/></radialGradient><radialGradient id="radial-gradient-7" cx="479.991" cy="124.893" r="22.706" xlink:href="#radial-gradient-6"/><radialGradient id="radial-gradient-8" cx="390.677" cy="188.399" r="111.299" xlink:href="#radial-gradient-6"/><radialGradient id="radial-gradient-9" cx="283.762" cy="216.236" r="23.028" xlink:href="#radial-gradient-6"/><radialGradient id="radial-gradient-10" cx="390.381" cy="185.287" r="112.296" gradientTransform="matrix(0.841, 0.542, -0.542, 0.841, -75.444, -243.404)" xlink:href="#radial-gradient"/><radialGradient id="radial-gradient-11" cx="292.133" cy="133.722" r="22.931" xlink:href="#radial-gradient-6"/><radialGradient id="radial-gradient-12" cx="499.547" cy="203.181" r="22.285" xlink:href="#radial-gradient-6"/><radialGradient id="radial-gradient-13" cx="390.372" cy="191.904" r="110.502" xlink:href="#radial-gradient-6"/></defs><title>Asset 8</title><g class="cls-1"><g id="Layer_2" data-name="Layer 2"><g id="Layer_1-2" data-name="Layer 1"><g id="player_planets"><g id="yellow_planet"><circle class="cls-2" cx="150.389" cy="126.777" r="91.977" transform="translate(-19.986 28.484) rotate(-10.149)"/><circle class="cls-3" cx="150.389" cy="126.777" r="108.974" transform="translate(-45.597 143.473) rotate(-45)"/><path class="cls-4" d="M236.564,94.612A86.311,86.311,0,0,1,66.47,89.11a91.981,91.981,0,1,0,170.094,5.5Z"/><path class="cls-5" d="M234.027,165.077A86.311,86.311,0,0,1,117.643,40.912,91.981,91.981,0,1,0,234.027,165.077Z"/><circle class="cls-6" cx="159.51" cy="82.738" r="12.575" transform="translate(-5.392 11.349) rotate(-4.007)"/><g class="cls-7"><path class="cls-8" d="M147.564,116.561l.138.454c.744,2.457,2.781,4.685,5.552,4.684a6.19,6.19,0,0,0,5.934-4.163,6.321,6.321,0,0,0,.265-1.518,5.912,5.912,0,0,0-3.441-5.595c-1.974-.927-4.862-.793-6.462.9l-.434.46a5.043,5.043,0,0,0-1.552,4.777Z"/></g><g class="cls-7"><path class="cls-8" d="M178.271,110.688l-.507-.126a4.191,4.191,0,0,0-4.661,1.688,4.266,4.266,0,0,0,.387,4.942l.324.41c1.74,2.2,5.337,1.686,6.767-.532s.41-5.708-2.31-6.382Z"/></g><g class="cls-9"><path class="cls-8" d="M197.175,90.938c8.638,5.567,17.3-7.848,8.653-13.425s-17.306,7.848-8.653,13.425Z"/></g><g class="cls-7"><path class="cls-8" d="M203.543,121.489c2.847,1.834,5.7-2.587,2.852-4.425s-5.7,2.587-2.852,4.425Z"/></g><g class="cls-7"><path class="cls-8" d="M125.168,105.32a6.352,6.352,0,1,0-1.9-8.78,6.424,6.424,0,0,0,1.9,8.78Z"/></g><g class="cls-7"><path class="cls-8" d="M129.223,63.091c4.712,3.037,9.439-4.281,4.719-7.323s-9.439,4.281-4.719,7.323Z"/></g><g class="cls-7"><path class="cls-8" d="M111.616,75.867l-.7-.077a4.018,4.018,0,0,0-3.736,5.8l.358.6a4.356,4.356,0,1,0,4.075-6.323Z"/></g><g class="cls-7"><path class="cls-8" d="M167.039,59.825a8.149,8.149,0,0,0,5.946,1.08,7.895,7.895,0,0,0,2.609-14.353,8.145,8.145,0,0,0-5.946-1.081,7.9,7.9,0,0,0-2.609,14.354Z"/></g><g class="cls-9"><path class="cls-8" d="M166.855,146.964c3.632,2.341,7.276-3.3,3.638-5.645s-7.276,3.3-3.638,5.645Z"/></g><g class="cls-9"><path class="cls-8" d="M182.9,141.538c3.338,2.152,6.687-3.032,3.344-5.187s-6.687,3.033-3.344,5.187Z"/></g><g class="cls-7"><path class="cls-8" d="M182.561,97.139c3.534,2.277,7.08-3.211,3.54-5.493s-7.079,3.211-3.54,5.493Z"/></g><g class="cls-7"><path class="cls-8" d="M174.155,75.738c3.044,1.962,6.1-2.764,3.049-4.729s-6.1,2.765-3.049,4.729Z"/></g><g class="cls-9"><path class="cls-8" d="M80.243,131.6c2.873,1.851,7.254,1.1,9.032-1.953a6.646,6.646,0,0,0-1.952-9.031c-2.873-1.852-7.253-1.1-9.032,1.952a6.649,6.649,0,0,0,1.952,9.032Z"/></g><g class="cls-7"><path class="cls-8" d="M101.565,173.39a.908.908,0,0,0,.983-1.526.908.908,0,0,0-.983,1.526Z"/></g><g class="cls-7"><path class="cls-8" d="M119.543,172.45c3.632,2.341,7.276-3.3,3.638-5.645s-7.276,3.3-3.638,5.645Z"/></g><g class="cls-9"><path class="cls-8" d="M121.064,197.046c6.675,4.3,13.372-6.065,6.686-10.374s-13.372,6.064-6.686,10.374Z"/></g><g class="cls-7"><path class="cls-8" d="M93.348,169.606l.072-.464c.383-2.479-2.981-4.647-5.08-3.274l-.393.257a3.9,3.9,0,0,0-2.035,3.157,3.722,3.722,0,0,0,5.4,3.481,3.9,3.9,0,0,0,2.035-3.157Z"/></g><g class="cls-7"><path class="cls-8" d="M183.293,175.37a4.537,4.537,0,1,0-1.356-6.272,4.587,4.587,0,0,0,1.356,6.272Z"/></g><g class="cls-7"><path class="cls-8" d="M197.336,182.034a.1.1,0,0,0,.1-.163.1.1,0,0,0-.1.163Z"/></g><g class="cls-9"><path class="cls-8" d="M214.1,136.555c3.338,2.151,6.687-3.033,3.344-5.187s-6.687,3.032-3.344,5.187Z"/></g><g class="cls-9"><path class="cls-8" d="M204.337,186.146c5.007,3.227,10.03-4.548,5.015-7.78s-10.029,4.548-5.015,7.78Z"/></g><g class="cls-9"><path class="cls-10" d="M184.954,137.567a38.341,38.341,0,0,0,25.833,58.573,92,92,0,0,0,31.55-66.677,38.069,38.069,0,0,0-57.383,8.1Z"/><path class="cls-10" d="M235.549,92.073a91.546,91.546,0,0,0-15.819-25.72,15.211,15.211,0,0,0,15.819,25.72Z"/><path class="cls-10" d="M100.56,204.087a92.838,92.838,0,0,0,11.553,6.317,35.507,35.507,0,1,0-47.922-51.527A91.572,91.572,0,0,0,100.56,204.087Z"/><path class="cls-10" d="M66.354,89.361a91.29,91.29,0,0,0-7.14,25.252,14.076,14.076,0,0,0,7.14-25.252Z"/><path class="cls-10" d="M162.107,207.358a17.465,17.465,0,0,0-26.362,10.224,92.1,92.1,0,0,0,33.555-.805A17.406,17.406,0,0,0,162.107,207.358Z"/><path class="cls-10" d="M154.672,191.834a14.1,14.1,0,1,0-4.211-19.483A14.1,14.1,0,0,0,154.672,191.834Z"/></g><path class="cls-11" d="M304.457,142.374c1.526-12.531-13.131-23.86-44.819-34.632-7.095-2.412-14.875-4.71-23.138-6.889a46.888,46.888,0,0,1,2.042,7.237,69.771,69.771,0,0,1,2.112,9.511c3.746,1.073,7.394,2.165,10.848,3.29,32.067,10.441,37.225,18.228,37.923,19.651-1.019,1.215-7.9,7.536-41.533,9.974-27.065,1.963-62.008.6-98.392-3.828s-70.631-11.5-96.435-19.9C21,116.346,15.837,108.561,15.141,107.135c1.019-1.217,7.9-7.535,41.531-9.974,3.676-.267,7.531-.456,11.485-.6a49.713,49.713,0,0,1,6.787-15.236c-8.138.147-15.868.506-23.014,1.117C18.586,85.3,1.635,92.772.108,105.3c-.889,7.3,3.71,14.185,13.965,20.8q11.032,7.11,30.854,13.836c27.111,9.217,63.6,16.919,102.754,21.688s76.426,6.051,104.955,3.611C285.98,162.383,302.931,154.9,304.457,142.374Z"/><g class="cls-7"><path class="cls-12" d="M304.457,142.374c1.526-12.531-13.131-23.86-44.819-34.632-7.095-2.412-14.875-4.71-23.138-6.889a46.888,46.888,0,0,1,2.042,7.237,69.771,69.771,0,0,1,2.112,9.511c3.746,1.073,7.394,2.165,10.848,3.29,32.067,10.441,37.225,18.228,37.923,19.651-1.019,1.215-7.9,7.536-41.533,9.974-27.065,1.963-62.008.6-98.392-3.828s-70.631-11.5-96.435-19.9C21,116.346,15.837,108.561,15.141,107.135c1.019-1.217,7.9-7.535,41.531-9.974,3.676-.267,7.531-.456,11.485-.6a49.713,49.713,0,0,1,6.787-15.236c-8.138.147-15.868.506-23.014,1.117C18.586,85.3,1.635,92.772.108,105.3c-.889,7.3,3.71,14.185,13.965,20.8q11.032,7.11,30.854,13.836c27.111,9.217,63.6,16.919,102.754,21.688s76.426,6.051,104.955,3.611C285.98,162.383,302.931,154.9,304.457,142.374Z"/></g><path class="cls-13" d="M240.654,117.6c3.746,1.073,7.4,2.165,10.848,3.29,20.124,6.552,29.648,12.058,34.124,15.6a12.382,12.382,0,0,0,4.1-2.756c-.7-1.423-5.855-9.211-37.922-19.652-3.454-1.124-7.1-2.216-10.848-3.289a70.319,70.319,0,0,0-2.056-9.292c-.8-.217-1.588-.437-2.4-.652a46.888,46.888,0,0,1,2.042,7.237A69.771,69.771,0,0,1,240.654,117.6Z"/><path class="cls-14" d="M304.457,142.374a14.261,14.261,0,0,0-.17-4.5c-3.253,11.148-20.1,17.884-51.348,20.556-28.53,2.44-65.8,1.157-104.955-3.611S72.34,142.348,45.229,133.131q-19.849-6.75-30.854-13.837C6.25,114.057,1.69,108.646.583,102.994a14.338,14.338,0,0,0-.475,2.31c-.889,7.3,3.71,14.185,13.965,20.794q11.032,7.111,30.854,13.837c27.111,9.217,63.6,16.919,102.754,21.688s76.426,6.051,104.955,3.611C285.98,162.383,302.931,154.9,304.457,142.374Z"/><path class="cls-15" d="M68.46,89.758c-3.954.143-7.809.332-11.485.6C23.343,92.8,16.462,99.114,15.443,100.33c.26.532,1.142,1.945,3.8,4.049,4.983-2.4,15.534-5.631,37.431-7.218,3.676-.267,7.531-.456,11.485-.6a49.7,49.7,0,0,1,6.787-15.236c-1.188.022-2.348.058-3.518.088A53.873,53.873,0,0,0,68.46,89.758Z"/><path class="cls-16" d="M246.78,244.549c9.94-7.782,7.586-26.157-7.2-56.18-3.311-6.723-7.188-13.849-11.49-21.233a46.822,46.822,0,0,1-3.674,6.561,69.755,69.755,0,0,1-5.231,8.22c1.89,3.407,3.7,6.759,5.344,10,15.292,30.058,13.433,39.211,12.92,40.711-1.579.139-10.914-.257-36.421-22.315-20.526-17.75-44.273-43.42-66.866-72.281S92.346,79.953,80.04,55.766C64.752,25.711,66.6,16.554,67.121,15.053c1.58-.139,10.913.258,36.419,22.315,2.788,2.411,5.648,5,8.545,7.7a49.681,49.681,0,0,1,15.572-5.975c-5.858-5.651-11.578-10.862-17.063-15.483C85,2.046,67.726-4.652,57.785,3.129,52,7.661,50.378,15.782,52.956,27.708q2.772,12.828,12.033,31.6C77.642,85,98,116.246,122.311,147.3s49.763,58.319,71.662,76.767C219.567,245.632,236.84,252.33,246.78,244.549Z"/><g class="cls-9"><path class="cls-17" d="M107.533,32.351C82.027,10.294,72.693,9.9,71.113,10.036c-.194.564-.576,2.208-.168,5.634,4.919,1.485,14.833,6.337,32.6,21.7,2.788,2.411,5.648,5,8.545,7.7a49.681,49.681,0,0,1,15.572-5.975c-1.055-1.018-2.1-2-3.147-2.993a53.472,53.472,0,0,0-8.432,3.951C113.18,37.353,110.32,34.762,107.533,32.351Z"/><path class="cls-18" d="M219.182,181.917c1.89,3.407,3.7,6.759,5.344,10,9.548,18.766,12.409,29.383,13.087,35.077a10.744,10.744,0,0,0,3.826.617c.512-1.5,2.372-10.653-12.92-40.711-1.647-3.237-3.455-6.589-5.345-10a69.845,69.845,0,0,0,5.232-8.22c.1-.156.191-.32.292-.477-.207-.357-.4-.708-.611-1.067a46.822,46.822,0,0,1-3.674,6.561A69.837,69.837,0,0,1,219.182,181.917Z"/><path class="cls-19" d="M250.773,239.532c-9.94,7.78-27.214,1.083-52.808-20.479-21.9-18.448-47.348-45.711-71.661-76.767S81.635,79.979,68.981,54.292q-9.262-18.809-12.033-31.6c-1.8-8.317-1.547-14.778.728-19.468-5.7,4.549-7.281,12.639-4.72,24.485,1.848,8.554,5.857,19.063,12.033,31.6C77.642,85,98,116.246,122.311,147.3s49.763,58.319,71.662,76.767c25.594,21.562,42.867,28.259,52.807,20.479a14.351,14.351,0,0,0,4.064-5.083C250.819,239.486,250.8,239.511,250.773,239.532Z"/></g></g></g></g></g></g></svg>