<svg xmlns="http://www.w3.org/2000/svg" xmlns:xlink="http://www.w3.org/1999/xlink" viewBox="0 0 270.996 270.996"><defs><style>.cls-1{isolation:isolate;}.cls-2{fill:url(#radial-gradient);}.cls-21,.cls-22,.cls-3{opacity:0.5;}.cls-3{fill:url(#radial-gradient-2);}.cls-4{fill:url(#radial-gradient-3);}.cls-5{fill:url(#radial-gradient-4);}.cls-6{fill:url(#radial-gradient-5);}.cls-7{fill:url(#radial-gradient-6);}.cls-8{fill:url(#radial-gradient-7);}.cls-9{fill:url(#radial-gradient-8);}.cls-10{fill:url(#radial-gradient-9);}.cls-11{fill:url(#radial-gradient-10);}.cls-12{fill:url(#radial-gradient-11);}.cls-13{fill:url(#radial-gradient-12);}.cls-14{fill:url(#radial-gradient-13);}.cls-15{fill:url(#radial-gradient-14);}.cls-16{fill:url(#radial-gradient-15);}.cls-17{fill:url(#radial-gradient-16);}.cls-18{fill:url(#radial-gradient-17);}.cls-19{fill:url(#radial-gradient-18);}.cls-20{fill:url(#radial-gradient-19);}.cls-21,.cls-22{mix-blend-mode:multiply;}.cls-21{fill:url(#radial-gradient-20);}.cls-22{fill:url(#radial-gradient-21);}.cls-23{opacity:0.3;mix-blend-mode:screen;fill:url(#radial-gradient-22);}</style><radialGradient id="radial-gradient" cx="97.073" cy="52.714" r="232.505" gradientUnits="userSpaceOnUse"><stop offset="0" stop-color="#cae1ee"/><stop offset="0.337" stop-color="#52e1ee"/><stop offset="0.944" stop-color="#842ba7"/></radialGradient><radialGradient id="radial-gradient-2" cx="128.519" cy="134.295" r="123.93" gradientTransform="translate(135.498 -56.125) rotate(45)" gradientUnits="userSpaceOnUse"><stop offset="0.063" stop-color="#3e8def"/><stop offset="0.24" stop-color="#3e8eef" stop-opacity="0.988"/><stop offset="0.368" stop-color="#3f91ef" stop-opacity="0.949"/><stop offset="0.48" stop-color="#4097ef" stop-opacity="0.883"/><stop offset="0.583" stop-color="#429fef" stop-opacity="0.79"/><stop offset="0.68" stop-color="#45a9ef" stop-opacity="0.669"/><stop offset="0.773" stop-color="#48b5ef" stop-opacity="0.521"/><stop offset="0.862" stop-color="#4bc4ee" stop-opacity="0.345"/><stop offset="0.946" stop-color="#4fd5ee" stop-opacity="0.147"/><stop offset="1" stop-color="#52e1ee" stop-opacity="0"/></radialGradient><radialGradient id="radial-gradient-3" cx="119.372" cy="29.383" r="198.794" xlink:href="#radial-gradient"/><radialGradient id="radial-gradient-4" cx="119.373" cy="29.384" r="198.793" xlink:href="#radial-gradient"/><radialGradient id="radial-gradient-5" cx="119.373" cy="29.383" r="198.793" xlink:href="#radial-gradient"/><radialGradient id="radial-gradient-6" cx="119.373" cy="29.383" r="198.793" xlink:href="#radial-gradient"/><radialGradient id="radial-gradient-7" cx="119.373" cy="29.383" r="198.794" xlink:href="#radial-gradient"/><radialGradient id="radial-gradient-8" cx="119.373" cy="29.383" r="198.794" xlink:href="#radial-gradient"/><radialGradient id="radial-gradient-9" cx="119.373" cy="29.384" r="198.793" xlink:href="#radial-gradient"/><radialGradient id="radial-gradient-10" cx="119.373" cy="29.383" r="198.793" xlink:href="#radial-gradient"/><radialGradient id="radial-gradient-11" cx="119.373" cy="29.384" r="198.793" xlink:href="#radial-gradient"/><radialGradient id="radial-gradient-12" cx="119.373" cy="29.383" r="198.795" xlink:href="#radial-gradient"/><radialGradient id="radial-gradient-13" cx="119.373" cy="29.384" r="198.792" xlink:href="#radial-gradient"/><radialGradient id="radial-gradient-14" cx="119.373" cy="29.384" r="198.793" xlink:href="#radial-gradient"/><radialGradient id="radial-gradient-15" cx="119.373" cy="29.384" r="198.792" xlink:href="#radial-gradient"/><radialGradient id="radial-gradient-16" cx="119.373" cy="29.384" r="198.793" xlink:href="#radial-gradient"/><radialGradient id="radial-gradient-17" cx="119.373" cy="29.383" r="198.793" xlink:href="#radial-gradient"/><radialGradient id="radial-gradient-18" cx="119.373" cy="29.383" r="198.794" xlink:href="#radial-gradient"/><radialGradient id="radial-gradient-19" cx="119.372" cy="29.384" r="198.794" xlink:href="#radial-gradient"/><radialGradient id="radial-gradient-20" cx="101.498" cy="83.038" r="207.439" xlink:href="#radial-gradient"/><radialGradient id="radial-gradient-21" cx="93.512" cy="72.957" r="212.944" xlink:href="#radial-gradient"/><radialGradient id="radial-gradient-22" cx="99.72" cy="45.597" r="194.558" xlink:href="#radial-gradient"/></defs><title>Asset 9</title><g class="cls-1"><g id="Layer_2" data-name="Layer 2"><g id="Layer_1-2" data-name="Layer 1"><g id="player_planets"><g id="blue_planet"><circle class="cls-2" cx="135.498" cy="135.498" r="109.871"/><circle class="cls-3" cx="135.498" cy="135.498" r="135.498" transform="translate(-56.125 135.498) rotate(-45)"/><path class="cls-4" d="M84.753,201.05c.371-2.322-2.949-4.285-4.16-1.754-5.3,11.071-.7,21.037,4.742,31.176.692,1.288,1.415,2.587,2.17,3.879a109.173,109.173,0,0,0,17.37,6.661C94.639,229.951,82.564,214.778,84.753,201.05Z"/><path class="cls-5" d="M245.14,128.712q-.2-3.1-.555-6.151c-5.031-2.171-9.943-4.505-12.965-9.313-4.741-7.541.639-11.331,7.717-13.653v0a109.117,109.117,0,0,0-6.168-14.4v0c-11.024,3.474-20.151,12.052-19.862,24.486.339,14.638,16.679,28.771,31.906,31.678v0q.153-2.909.158-5.855c0-2.161-.072-4.3-.2-6.434C245.16,128.946,245.148,128.83,245.14,128.712Z"/><path class="cls-6" d="M56.938,146.171c13.857-10.127,29.96-13.5,45-20.966,3.215-1.6,1.5-6.385-1.752-6.465-19.119-.467-39.539,11.072-53.128,23.844A74.347,74.347,0,0,0,30,166.165h0q.659,2.268,1.411,4.492c.017.052.035.1.052.155q.755,2.224,1.6,4.406A75.619,75.619,0,0,1,56.938,146.171Z"/><path class="cls-7" d="M101.837,107.654c30.478-3.514,64.185-9.062,91.358,8.893,7.5,4.956,15.137-5.889,9.327-12.089C177.039,77.262,134.13,85.642,101.338,90.9c-21.923,3.517-52.965,10.084-73.953,25.106q-.927,5.18-1.363,10.517-.051.623-.095,1.247c-.074,1.054-.142,2.109-.185,3.171,9.49-5.8,18.877-11.326,30.05-14.888C70.811,111.267,86.246,109.452,101.837,107.654Z"/><path class="cls-8" d="M145.992,151.891c-28.313-13.91-62.859-6.093-81,20.123A58.875,58.875,0,0,0,54.739,209.97l.005.006c1.495,1.62,3.046,3.185,4.635,4.712l.574.547A110.684,110.684,0,0,0,76.2,227.975c-5.438-11.807-6.389-25.963-1.255-37.275,8.844-19.49,30.273-30.917,51.255-26.314,17.039,3.738,50.941,30.79,27.171,47.728-7.254,5.168-18.412,5.694-26.293,1.809-3.3-1.627-9.63-5.891-9.81-10.1-.266-6.226,5.34-2.581,6.783,1.071,2.993,7.571,16.147,10.059,17.98,0,2.753-15.106-7.4-28.952-23.506-28.884-15.808.067-27.728,14.142-26.133,29.536,3.476,33.518,48.488,41.64,71.306,22.826C192.91,204.285,175.421,166.348,145.992,151.891Z"/><path class="cls-9" d="M216.623,131.165c-4-2.1-8.537,3.142-4.992,6.47,7.325,6.876,14.744,13.664,20.316,22.1a115.293,115.293,0,0,1,6.957,12.943l.006-.021c.876-2.436,1.654-4.918,2.355-7.432.09-.319.185-.636.272-.957q.484-1.8.906-3.622.085-.364.168-.731c.294-1.3.572-2.606.82-3.923v0C236.336,145.292,225.994,136.076,216.623,131.165Z"/><path class="cls-10" d="M90.067,61.151c24.706,5.88,56.888.035,68.268-25.584a28.073,28.073,0,0,0,2.172-7.047,109.867,109.867,0,0,0-16.8-2.556h0a5.154,5.154,0,0,1,.664,2.611c.074,6.913-14.163,14.471-19.1,16.318-6.412,2.4-39.741,5.489-45.659-3.987q-2.465,1.459-4.848,3.036c-.039.026-.08.05-.12.077q-2.417,1.6-4.74,3.33C72.826,55.519,81.981,59.227,90.067,61.151Z"/><path class="cls-11" d="M195.95,213.35a4.959,4.959,0,0,0-6-3.407c-6.718,1.94-10.746,10.615-14.525,16.087-3.765,5.452-8.728,10.2-12.261,15.821l.01,0c2.181-.567,4.329-1.216,6.454-1.912.432-.142.86-.291,1.29-.437,1.959-.669,3.9-1.381,5.805-2.157.141-.057.283-.109.423-.167a110.521,110.521,0,0,0,12.847-6.289h0C193.976,225.645,197.755,219.118,195.95,213.35Z"/><path class="cls-12" d="M221.127,204.309h0q-.033-1.308-.1-2.595c-.924-17.278-3.757-35.255-12.815-50.278a76.966,76.966,0,0,0-33.02-29.934c-14.209-6.677-27.386-7.091-42.775-4.75-4.115.626-2.918,6.906.951,7.027,23.281.724,48.541,16.122,60.063,36.3,10.634,18.621,11.576,41.762,8.469,62.944,1.686-1.281,3.325-2.618,4.931-3.992.214-.183.426-.368.639-.552q2.261-1.965,4.415-4.044c.1-.094.2-.185.293-.279A110.978,110.978,0,0,0,221.127,204.309Z"/><path class="cls-13" d="M108.159,38.71c5,7.034,15.3,7.755,19.559-.179,2.437-4.54-1.563-9.2-6.366-8.281a7.826,7.826,0,0,1,4.228-4.156h0c-1.642.147-3.27.335-4.89.554-.105.015-.21.026-.315.04q-2.4.332-4.766.768l-.287.052q-2.41.448-4.785,1l-.129.03q-2.431.57-4.82,1.243A13.454,13.454,0,0,0,108.159,38.71Z"/><path class="cls-14" d="M38.377,141.519c5.943-4.3,12.819-7.845,17.775-13.338a2.952,2.952,0,0,0-2.848-4.892c-7.633,1.689-14,6.9-19.982,11.679-2.5,2-5.1,4.052-7.546,6.263.166,3.235.5,6.425.936,9.58C30.7,147.848,34.389,144.405,38.377,141.519Z"/><path class="cls-15" d="M47.237,73.866c-1.057.16-2.06.322-3.05.52A109.583,109.583,0,0,0,35.116,90.84a6.653,6.653,0,0,0,4.771.386,51.174,51.174,0,0,0,12.471-5.212,6.664,6.664,0,0,0,2.719-8.3C53.645,74.456,50.614,73.353,47.237,73.866Z"/><path class="cls-16" d="M169.833,158.436c6.667,9.46,8.11,20.128,12.61,30.391,1.075,2.451,5.552,1.916,5.944-.777,3.891-26.721-27.117-50.205-50.412-53.832a.434.434,0,0,0-.23.836A63.471,63.471,0,0,1,169.833,158.436Z"/><path class="cls-17" d="M41.718,189.5c6.841-14.421,15.9-28.258,27.15-39.6a1.089,1.089,0,0,0-1.314-1.7c-15.627,8.9-25.56,23-27.856,40.757a.824.824,0,0,0,.184.645l.012.021A1.137,1.137,0,0,0,41.718,189.5Z"/><path class="cls-18" d="M160.732,46.085c-13.921,11.148-29.738,19.536-45.079,28.467a2.077,2.077,0,0,0,1.039,3.838c19.97,1.5,39.261-6,55.245-17.783,6.315-4.656,14.827-11.049,21.437-18.494h0q-2.172-1.349-4.411-2.6c-.031-.016-.06-.034-.09-.051q-2.256-1.256-4.576-2.407l-.025-.013q-4.677-2.318-9.6-4.2A123.527,123.527,0,0,1,160.732,46.085Z"/><path class="cls-19" d="M51.876,64.271c3.132,5.228,8.5,9.117,13.8,11.937a38.293,38.293,0,0,0,23.66,4.719c2.273-.231,3.13-3.645.576-4.259A105,105,0,0,1,69.5,69.661c-5.128-2.5-9.511-6.195-14.39-9.028Q53.454,62.415,51.876,64.271Z"/><path class="cls-20" d="M208.529,53.438h0c-8.011,7.83-19.76,11.335-29.07,17.315a3.717,3.717,0,0,0,1.86,6.868c11.666.574,27.51-3.987,38.325-12.747h0q-2.487-2.961-5.182-5.733c-.092-.094-.18-.191-.272-.285Q211.454,56.049,208.529,53.438Z"/><path class="cls-21" d="M215.484,60.214a109.863,109.863,0,0,1-183.3,112.739,109.875,109.875,0,1,0,183.3-112.739Z"/><path class="cls-22" d="M167.075,206.449A109.908,109.908,0,0,1,68.155,48.716,109.866,109.866,0,1,0,234.418,183.36,109.357,109.357,0,0,1,167.075,206.449Z"/><path class="cls-23" d="M126.28,48.672A109.866,109.866,0,0,1,232.228,187.635,109.878,109.878,0,1,0,29.549,106.407,109.847,109.847,0,0,1,126.28,48.672Z"/></g></g></g></g></g></svg>