<svg xmlns="http://www.w3.org/2000/svg" xmlns:xlink="http://www.w3.org/1999/xlink" viewBox="0 0 62.524 38.326"><defs><style>.cls-1{fill:none;clip-rule:evenodd;}.cls-2{isolation:isolate;}.cls-103,.cls-11,.cls-116,.cls-118,.cls-12,.cls-122,.cls-125,.cls-126,.cls-128,.cls-129,.cls-13,.cls-130,.cls-133,.cls-134,.cls-135,.cls-136,.cls-138,.cls-139,.cls-14,.cls-140,.cls-141,.cls-142,.cls-143,.cls-144,.cls-145,.cls-146,.cls-147,.cls-148,.cls-149,.cls-15,.cls-150,.cls-151,.cls-152,.cls-153,.cls-154,.cls-155,.cls-156,.cls-16,.cls-160,.cls-161,.cls-162,.cls-163,.cls-164,.cls-165,.cls-166,.cls-167,.cls-168,.cls-169,.cls-17,.cls-170,.cls-171,.cls-172,.cls-173,.cls-174,.cls-175,.cls-176,.cls-177,.cls-178,.cls-179,.cls-18,.cls-180,.cls-181,.cls-182,.cls-183,.cls-184,.cls-185,.cls-186,.cls-187,.cls-188,.cls-189,.cls-19,.cls-190,.cls-191,.cls-192,.cls-193,.cls-194,.cls-195,.cls-196,.cls-197,.cls-20,.cls-205,.cls-21,.cls-22,.cls-222,.cls-224,.cls-226,.cls-229,.cls-23,.cls-233,.cls-234,.cls-236,.cls-238,.cls-239,.cls-24,.cls-242,.cls-244,.cls-246,.cls-25,.cls-255,.cls-256,.cls-257,.cls-26,.cls-262,.cls-263,.cls-264,.cls-266,.cls-267,.cls-268,.cls-269,.cls-27,.cls-270,.cls-273,.cls-274,.cls-275,.cls-278,.cls-279,.cls-28,.cls-280,.cls-281,.cls-282,.cls-283,.cls-284,.cls-285,.cls-287,.cls-288,.cls-289,.cls-29,.cls-291,.cls-292,.cls-293,.cls-294,.cls-295,.cls-296,.cls-297,.cls-299,.cls-3,.cls-30,.cls-300,.cls-301,.cls-302,.cls-303,.cls-304,.cls-305,.cls-306,.cls-307,.cls-31,.cls-310,.cls-311,.cls-313,.cls-314,.cls-315,.cls-316,.cls-317,.cls-318,.cls-319,.cls-32,.cls-320,.cls-321,.cls-322,.cls-323,.cls-324,.cls-325,.cls-326,.cls-327,.cls-328,.cls-329,.cls-33,.cls-330,.cls-332,.cls-333,.cls-334,.cls-335,.cls-336,.cls-337,.cls-338,.cls-339,.cls-34,.cls-340,.cls-341,.cls-342,.cls-343,.cls-344,.cls-345,.cls-346,.cls-347,.cls-348,.cls-349,.cls-35,.cls-350,.cls-351,.cls-352,.cls-353,.cls-354,.cls-355,.cls-356,.cls-357,.cls-358,.cls-359,.cls-36,.cls-360,.cls-361,.cls-362,.cls-363,.cls-364,.cls-37,.cls-38,.cls-39,.cls-4,.cls-40,.cls-41,.cls-42,.cls-43,.cls-44,.cls-45,.cls-46,.cls-47,.cls-48,.cls-49,.cls-5,.cls-50,.cls-51,.cls-52,.cls-53,.cls-54,.cls-55,.cls-56,.cls-57,.cls-58,.cls-59,.cls-6,.cls-60,.cls-61,.cls-62,.cls-63,.cls-64,.cls-65,.cls-66,.cls-67,.cls-68,.cls-69,.cls-7,.cls-70,.cls-71,.cls-72,.cls-73,.cls-74,.cls-75,.cls-76,.cls-77,.cls-78,.cls-79,.cls-8,.cls-80,.cls-81,.cls-82,.cls-83,.cls-84,.cls-85,.cls-86,.cls-87,.cls-88,.cls-89,.cls-90,.cls-91,.cls-92,.cls-93,.cls-94,.cls-95,.cls-96,.cls-97{fill-rule:evenodd;}.cls-149,.cls-152,.cls-156,.cls-157,.cls-3,.cls-358,.cls-361,.cls-363,.cls-364,.cls-4{mix-blend-mode:screen;}.cls-3{fill:url(#Áåçûìÿííûé_ãðàäèåíò_15);}.cls-4{fill:url(#Áåçûìÿííûé_ãðàäèåíò_15-2);}.cls-5{fill:url(#Áåçûìÿííûé_ãðàäèåíò_32);}.cls-6{fill:url(#Áåçûìÿííûé_ãðàäèåíò_32-2);}.cls-153,.cls-154,.cls-362,.cls-7,.cls-8{mix-blend-mode:multiply;}.cls-7{fill:url(#Áåçûìÿííûé_ãðàäèåíò_210);}.cls-8{fill:url(#Áåçûìÿííûé_ãðàäèåíò_210-2);}.cls-9{clip-path:url(#clip-path);}.cls-10,.cls-11{fill:#7a82ed;}.cls-12{fill:#7a81ed;}.cls-13{fill:#7a80ed;}.cls-14{fill:#7a7fed;}.cls-15{fill:#7a7eed;}.cls-16{fill:#7a7ded;}.cls-17{fill:#7a7ced;}.cls-18{fill:#7a7aed;}.cls-19{fill:#7a79ed;}.cls-20{fill:#7a78ed;}.cls-21{fill:#7a77ed;}.cls-22{fill:#7a76ed;}.cls-23{fill:#7a75ed;}.cls-24{fill:#7b76ec;}.cls-25{fill:#7d77ec;}.cls-26{fill:#7e78eb;}.cls-27{fill:#8079eb;}.cls-28{fill:#817aea;}.cls-29{fill:#837bea;}.cls-30{fill:#847ce9;}.cls-31{fill:#867ee9;}.cls-32{fill:#877fe8;}.cls-33{fill:#8980e8;}.cls-34{fill:#8a81e7;}.cls-35{fill:#8c82e7;}.cls-36{fill:#8d83e6;}.cls-37{fill:#8e84e6;}.cls-38{fill:#9085e5;}.cls-39{fill:#9186e5;}.cls-40{fill:#9387e4;}.cls-41{fill:#9488e4;}.cls-42{fill:#9589e3;}.cls-43{fill:#978ae3;}.cls-44{fill:#988be2;}.cls-45{fill:#9a8ce2;}.cls-46{fill:#9b8de1;}.cls-47{fill:#9c8ee1;}.cls-48{fill:#9e8fe0;}.cls-49{fill:#9f90e0;}.cls-50{fill:#a091df;}.cls-51{fill:#a292df;}.cls-52{fill:#a393de;}.cls-53{fill:#a494de;}.cls-54{fill:#a695dd;}.cls-55{fill:#a795dd;}.cls-56{fill:#a896dc;}.cls-57{fill:#aa97dc;}.cls-58{fill:#ab98db;}.cls-59{fill:#ac99db;}.cls-60{fill:#ad9ada;}.cls-61{fill:#af9bda;}.cls-62{fill:#b09cda;}.cls-63{fill:#b19dd9;}.cls-64{fill:#b39ed9;}.cls-65{fill:#b49fd8;}.cls-66{fill:#b5a0d8;}.cls-67{fill:#b6a0d7;}.cls-68{fill:#b7a1d7;}.cls-69{fill:#b9a2d6;}.cls-70{fill:#baa3d6;}.cls-71{fill:#bba4d6;}.cls-72{fill:#bca5d5;}.cls-73{fill:#bda6d5;}.cls-74{fill:#bfa7d4;}.cls-75{fill:#c0a7d4;}.cls-76{fill:#c1a8d3;}.cls-77{fill:#c2a9d3;}.cls-78{fill:#c3aad3;}.cls-79{fill:#c4abd2;}.cls-80{fill:#c6acd2;}.cls-81{fill:#c7acd1;}.cls-82{fill:#c8add1;}.cls-83{fill:#c9aed0;}.cls-84{fill:#caafd0;}.cls-85{fill:#cbb0d0;}.cls-86{fill:#ccb0cf;}.cls-87{fill:#cdb1cf;}.cls-88{fill:#ceb2cf;}.cls-89{fill:#d0b3ce;}.cls-90{fill:#d1b4ce;}.cls-91{fill:#d2b4cd;}.cls-92{fill:#d3b5cd;}.cls-93{fill:#d4b6cd;}.cls-94{fill:#d5b7cc;}.cls-95{fill:#d6b7cc;}.cls-96{fill:#d7b8cb;}.cls-97{fill:#d8b9cb;}.cls-98{fill:#d9b9cb;}.cls-99{fill:#dabaca;}.cls-100{fill:#dbbbca;}.cls-101{fill:#dcbcca;}.cls-102{fill:#ddbcc9;}.cls-103{fill:#debdc9;}.cls-104{fill:#dfbec9;}.cls-105{fill:#e0bec8;}.cls-106{fill:#e1bfc8;}.cls-107{fill:#e1c0c8;}.cls-108{fill:#e2c0c7;}.cls-109{fill:#e3c1c7;}.cls-110{fill:#e4c2c7;}.cls-111{fill:#e5c2c6;}.cls-112{fill:#e6c3c6;}.cls-113{fill:#e7c4c6;}.cls-114{fill:#e8c4c5;}.cls-115{fill:#e8c5c5;}.cls-116{fill:#e9c5c5;}.cls-117{fill:#eac6c5;}.cls-118{fill:#ebc7c4;}.cls-119{fill:#ecc7c4;}.cls-120{fill:#edc8c4;}.cls-121{fill:#edc8c3;}.cls-122{fill:#eec9c3;}.cls-123{fill:#efc9c3;}.cls-124{fill:#f0cac3;}.cls-125{fill:#f0cac2;}.cls-126{fill:#f1cbc2;}.cls-127{fill:#f2cbc2;}.cls-128{fill:#f2ccc2;}.cls-129{fill:#f3ccc1;}.cls-130{fill:#f4cdc1;}.cls-131{fill:#f5cec1;}.cls-132{fill:#f6cec0;}.cls-133{fill:#f6cfc0;}.cls-134{fill:#f7cfc0;}.cls-135{fill:#f8d0c0;}.cls-136{fill:#f8d0bf;}.cls-137{fill:#f9d0bf;}.cls-138{fill:#f9d1bf;}.cls-139{fill:#fad1bf;}.cls-140{fill:#fad2bf;}.cls-141{fill:#fbd2bf;}.cls-142{fill:#fbd2be;}.cls-143{fill:#fcd3be;}.cls-144{fill:#fdd3be;}.cls-145{fill:#fdd4be;}.cls-146{fill:#fed4bd;}.cls-147{fill:#ffd5bd;}.cls-148{fill:url(#Áåçûìÿííûé_ãðàäèåíò_30);}.cls-149,.cls-152,.cls-156,.cls-157,.cls-358,.cls-361,.cls-362,.cls-364{opacity:0.5;}.cls-149{fill:url(#Áåçûìÿííûé_ãðàäèåíò_494);}.cls-150{fill:url(#Áåçûìÿííûé_ãðàäèåíò_472);}.cls-151{fill:url(#Áåçûìÿííûé_ãðàäèåíò_495);}.cls-152{fill:url(#Áåçûìÿííûé_ãðàäèåíò_494-2);}.cls-153,.cls-154{opacity:0.71;}.cls-153{fill:url(#Áåçûìÿííûé_ãðàäèåíò_501);}.cls-154{fill:url(#Áåçûìÿííûé_ãðàäèåíò_501-2);}.cls-155{fill:url(#Áåçûìÿííûé_ãðàäèåíò_501-3);}.cls-156{fill:url(#Áåçûìÿííûé_ãðàäèåíò_494-3);}.cls-158{clip-path:url(#clip-path-2);}.cls-159,.cls-160{fill:#623964;}.cls-161{fill:#633a65;}.cls-162{fill:#643b66;}.cls-163{fill:#643c66;}.cls-164{fill:#653d67;}.cls-165{fill:#663e68;}.cls-166{fill:#673f69;}.cls-167{fill:#68406a;}.cls-168{fill:#68416a;}.cls-169{fill:#69426b;}.cls-170{fill:#6a436c;}.cls-171{fill:#6b446d;}.cls-172{fill:#6c456d;}.cls-173{fill:#6c466e;}.cls-174{fill:#6d476f;}.cls-175{fill:#6e4870;}.cls-176{fill:#6f4971;}.cls-177{fill:#704a71;}.cls-178{fill:#704b72;}.cls-179{fill:#714c73;}.cls-180{fill:#724d74;}.cls-181{fill:#734e75;}.cls-182{fill:#744f75;}.cls-183{fill:#745076;}.cls-184{fill:#755177;}.cls-185{fill:#765278;}.cls-186{fill:#775378;}.cls-187{fill:#785479;}.cls-188{fill:#78557a;}.cls-189{fill:#79567b;}.cls-190{fill:#7a577c;}.cls-191{fill:#7b587c;}.cls-192{fill:#7c597d;}.cls-193{fill:#7c5a7e;}.cls-194{fill:#7d5b7f;}.cls-195{fill:#7e5c80;}.cls-196{fill:#7f5d80;}.cls-197{fill:#7f5e81;}.cls-198{fill:#805f82;}.cls-199{fill:#816083;}.cls-200{fill:#826183;}.cls-201{fill:#836284;}.cls-202{fill:#836385;}.cls-203{fill:#846486;}.cls-204{fill:#856587;}.cls-205{fill:#866687;}.cls-206{fill:#876788;}.cls-207{fill:#876889;}.cls-208{fill:#88698a;}.cls-209{fill:#896a8b;}.cls-210{fill:#8a6b8b;}.cls-211{fill:#8b6c8c;}.cls-212{fill:#8b6d8d;}.cls-213{fill:#8c6e8e;}.cls-214{fill:#8d6f8e;}.cls-215{fill:#8e708f;}.cls-216{fill:#8f7190;}.cls-217{fill:#8f7291;}.cls-218{fill:#907392;}.cls-219{fill:#917492;}.cls-220{fill:#927593;}.cls-221{fill:#937694;}.cls-222{fill:#937795;}.cls-223{fill:#947896;}.cls-224{fill:#957996;}.cls-225{fill:#967a97;}.cls-226{fill:#977b98;}.cls-227{fill:#977c99;}.cls-228{fill:#987d9a;}.cls-229{fill:#997e9a;}.cls-230{fill:#9a7f9b;}.cls-231{fill:#9b809c;}.cls-232{fill:#9b819d;}.cls-233{fill:#9c829d;}.cls-234{fill:#9d839e;}.cls-235{fill:#9e849f;}.cls-236{fill:#9f85a0;}.cls-237{fill:#9f86a1;}.cls-238{fill:#a087a1;}.cls-239{fill:#a188a2;}.cls-240{fill:#a289a3;}.cls-241{fill:#a38aa4;}.cls-242{fill:#a38ba5;}.cls-243{fill:#a48ca5;}.cls-244{fill:#a58da6;}.cls-245{fill:#a68ea7;}.cls-246{fill:#a78fa8;}.cls-247{fill:#a790a8;}.cls-248{fill:#a891a9;}.cls-249{fill:#a992aa;}.cls-250{fill:#aa93ab;}.cls-251{fill:#ab94ac;}.cls-252{fill:#ab95ac;}.cls-253{fill:#ac96ad;}.cls-254{fill:#ad97ae;}.cls-255{fill:#ae98af;}.cls-256{fill:#af99b0;}.cls-257{fill:#af9ab0;}.cls-258{fill:#b09bb1;}.cls-259{fill:#b19db2;}.cls-260{fill:#b29eb3;}.cls-261{fill:#b29fb3;}.cls-262{fill:#b3a0b4;}.cls-263{fill:#b4a1b5;}.cls-264{fill:#b5a2b6;}.cls-265{fill:#b6a3b7;}.cls-266{fill:#b6a4b7;}.cls-267{fill:#b7a5b8;}.cls-268{fill:#b8a6b9;}.cls-269{fill:#b9a7ba;}.cls-270{fill:#baa8bb;}.cls-271{fill:#baa9bb;}.cls-272{fill:#bbaabc;}.cls-273{fill:#bcabbd;}.cls-274{fill:#bdacbe;}.cls-275{fill:#beadbe;}.cls-276{fill:#beaebf;}.cls-277{fill:#bfafc0;}.cls-278{fill:#c0b0c1;}.cls-279{fill:#c1b1c2;}.cls-280{fill:#c2b2c2;}.cls-281{fill:#c2b3c3;}.cls-282{fill:#c3b4c4;}.cls-283{fill:#c4b5c5;}.cls-284{fill:#c5b6c6;}.cls-285{fill:#c6b7c6;}.cls-286{fill:#c6b8c7;}.cls-287{fill:#c7b9c8;}.cls-288{fill:#c8bac9;}.cls-289{fill:#c9bbc9;}.cls-290{fill:#cabcca;}.cls-291{fill:#cabdcb;}.cls-292{fill:#cbbecc;}.cls-293{fill:#ccbfcd;}.cls-294{fill:#cdc0cd;}.cls-295{fill:#cec1ce;}.cls-296{fill:#cec2cf;}.cls-297{fill:#cfc3d0;}.cls-298{fill:#d0c4d1;}.cls-299{fill:#d1c5d1;}.cls-300{fill:#d2c6d2;}.cls-301{fill:#d2c7d3;}.cls-302{fill:#d3c8d4;}.cls-303{fill:#d4c9d5;}.cls-304{fill:#d5cad5;}.cls-305{fill:#d6cbd6;}.cls-306{fill:#d6ccd7;}.cls-307{fill:#d7cdd8;}.cls-308{fill:#d8ced8;}.cls-309{fill:#d9cfd9;}.cls-310{fill:#dad0da;}.cls-311{fill:#dad1db;}.cls-312{fill:#dbd2dc;}.cls-313{fill:#dcd3dc;}.cls-314{fill:#ddd4dd;}.cls-315{fill:#ded5de;}.cls-316{fill:#ded6df;}.cls-317{fill:#dfd7e0;}.cls-318{fill:#e0d8e0;}.cls-319{fill:#e1d9e1;}.cls-320{fill:#e2dae2;}.cls-321{fill:#e2dbe3;}.cls-322{fill:#e3dce3;}.cls-323{fill:#e4dde4;}.cls-324{fill:#e5dee5;}.cls-325{fill:#e5dfe6;}.cls-326{fill:#e6e0e7;}.cls-327{fill:#e7e1e7;}.cls-328{fill:#e8e2e8;}.cls-329{fill:#e9e3e9;}.cls-330{fill:#e9e4ea;}.cls-331{fill:#eae5eb;}.cls-332{fill:#ebe6eb;}.cls-333{fill:#ece7ec;}.cls-334{fill:#ede8ed;}.cls-335{fill:#ede9ee;}.cls-336{fill:#eeeaee;}.cls-337{fill:#efebef;}.cls-338{fill:#f0ecf0;}.cls-339{fill:#f1edf1;}.cls-340{fill:#f1eef2;}.cls-341{fill:#f2eff2;}.cls-342{fill:#f3f0f3;}.cls-343{fill:#f4f1f4;}.cls-344{fill:#f5f2f5;}.cls-345{fill:#f5f3f6;}.cls-346{fill:#f6f4f6;}.cls-347{fill:#f7f5f7;}.cls-348{fill:#f8f6f8;}.cls-349{fill:#f9f7f9;}.cls-350{fill:#f9f8f9;}.cls-351{fill:#faf9fa;}.cls-352{fill:#fbfafb;}.cls-353{fill:#fcfbfc;}.cls-354{fill:#fdfcfd;}.cls-355{fill:#fdfdfd;}.cls-356{fill:#fefefe;}.cls-357{fill:#fff;}.cls-358{fill:url(#Áåçûìÿííûé_ãðàäèåíò_494-4);}.cls-359{fill:url(#Áåçûìÿííûé_ãðàäèåíò_29);}.cls-360{fill:url(#Áåçûìÿííûé_ãðàäèåíò_472-2);}.cls-361{fill:url(#Áåçûìÿííûé_ãðàäèåíò_494-5);}.cls-362{fill:url(#Áåçûìÿííûé_ãðàäèåíò_210-3);}.cls-363{fill:url(#Áåçûìÿííûé_ãðàäèåíò_2);}.cls-364{fill:url(#Áåçûìÿííûé_ãðàäèåíò_13);}</style><linearGradient id="Áåçûìÿííûé_ãðàäèåíò_15" x1="13.634" y1="37.305" x2="13.634" y2="29.006" gradientUnits="userSpaceOnUse"><stop offset="0"/><stop offset="0.085" stop-color="#000409"/><stop offset="0.223" stop-color="#011121"/><stop offset="0.398" stop-color="#022449"/><stop offset="0.601" stop-color="#034080"/><stop offset="0.827" stop-color="#0562c5"/><stop offset="1" stop-color="#067fff"/></linearGradient><linearGradient id="Áåçûìÿííûé_ãðàäèåíò_15-2" x1="-150.503" y1="-288.002" x2="-147.786" y2="-295.111" gradientTransform="translate(379.32 15.592) rotate(-65.921)" xlink:href="#Áåçûìÿííûé_ãðàäèåíò_15"/><radialGradient id="Áåçûìÿííûé_ãðàäèåíò_32" cx="44.976" cy="9.387" r="6.447" gradientTransform="translate(0 18.042) scale(1 1.135)" gradientUnits="userSpaceOnUse"><stop offset="0" stop-color="#ffb86e"/><stop offset="0.186" stop-color="#ffb867"/><stop offset="0.456" stop-color="#ffb854"/><stop offset="0.774" stop-color="#ffb835"/><stop offset="1" stop-color="#ffb81a"/></radialGradient><radialGradient id="Áåçûìÿííûé_ãðàäèåíò_32-2" cx="117.335" cy="8.32" r="6.447" gradientTransform="matrix(-1, 0, 0, 1.135, 129.971, 18.042)" xlink:href="#Áåçûìÿííûé_ãðàäèåíò_32"/><linearGradient id="Áåçûìÿííûé_ãðàäèåíò_210" x1="44.328" y1="30.659" x2="52.728" y2="30.659" gradientUnits="userSpaceOnUse"><stop offset="0" stop-color="#b3a6db"/><stop offset="0.413" stop-color="#a685be"/><stop offset="0.766" stop-color="#9d71ab"/><stop offset="1" stop-color="#9a69a4"/></linearGradient><linearGradient id="Áåçûìÿííûé_ãðàäèåíò_210-2" x1="11.506" y1="30.154" x2="19.96" y2="30.154" xlink:href="#Áåçûìÿííûé_ãðàäèåíò_210"/><clipPath id="clip-path"><path class="cls-1" d="M2.647,14.97S8.886,33.7,31.721,33.839c23.786.146,30.773-18.247,30.773-18.247Z"/></clipPath><radialGradient id="Áåçûìÿííûé_ãðàäèåíò_30" cx="14.037" cy="2.092" r="36.077" gradientTransform="translate(0 5.013) scale(1 2.187)" gradientUnits="userSpaceOnUse"><stop offset="0.006" stop-color="#ffff6e"/><stop offset="0.148" stop-color="#fff96e"/><stop offset="0.337" stop-color="#ffe86e"/><stop offset="0.551" stop-color="#ffcd6e"/><stop offset="0.684" stop-color="#ffb86e"/><stop offset="0.743" stop-color="#ffb867"/><stop offset="0.828" stop-color="#ffb854"/><stop offset="0.929" stop-color="#ffb835"/><stop offset="1" stop-color="#ffb81a"/></radialGradient><radialGradient id="Áåçûìÿííûé_ãðàäèåíò_494" cx="30.653" cy="8945.262" r="28.39" gradientTransform="translate(0 -9576.779) scale(1 1.073)" gradientUnits="userSpaceOnUse"><stop offset="0" stop-color="#fff"/><stop offset="1" stop-color="#623964"/></radialGradient><radialGradient id="Áåçûìÿííûé_ãðàäèåíò_472" cx="30.878" cy="8947.905" r="6.256" gradientTransform="translate(0 -9576.779) scale(1 1.073)" gradientUnits="userSpaceOnUse"><stop offset="0.006" stop-color="#60dbff"/><stop offset="0.182" stop-color="#56d5ff"/><stop offset="0.479" stop-color="#3cc4ff"/><stop offset="0.857" stop-color="#12a9ff"/><stop offset="1" stop-color="#009dff"/></radialGradient><radialGradient id="Áåçûìÿííûé_ãðàäèåíò_495" cx="30.672" cy="8948.189" r="5.646" gradientTransform="translate(0 -9576.779) scale(1 1.073)" gradientUnits="userSpaceOnUse"><stop offset="0.006" stop-color="#4db6ff"/><stop offset="0.207" stop-color="#4db0ff"/><stop offset="0.475" stop-color="#4f9fff"/><stop offset="0.778" stop-color="#5084ff"/><stop offset="1" stop-color="#526bff"/></radialGradient><radialGradient id="Áåçûìÿííûé_ãðàäèåíò_494-2" cx="17.155" cy="8946.092" r="12.515" xlink:href="#Áåçûìÿííûé_ãðàäèåíò_494"/><linearGradient id="Áåçûìÿííûé_ãðàäèåíò_501" x1="14.246" y1="28.789" x2="24.706" y2="28.789" gradientUnits="userSpaceOnUse"><stop offset="0" stop-color="#9a69a4"/><stop offset="0.109" stop-color="#a075af"/><stop offset="0.712" stop-color="#c1b1e9"/><stop offset="1" stop-color="#cec9ff"/></linearGradient><linearGradient id="Áåçûìÿííûé_ãðàäèåíò_501-2" x1="249.291" y1="28.789" x2="259.751" y2="28.789" gradientTransform="matrix(-1, 0, 0, 1, 299.268, 0)" xlink:href="#Áåçûìÿííûé_ãðàäèåíò_501"/><linearGradient id="Áåçûìÿííûé_ãðàäèåíò_501-3" x1="40.897" y1="28.432" x2="49.977" y2="28.432" xlink:href="#Áåçûìÿííûé_ãðàäèåíò_501"/><radialGradient id="Áåçûìÿííûé_ãðàäèåíò_494-3" cx="19.476" cy="11.9" r="4.435" gradientTransform="translate(0 13.783) scale(1 1.261)" xlink:href="#Áåçûìÿííûé_ãðàäèåíò_494"/><clipPath id="clip-path-2"><path class="cls-1" d="M62.493,15.813c-.041,1.136-.818,2.526-2.439,3.929.078-.205,1.289-3.69-4.065-8.407A35.309,35.309,0,0,0,44.042,4.6a38.191,38.191,0,0,1,12.646,5.19A.019.019,0,0,1,56.7,9.8C60.63,12.389,62.524,14.964,62.493,15.813Z"/></clipPath><radialGradient id="Áåçûìÿííûé_ãðàäèåíò_494-4" cx="22.887" cy="8937.509" r="10.894" xlink:href="#Áåçûìÿííûé_ãðàäèåíò_494"/><radialGradient id="Áåçûìÿííûé_ãðàäèåíò_29" cx="31.296" cy="0.814" r="19.816" gradientTransform="translate(-14.878 5.013) scale(1.139 2.187)" gradientUnits="userSpaceOnUse"><stop offset="0" stop-color="#ffb86e"/><stop offset="0.155" stop-color="#ffb867"/><stop offset="0.38" stop-color="#ffb854"/><stop offset="0.648" stop-color="#ffb834"/><stop offset="0.945" stop-color="#ffb809"/><stop offset="1" stop-color="#ffb800"/></radialGradient><radialGradient id="Áåçûìÿííûé_ãðàäèåíò_472-2" cx="30.932" cy="8935.548" r="15.558" xlink:href="#Áåçûìÿííûé_ãðàäèåíò_472"/><radialGradient id="Áåçûìÿííûé_ãðàäèåíò_494-5" cx="11.753" cy="2.141" r="6.661" gradientTransform="translate(0 5.013) scale(1 2.187)" xlink:href="#Áåçûìÿííûé_ãðàäèåíò_494"/><linearGradient id="Áåçûìÿííûé_ãðàäèåíò_210-3" x1="15.59" y1="11.555" x2="48.375" y2="11.555" xlink:href="#Áåçûìÿííûé_ãðàäèåíò_210"/><radialGradient id="Áåçûìÿííûé_ãðàäèåíò_2" cx="520.758" cy="-284.138" r="3.45" gradientTransform="matrix(0.213, 1.746, -1.685, 0.981, -564.634, -622.898)" gradientUnits="userSpaceOnUse"><stop offset="0.006" stop-color="#98fffc"/><stop offset="0.066" stop-color="#8be9e6"/><stop offset="0.267" stop-color="#61a3a1"/><stop offset="0.457" stop-color="#3f6968"/><stop offset="0.631" stop-color="#243c3b"/><stop offset="0.785" stop-color="#101b1b"/><stop offset="0.913" stop-color="#040707"/><stop offset="1"/></radialGradient><linearGradient id="Áåçûìÿííûé_ãðàäèåíò_13" x1="38.356" y1="15.151" x2="38.356" gradientUnits="userSpaceOnUse"><stop offset="0" stop-color="#623964"/><stop offset="1" stop-color="#fff"/></linearGradient></defs><title>Asset 13</title><g class="cls-2"><g id="Layer_2" data-name="Layer 2"><g id="Layer_1-2" data-name="Layer 1"><path class="cls-3" d="M12.243,29.006S9.534,36.6,11.218,37.245c1.987.765,5.385-6.083,5.385-6.083Z"/><path class="cls-4" d="M47.9,31.929s5,5.905,6.208,4.424c1.427-1.746-2.7-8.062-2.7-8.062Z"/><path class="cls-5" d="M52.305,27.192l.645,2.73s0,3.11-4.575,2.914L43.1,31.067Z"/><path class="cls-6" d="M11.833,27.192l-.644,2.73s0,3.11,4.574,2.914l5.273-1.769Z"/><path class="cls-7" d="M52.728,28.983s-3.81,1.112-4.353,3.853l-4.047-1.358,8.282-3Z"/><path class="cls-8" d="M11.506,28.578s3.95,1.063,6.138,3.627l2.316-.777L11.576,28.1Z"/><g class="cls-9"><rect class="cls-10" x="2.647" y="14.97" width="59.847" height="19.015"/><path class="cls-11" d="M49.746,31.724a26.614,26.614,0,0,1-.8,5.406v-2.6H2.31v-20.1H42.618V11.6A29,29,0,0,1,49.746,31.724Z"/><path class="cls-12" d="M49.271,31.668a26.071,26.071,0,0,1-.783,5.313V34.53H2.31v-20.1H42.268V11.9A28.5,28.5,0,0,1,49.271,31.668Z"/><path class="cls-13" d="M48.8,31.613a25.667,25.667,0,0,1-.769,5.219v-2.3H2.31v-20.1H41.918V12.193A27.994,27.994,0,0,1,48.8,31.613Z"/><path class="cls-14" d="M48.322,31.558a25.1,25.1,0,0,1-.755,5.124V34.53H2.31v-20.1H41.568V12.488A27.49,27.49,0,0,1,48.322,31.558Z"/><path class="cls-15" d="M47.848,31.5a24.7,24.7,0,0,1-.741,5.03v-2H2.31v-20.1H41.217V12.783A26.982,26.982,0,0,1,47.848,31.5Z"/><path class="cls-16" d="M47.374,31.448a24.229,24.229,0,0,1-.728,4.936V34.53H2.31V16.253H.011a22.565,22.565,0,0,1,2.48-3.943v2.116H40.867V13.079A26.477,26.477,0,0,1,47.374,31.448Z"/><path class="cls-17" d="M46.9,31.393a23.755,23.755,0,0,1-.713,4.842v-1.7H2.31V16.488H.44A22.117,22.117,0,0,1,2.873,12.62v1.806H40.517V13.374A25.977,25.977,0,0,1,46.9,31.393Z"/><path class="cls-18" d="M46.425,31.338a23.272,23.272,0,0,1-.7,4.748V34.53H2.31V16.723H.869A21.647,21.647,0,0,1,3.255,12.93v1.5H40.166v-.757A25.472,25.472,0,0,1,46.425,31.338Z"/><path class="cls-19" d="M45.95,31.283a22.779,22.779,0,0,1-.685,4.653V34.53H2.31V16.957H1.3A21.26,21.26,0,0,1,3.636,13.24v1.186h36.18v-.461A24.957,24.957,0,0,1,45.95,31.283Z"/><path class="cls-20" d="M45.476,31.228a22.317,22.317,0,0,1-.672,4.559V34.53H2.31V17.192H1.727A20.812,20.812,0,0,1,4.018,13.55v.876H39.466V14.26A24.46,24.46,0,0,1,45.476,31.228Z"/><path class="cls-21" d="M45,31.173a21.983,21.983,0,0,1-.658,4.465V34.53H2.31V25.948H0A20.72,20.72,0,0,1,7.3,10.861v3.565H35.907v-3a25.192,25.192,0,0,1,3.208,3.124A23.953,23.953,0,0,1,45,31.173Z"/><path class="cls-22" d="M44.527,31.118a21.43,21.43,0,0,1-.644,4.371V34.53H2.31V26H.474A20.29,20.29,0,0,1,7.615,11.234v3.192H35.624V11.792a24.67,24.67,0,0,1,3.141,3.058A23.448,23.448,0,0,1,44.527,31.118Z"/><path class="cls-23" d="M44.053,31.063a21.006,21.006,0,0,1-.63,4.276V34.53H2.31V26.058H.949A19.847,19.847,0,0,1,7.936,11.607v2.819H35.342V12.153a24.146,24.146,0,0,1,3.073,2.993A22.946,22.946,0,0,1,44.053,31.063Z"/><path class="cls-23" d="M43.578,31.008a20.464,20.464,0,0,1-.616,4.182v-.66H4.5v3.743A22.91,22.91,0,0,1,2.716,34.48a21.7,21.7,0,0,1-1.293-8.367A19.416,19.416,0,0,1,8.256,11.98v2.446h26.8V12.514a23.623,23.623,0,0,1,3.006,2.927A22.437,22.437,0,0,1,43.578,31.008Z"/><path class="cls-24" d="M43.42,30.989a20.368,20.368,0,0,1-.612,4.151v-.61H4.637V38.2a22.654,22.654,0,0,1-1.772-3.765,21.532,21.532,0,0,1-1.283-8.3A19.264,19.264,0,0,1,8.363,12.105v2.321h26.6V12.635a23.465,23.465,0,0,1,2.983,2.9A22.267,22.267,0,0,1,43.42,30.989Z"/><path class="cls-25" d="M43.261,30.971a20.155,20.155,0,0,1-.607,4.12V34.53H4.772v3.6a22.539,22.539,0,0,1-1.758-3.736A21.371,21.371,0,0,1,1.74,26.15,19.121,19.121,0,0,1,8.471,12.229v2.2h26.4v-1.67a23.176,23.176,0,0,1,2.961,2.882A22.1,22.1,0,0,1,43.261,30.971Z"/><path class="cls-26" d="M43.1,30.952a20.14,20.14,0,0,1-.6,4.089V34.53H4.907v3.524a22.279,22.279,0,0,1-1.744-3.708A21.2,21.2,0,0,1,1.9,26.168,18.97,18.97,0,0,1,8.578,12.354v2.072h26.2v-1.55a23.019,23.019,0,0,1,2.937,2.861A21.926,21.926,0,0,1,43.1,30.952Z"/><path class="cls-27" d="M42.944,30.934a19.906,19.906,0,0,1-.6,4.057V34.53H5.043v3.451A22.254,22.254,0,0,1,3.311,34.3a21.057,21.057,0,0,1-1.254-8.115A18.826,18.826,0,0,1,8.685,12.479v1.947H31.292v-3.71a22.7,22.7,0,0,1,6.3,5.12A21.759,21.759,0,0,1,42.944,30.934Z"/><path class="cls-28" d="M42.786,30.916a19.731,19.731,0,0,1-.593,4.025V34.53H5.178v3.378A22.074,22.074,0,0,1,3.46,34.257a20.888,20.888,0,0,1-1.244-8.052A18.68,18.68,0,0,1,8.792,12.6v1.823H31.224V10.854a22.555,22.555,0,0,1,6.255,5.08A21.592,21.592,0,0,1,42.786,30.916Z"/><path class="cls-29" d="M42.627,30.9a19.567,19.567,0,0,1-.588,3.994V34.53H5.313v3.305a21.841,21.841,0,0,1-1.7-3.622,20.725,20.725,0,0,1-1.235-7.989A18.539,18.539,0,0,1,8.9,12.728v1.7H31.156V10.992a22.372,22.372,0,0,1,6.206,5.041A21.421,21.421,0,0,1,42.627,30.9Z"/><path class="cls-30" d="M42.469,30.879a19.413,19.413,0,0,1-.584,3.962V34.53H5.449v3.232a21.623,21.623,0,0,1-1.691-3.594,20.536,20.536,0,0,1-1.225-7.926A18.392,18.392,0,0,1,9.006,12.853v1.573H31.088V11.131a22.179,22.179,0,0,1,6.157,5A21.257,21.257,0,0,1,42.469,30.879Z"/><path class="cls-31" d="M42.311,30.86a19.318,19.318,0,0,1-.58,3.931V34.53H5.584v3.159a21.556,21.556,0,0,1-1.678-3.565A20.412,20.412,0,0,1,2.691,26.26,18.249,18.249,0,0,1,9.113,12.977v1.449H31.02V11.269a22.024,22.024,0,0,1,6.108,4.961A21.086,21.086,0,0,1,42.311,30.86Z"/><path class="cls-32" d="M42.152,30.842a18.621,18.621,0,0,1-1.883,7.442V34.53H5.719v3.086a21.333,21.333,0,0,1-1.664-3.537,20.244,20.244,0,0,1-1.206-7.8A18.1,18.1,0,0,1,9.22,13.1v1.324H30.951V11.407a21.846,21.846,0,0,1,6.06,4.922A20.918,20.918,0,0,1,42.152,30.842Z"/><path class="cls-33" d="M41.994,30.824a18.494,18.494,0,0,1-1.868,7.382V34.53H5.855v3.013A21.185,21.185,0,0,1,4.2,34.035a20.08,20.08,0,0,1-1.2-7.738,17.954,17.954,0,0,1,6.319-13.07v1.2H30.883v-2.88a21.638,21.638,0,0,1,6.011,4.881A20.752,20.752,0,0,1,41.994,30.824Z"/><path class="cls-34" d="M41.835,30.805a18.337,18.337,0,0,1-1.852,7.322v-3.6H5.99v2.94a21.005,21.005,0,0,1-1.637-3.48,19.912,19.912,0,0,1-1.187-7.674A17.814,17.814,0,0,1,9.434,13.351v1.075H30.815V11.684a21.484,21.484,0,0,1,5.962,4.842A20.584,20.584,0,0,1,41.835,30.805Z"/><path class="cls-35" d="M41.677,30.787a18.191,18.191,0,0,1-1.838,7.262V34.53H6.125V37.4A20.9,20.9,0,0,1,4.5,33.946a19.769,19.769,0,0,1-1.176-7.612A17.661,17.661,0,0,1,9.542,13.476v.95H30.747v-2.6a21.315,21.315,0,0,1,5.913,4.8A20.413,20.413,0,0,1,41.677,30.787Z"/><path class="cls-36" d="M41.518,30.768a18.021,18.021,0,0,1-1.822,7.2V34.53H6.261v2.794A20.64,20.64,0,0,1,4.65,33.9a19.6,19.6,0,0,1-1.167-7.549A17.516,17.516,0,0,1,9.649,13.6v.825h21.03V11.961a21.14,21.14,0,0,1,5.864,4.762A20.244,20.244,0,0,1,41.518,30.768Z"/><path class="cls-37" d="M41.36,30.75a17.9,17.9,0,0,1-1.807,7.142V34.53H6.4v2.721a20.525,20.525,0,0,1-1.6-3.394,19.436,19.436,0,0,1-1.157-7.486A17.37,17.37,0,0,1,9.756,13.725v.7H30.611V12.1a20.971,20.971,0,0,1,5.815,4.723A20.078,20.078,0,0,1,41.36,30.75Z"/><path class="cls-38" d="M41.2,30.732a17.709,17.709,0,0,1-1.792,7.081V34.53H6.531v2.647a20.217,20.217,0,0,1-1.583-3.365A19.248,19.248,0,0,1,3.8,26.389,17.226,17.226,0,0,1,9.863,13.85v.576H30.542V12.237a20.774,20.774,0,0,1,5.767,4.684A19.9,19.9,0,0,1,41.2,30.732Z"/><path class="cls-39" d="M41.043,30.713a17.579,17.579,0,0,1-1.777,7.022v-3.2H6.667V37.1A20.107,20.107,0,0,1,5.1,33.768a19.084,19.084,0,0,1-1.138-7.36A17.074,17.074,0,0,1,9.97,13.975v.451h20.5v-2.05a20.6,20.6,0,0,1,5.718,4.643A19.743,19.743,0,0,1,41.043,30.713Z"/><path class="cls-40" d="M40.884,30.7a17.435,17.435,0,0,1-1.761,6.962V34.53H6.8v2.5a20.012,20.012,0,0,1-1.557-3.308,18.934,18.934,0,0,1-1.128-7.3A16.935,16.935,0,0,1,10.077,14.1v.327H30.406V12.514a20.427,20.427,0,0,1,5.669,4.6A19.566,19.566,0,0,1,40.884,30.7Z"/><path class="cls-41" d="M40.726,30.676a17.3,17.3,0,0,1-1.746,6.9V34.53H6.937v2.428a19.779,19.779,0,0,1-1.543-3.279,18.753,18.753,0,0,1-1.118-7.235,16.786,16.786,0,0,1,5.908-12.22v.2H30.338V12.652a20.244,20.244,0,0,1,5.62,4.565A19.4,19.4,0,0,1,40.726,30.676Z"/><path class="cls-42" d="M40.567,30.658A17.123,17.123,0,0,1,38.836,37.5V34.53H7.073v2.355a19.561,19.561,0,0,1-1.53-3.251,18.6,18.6,0,0,1-1.109-7.171,16.641,16.641,0,0,1,5.857-12.114v.077H30.27V12.791a20.086,20.086,0,0,1,5.571,4.524A19.23,19.23,0,0,1,40.567,30.658Z"/><path class="cls-43" d="M40.409,30.64a16.983,16.983,0,0,1-1.716,6.781V34.53H7.208v2.282A19.409,19.409,0,0,1,5.692,33.59a18.421,18.421,0,0,1-1.1-7.109A16.338,16.338,0,0,1,16.261,11.31v3.116h7.032V10.718A19.555,19.555,0,0,1,40.409,30.64Z"/><path class="cls-44" d="M40.25,30.621a16.823,16.823,0,0,1-1.7,6.722V34.53H7.343v2.209a19.271,19.271,0,0,1-1.5-3.194A18.29,18.29,0,0,1,4.751,26.5,16.194,16.194,0,0,1,16.316,11.463v2.963h6.97V10.875A19.384,19.384,0,0,1,40.25,30.621Z"/><path class="cls-45" d="M40.092,30.6a16.676,16.676,0,0,1-1.686,6.662V34.53H7.479v2.136A19.124,19.124,0,0,1,5.989,33.5,18.106,18.106,0,0,1,4.91,26.518a16.052,16.052,0,0,1,11.461-14.9v2.81h6.908V11.033A19.21,19.21,0,0,1,40.092,30.6Z"/><path class="cls-46" d="M39.933,30.584a16.5,16.5,0,0,1-1.67,6.6V34.53H7.614v2.063a18.863,18.863,0,0,1-1.476-3.137,17.956,17.956,0,0,1-1.07-6.92A16.055,16.055,0,0,1,10.72,14.847a16.372,16.372,0,0,1,12.552-3.656A19.037,19.037,0,0,1,39.933,30.584Z"/><path class="cls-47" d="M39.775,30.566a16.4,16.4,0,0,1-1.655,6.542V34.53H7.749v1.99a18.711,18.711,0,0,1-1.462-3.108,17.777,17.777,0,0,1-1.06-6.857,15.908,15.908,0,0,1,5.6-11.583,16.221,16.221,0,0,1,12.438-3.623A18.864,18.864,0,0,1,39.775,30.566Z"/><path class="cls-48" d="M39.616,30.548a16.223,16.223,0,0,1-1.639,6.481v-2.5H7.885v1.917a18.54,18.54,0,0,1-1.45-3.08,17.645,17.645,0,0,1-1.05-6.794A15.76,15.76,0,0,1,10.934,15.1a16.072,16.072,0,0,1,12.324-3.59A18.69,18.69,0,0,1,39.616,30.548Z"/><path class="cls-49" d="M39.458,30.529a16.081,16.081,0,0,1-1.625,6.422V34.53H8.02v1.844a18.345,18.345,0,0,1-1.436-3.051,17.463,17.463,0,0,1-1.04-6.731,15.621,15.621,0,0,1,5.5-11.371,15.926,15.926,0,0,1,12.21-3.556A18.517,18.517,0,0,1,39.458,30.529Z"/><path class="cls-50" d="M39.3,30.511a15.907,15.907,0,0,1-1.609,6.361V34.53H8.155V36.3a18.165,18.165,0,0,1-1.422-3.023A17.294,17.294,0,0,1,5.7,26.61,15.447,15.447,0,0,1,23.244,11.823,18.344,18.344,0,0,1,39.3,30.511Z"/><path class="cls-51" d="M39.141,30.492a15.781,15.781,0,0,1-1.594,6.3V34.53H8.291v1.7a18.055,18.055,0,0,1-1.409-2.994,17.132,17.132,0,0,1-1.021-6.606A15.3,15.3,0,0,1,23.237,11.981,18.171,18.171,0,0,1,39.141,30.492Z"/><path class="cls-52" d="M38.982,30.474A15.6,15.6,0,0,1,37.4,36.716V34.53H8.426v1.625a17.879,17.879,0,0,1-1.4-2.966,16.979,16.979,0,0,1-1.011-6.542A15.155,15.155,0,0,1,23.23,12.139,18,18,0,0,1,38.982,30.474Z"/><path class="cls-53" d="M38.824,30.456a15.486,15.486,0,0,1-1.564,6.181V34.53H8.561v1.552a17.727,17.727,0,0,1-1.382-2.937,16.8,16.8,0,0,1-1-6.48A15.008,15.008,0,0,1,23.223,12.3,17.825,17.825,0,0,1,38.824,30.456Z"/><path class="cls-54" d="M38.666,30.437a15.339,15.339,0,0,1-1.549,6.122V34.53H8.7v1.479A17.509,17.509,0,0,1,7.328,33.1a16.631,16.631,0,0,1-.992-6.416,14.865,14.865,0,0,1,16.88-14.23A17.653,17.653,0,0,1,38.666,30.437Z"/><path class="cls-55" d="M38.507,30.419a15.17,15.17,0,0,1-1.534,6.061V34.53H8.832v1.406a17.277,17.277,0,0,1-1.355-2.88A16.486,16.486,0,0,1,6.494,26.7a14.719,14.719,0,0,1,16.715-14.09A17.48,17.48,0,0,1,38.507,30.419Z"/><path class="cls-56" d="M38.349,30.4a15.027,15.027,0,0,1-1.519,6V34.53H8.967v1.333a17.219,17.219,0,0,1-1.342-2.852,16.316,16.316,0,0,1-.972-6.291A14.573,14.573,0,0,1,23.2,12.77,17.307,17.307,0,0,1,38.349,30.4Z"/><path class="cls-57" d="M38.19,30.382a14.879,14.879,0,0,1-1.5,5.942V34.53H10.916v3.8A16.7,16.7,0,0,1,6.811,26.739,14.427,14.427,0,0,1,23.2,12.928,17.132,17.132,0,0,1,38.19,30.382Z"/><path class="cls-58" d="M38.032,30.364a14.726,14.726,0,0,1-1.488,5.881V34.53H11.033v3.7A16.532,16.532,0,0,1,6.97,26.757,14.281,14.281,0,0,1,23.188,13.086,16.961,16.961,0,0,1,38.032,30.364Z"/><path class="cls-59" d="M37.873,30.345A14.563,14.563,0,0,1,36.4,36.167V34.53H11.15v3.6A16.369,16.369,0,0,1,7.128,26.776,14.136,14.136,0,0,1,23.181,13.244,16.787,16.787,0,0,1,37.873,30.345Z"/><path class="cls-60" d="M37.715,30.327a14.427,14.427,0,0,1-1.458,5.761V34.53H11.267v3.5a16.192,16.192,0,0,1-3.98-11.236A13.989,13.989,0,0,1,23.174,13.4,16.613,16.613,0,0,1,37.715,30.327Z"/><path class="cls-61" d="M37.556,30.308a14.279,14.279,0,0,1-1.442,5.7V34.53H11.384v3.4A16.026,16.026,0,0,1,7.445,26.812,13.843,13.843,0,0,1,23.167,13.56,16.44,16.44,0,0,1,37.556,30.308Z"/><path class="cls-62" d="M37.4,30.29a14.115,14.115,0,0,1-1.428,5.641v-1.4H11.5v3.3a15.858,15.858,0,0,1-3.9-11A13.7,13.7,0,0,1,23.16,13.718,16.268,16.268,0,0,1,37.4,30.29Z"/><path class="cls-63" d="M37.239,30.272a13.967,13.967,0,0,1-1.412,5.581V34.53H11.618v3.2A15.691,15.691,0,0,1,7.762,26.849,13.552,13.552,0,0,1,23.153,13.876,16.093,16.093,0,0,1,37.239,30.272Z"/><path class="cls-64" d="M37.081,30.253a13.824,13.824,0,0,1-1.4,5.522V34.53H11.735v3.1A15.519,15.519,0,0,1,7.921,26.868,13.407,13.407,0,0,1,23.146,14.033,15.923,15.923,0,0,1,37.081,30.253Z"/><path class="cls-65" d="M36.922,30.235A13.667,13.667,0,0,1,35.541,35.7V34.53H11.852v3.007A15.355,15.355,0,0,1,8.079,26.886a13.262,13.262,0,0,1,15.06-12.695A15.748,15.748,0,0,1,36.922,30.235Z"/><path class="cls-66" d="M36.764,30.216a13.529,13.529,0,0,1-1.367,5.4V34.53H11.969v2.908A15.178,15.178,0,0,1,8.238,26.9,13.115,13.115,0,0,1,23.132,14.349,15.577,15.577,0,0,1,36.764,30.216Z"/><path class="cls-67" d="M36.6,30.2a13.372,13.372,0,0,1-1.351,5.341V34.53H12.086v2.81A15.017,15.017,0,0,1,8.4,26.923,12.97,12.97,0,0,1,23.125,14.507,15.4,15.4,0,0,1,36.6,30.2Z"/><path class="cls-68" d="M36.447,30.18a13.229,13.229,0,0,1-1.336,5.281V34.53H12.2v2.711a14.845,14.845,0,0,1-3.648-10.3A12.824,12.824,0,0,1,23.118,14.665,15.229,15.229,0,0,1,36.447,30.18Z"/><path class="cls-69" d="M36.288,30.161a13.065,13.065,0,0,1-1.321,5.222V34.53H12.32v2.612A14.676,14.676,0,0,1,8.713,26.96a12.678,12.678,0,0,1,14.4-12.137A15.056,15.056,0,0,1,36.288,30.161Z"/><path class="cls-70" d="M36.13,30.143A12.909,12.909,0,0,1,34.824,35.3V34.53H12.437v2.514A14.509,14.509,0,0,1,8.872,26.978a12.532,12.532,0,0,1,14.232-12A14.884,14.884,0,0,1,36.13,30.143Z"/><path class="cls-71" d="M35.971,30.124a12.769,12.769,0,0,1-1.29,5.1v-.7H12.554v2.415A14.338,14.338,0,0,1,9.03,27,12.386,12.386,0,0,1,23.1,15.139,14.709,14.709,0,0,1,35.971,30.124Z"/><path class="cls-72" d="M35.813,30.106a12.6,12.6,0,0,1-1.276,5.041V34.53H12.671v2.316a14.171,14.171,0,0,1-3.482-9.831A12.24,12.24,0,0,1,23.09,15.3,14.537,14.537,0,0,1,35.813,30.106Z"/><path class="cls-73" d="M35.654,30.088a12.47,12.47,0,0,1-1.26,4.981V34.53H12.788v2.218a14,14,0,0,1-3.441-9.715A12.1,12.1,0,0,1,23.083,15.455,14.362,14.362,0,0,1,35.654,30.088Z"/><path class="cls-74" d="M35.5,30.069a12.314,12.314,0,0,1-1.245,4.921v-.46H12.905v2.119a13.83,13.83,0,0,1-3.4-9.6,11.948,11.948,0,0,1,13.57-11.439A14.19,14.19,0,0,1,35.5,30.069Z"/><path class="cls-75" d="M35.338,30.051a12.187,12.187,0,0,1-1.23,4.861V34.53H13.022v2.02a13.664,13.664,0,0,1-3.358-9.48,11.8,11.8,0,0,1,13.405-11.3A14.02,14.02,0,0,1,35.338,30.051Z"/><path class="cls-76" d="M35.179,30.032a12.011,12.011,0,0,1-1.215,4.8v-.3H13.139v1.922a13.5,13.5,0,0,1-3.316-9.364,11.657,11.657,0,0,1,13.239-11.16A13.845,13.845,0,0,1,35.179,30.032Z"/><path class="cls-77" d="M35.021,30.014a11.875,11.875,0,0,1-1.2,4.741V34.53H13.256v1.823a13.329,13.329,0,0,1-3.275-9.246A11.512,11.512,0,0,1,23.055,16.086,13.673,13.673,0,0,1,35.021,30.014Z"/><path class="cls-78" d="M34.862,30a11.383,11.383,0,0,1-4.007,8.288V34.53H13.373v1.724a13.158,13.158,0,0,1-3.234-9.129A11.367,11.367,0,0,1,23.048,16.244,13.5,13.5,0,0,1,34.862,30Z"/><path class="cls-79" d="M34.7,29.977a11.239,11.239,0,0,1-3.956,8.182V34.53H13.49v1.626A12.994,12.994,0,0,1,10.3,27.144,11.221,11.221,0,0,1,23.041,16.4,13.326,13.326,0,0,1,34.7,29.977Z"/><path class="cls-80" d="M34.545,29.959a11.09,11.09,0,0,1-3.905,8.076v-3.5H13.607v1.527a12.823,12.823,0,0,1-3.151-8.9,11.076,11.076,0,0,1,12.578-10.6A13.152,13.152,0,0,1,34.545,29.959Z"/><path class="cls-81" d="M34.387,29.94a10.95,10.95,0,0,1-3.854,7.97V34.53H13.724v1.429a12.654,12.654,0,0,1-3.109-8.779A10.929,10.929,0,0,1,23.027,16.718,12.98,12.98,0,0,1,34.387,29.94Z"/><path class="cls-82" d="M34.228,29.922a10.8,10.8,0,0,1-3.8,7.863V34.53H13.841v1.33A12.488,12.488,0,0,1,10.773,27.2,10.784,10.784,0,0,1,23.02,16.876,12.806,12.806,0,0,1,34.228,29.922Z"/><path class="cls-83" d="M34.07,29.9a10.659,10.659,0,0,1-3.751,7.757V34.53H13.958v1.231a12.312,12.312,0,0,1-3.026-8.544A10.637,10.637,0,0,1,23.013,17.034,12.634,12.634,0,0,1,34.07,29.9Z"/><path class="cls-84" d="M33.911,29.885a10.507,10.507,0,0,1-3.7,7.651V34.53H14.075v1.133a12.153,12.153,0,0,1-2.985-8.427A10.493,10.493,0,0,1,23.006,17.191,12.46,12.46,0,0,1,33.911,29.885Z"/><path class="cls-85" d="M33.753,29.867a10.364,10.364,0,0,1-3.648,7.544V34.53H14.192v1.034a11.975,11.975,0,0,1-2.943-8.31A10.347,10.347,0,0,1,23,17.349,12.288,12.288,0,0,1,33.753,29.867Z"/><path class="cls-86" d="M33.594,29.848A10.216,10.216,0,0,1,30,37.287V34.53H14.309v.935a11.814,11.814,0,0,1-2.9-8.193,10.2,10.2,0,0,1,11.585-9.765A12.115,12.115,0,0,1,33.594,29.848Z"/><path class="cls-87" d="M33.436,29.83a10.073,10.073,0,0,1-3.545,7.332V34.53H14.426v.837a11.642,11.642,0,0,1-2.86-8.076,10.055,10.055,0,0,1,11.419-9.626A11.942,11.942,0,0,1,33.436,29.83Z"/><path class="cls-88" d="M33.277,29.812a9.921,9.921,0,0,1-3.493,7.225V34.53H14.543v.738a11.479,11.479,0,0,1-2.819-7.959,9.91,9.91,0,0,1,11.254-9.486A11.768,11.768,0,0,1,33.277,29.812Z"/><path class="cls-89" d="M33.119,29.793a9.783,9.783,0,0,1-3.442,7.12V34.53H14.66v.639a11.3,11.3,0,0,1-2.777-7.841,9.763,9.763,0,0,1,11.088-9.347A11.6,11.6,0,0,1,33.119,29.793Z"/><path class="cls-90" d="M32.96,29.775a9.631,9.631,0,0,1-3.391,7.013V34.53H14.777v.541a11.135,11.135,0,0,1-2.736-7.725,9.618,9.618,0,0,1,10.923-9.207A11.422,11.422,0,0,1,32.96,29.775Z"/><path class="cls-91" d="M32.8,29.756a9.484,9.484,0,0,1-3.34,6.907V34.53H14.894v.442A10.967,10.967,0,0,1,12.2,27.364,9.472,9.472,0,0,1,22.957,18.3,11.248,11.248,0,0,1,32.8,29.756Z"/><path class="cls-92" d="M32.643,29.738a9.341,9.341,0,0,1-3.288,6.8V34.53H15.011v.343a10.8,10.8,0,0,1-2.653-7.49A9.326,9.326,0,0,1,22.95,18.455,11.075,11.075,0,0,1,32.643,29.738Z"/><path class="cls-93" d="M32.485,29.72a9.193,9.193,0,0,1-3.237,6.694V34.53H15.128v.245A10.633,10.633,0,0,1,12.517,27.4a9.18,9.18,0,0,1,10.426-8.788A10.9,10.9,0,0,1,32.485,29.72Z"/><path class="cls-94" d="M32.326,29.7a9.046,9.046,0,0,1-3.185,6.588V34.53h-13.9v.146a10.461,10.461,0,0,1-2.57-7.256,9.036,9.036,0,0,1,10.261-8.65A10.73,10.73,0,0,1,32.326,29.7Z"/><path class="cls-95" d="M32.168,29.683a8.9,8.9,0,0,1-3.134,6.482V34.53H22.073v3.662a10.555,10.555,0,0,1-9.239-10.754,8.89,8.89,0,0,1,10.095-8.51A10.557,10.557,0,0,1,32.168,29.683Z"/><path class="cls-96" d="M32.009,29.664a8.756,8.756,0,0,1-3.082,6.376V34.53H22.08v3.5a10.383,10.383,0,0,1-9.088-10.578,8.744,8.744,0,0,1,9.93-8.37A10.383,10.383,0,0,1,32.009,29.664Z"/><path class="cls-97" d="M31.851,29.646a8.612,8.612,0,0,1-3.031,6.27V34.53H22.087v3.347a10.211,10.211,0,0,1-8.936-10.4,8.6,8.6,0,0,1,9.764-8.231A10.211,10.211,0,0,1,31.851,29.646Z"/><ellipse class="cls-98" cx="22.501" cy="28.56" rx="8.874" ry="9.535" transform="translate(-13.538 23.743) rotate(-44.155)"/><ellipse class="cls-99" cx="22.501" cy="28.56" rx="8.721" ry="9.371" transform="translate(-13.538 23.743) rotate(-44.154)"/><ellipse class="cls-100" cx="22.501" cy="28.56" rx="8.568" ry="9.206" transform="translate(-13.538 23.743) rotate(-44.154)"/><ellipse class="cls-101" cx="22.501" cy="28.56" rx="8.415" ry="9.042" transform="translate(-13.538 23.743) rotate(-44.154)"/><ellipse class="cls-102" cx="22.501" cy="28.56" rx="8.262" ry="8.878" transform="translate(-13.538 23.744) rotate(-44.156)"/><path class="cls-103" d="M30.9,29.536a7.723,7.723,0,0,1-8.771,7.393A9.172,9.172,0,0,1,14.1,27.585a7.724,7.724,0,0,1,8.772-7.393A9.172,9.172,0,0,1,30.9,29.536Z"/><ellipse class="cls-104" cx="22.501" cy="28.56" rx="7.956" ry="8.549" transform="translate(-13.538 23.744) rotate(-44.155)"/><ellipse class="cls-105" cx="22.501" cy="28.56" rx="7.803" ry="8.384" transform="translate(-13.538 23.743) rotate(-44.155)"/><ellipse class="cls-106" cx="22.501" cy="28.56" rx="7.65" ry="8.22" transform="translate(-13.538 23.743) rotate(-44.154)"/><ellipse class="cls-107" cx="22.501" cy="28.56" rx="7.497" ry="8.056" transform="translate(-13.538 23.744) rotate(-44.155)"/><ellipse class="cls-108" cx="22.501" cy="28.56" rx="7.344" ry="7.891" transform="translate(-13.538 23.743) rotate(-44.155)"/><ellipse class="cls-109" cx="22.501" cy="28.56" rx="7.191" ry="7.727" transform="translate(-13.538 23.743) rotate(-44.154)"/><ellipse class="cls-110" cx="22.501" cy="28.56" rx="7.038" ry="7.562" transform="translate(-13.538 23.744) rotate(-44.155)"/><ellipse class="cls-111" cx="22.501" cy="28.56" rx="6.885" ry="7.398" transform="translate(-13.538 23.743) rotate(-44.154)"/><ellipse class="cls-112" cx="22.501" cy="28.56" rx="6.732" ry="7.234" transform="translate(-13.538 23.744) rotate(-44.156)"/><ellipse class="cls-113" cx="22.501" cy="28.56" rx="6.579" ry="7.069" transform="translate(-13.538 23.743) rotate(-44.155)"/><ellipse class="cls-114" cx="22.501" cy="28.56" rx="6.426" ry="6.905" transform="translate(-13.538 23.743) rotate(-44.155)"/><ellipse class="cls-115" cx="22.501" cy="28.56" rx="6.273" ry="6.74" transform="translate(-13.538 23.744) rotate(-44.155)"/><path class="cls-116" d="M28.84,29.3a5.828,5.828,0,0,1-6.62,5.58,6.921,6.921,0,0,1-6.058-7.052,5.829,5.829,0,0,1,6.619-5.58A6.923,6.923,0,0,1,28.84,29.3Z"/><ellipse class="cls-117" cx="22.501" cy="28.56" rx="5.967" ry="6.412" transform="translate(-13.538 23.744) rotate(-44.156)"/><path class="cls-118" d="M28.523,29.26a5.538,5.538,0,0,1-6.289,5.3,6.576,6.576,0,0,1-5.755-6.7,5.537,5.537,0,0,1,6.288-5.3A6.577,6.577,0,0,1,28.523,29.26Z"/><ellipse class="cls-119" cx="22.501" cy="28.56" rx="5.661" ry="6.083" transform="translate(-13.538 23.744) rotate(-44.156)"/><ellipse class="cls-120" cx="22.501" cy="28.56" rx="5.508" ry="5.918" transform="translate(-13.538 23.744) rotate(-44.156)"/><ellipse class="cls-121" cx="22.501" cy="28.56" rx="5.355" ry="5.754" transform="translate(-13.538 23.744) rotate(-44.155)"/><path class="cls-122" d="M27.889,29.186a4.955,4.955,0,0,1-5.627,4.743,5.882,5.882,0,0,1-5.149-5.994,4.953,4.953,0,0,1,5.626-4.743A5.883,5.883,0,0,1,27.889,29.186Z"/><ellipse class="cls-123" cx="22.501" cy="28.56" rx="5.049" ry="5.425" transform="translate(-13.538 23.743) rotate(-44.154)"/><ellipse class="cls-124" cx="22.501" cy="28.56" rx="4.896" ry="5.261" transform="translate(-13.538 23.743) rotate(-44.154)"/><path class="cls-125" d="M27.414,29.131a4.518,4.518,0,0,1-5.131,4.324,5.365,5.365,0,0,1-4.695-5.465,4.518,4.518,0,0,1,5.13-4.325A5.366,5.366,0,0,1,27.414,29.131Z"/><path class="cls-126" d="M27.255,29.112A4.371,4.371,0,0,1,22.29,33.3a5.192,5.192,0,0,1-4.544-5.289,4.372,4.372,0,0,1,4.965-4.185A5.192,5.192,0,0,1,27.255,29.112Z"/><ellipse class="cls-127" cx="22.501" cy="28.56" rx="4.437" ry="4.768" transform="translate(-13.538 23.744) rotate(-44.156)"/><path class="cls-128" d="M26.938,29.076A4.081,4.081,0,0,1,22.3,32.982a4.847,4.847,0,0,1-4.241-4.937A4.081,4.081,0,0,1,22.7,24.139,4.846,4.846,0,0,1,26.938,29.076Z"/><path class="cls-129" d="M26.78,29.057a3.935,3.935,0,0,1-4.469,3.767,4.673,4.673,0,0,1-4.089-4.76A3.934,3.934,0,0,1,22.69,24.3,4.674,4.674,0,0,1,26.78,29.057Z"/><path class="cls-130" d="M26.621,29.039a3.789,3.789,0,0,1-4.3,3.627,4.5,4.5,0,0,1-3.938-4.584,3.79,3.79,0,0,1,4.3-3.627A4.5,4.5,0,0,1,26.621,29.039Z"/><path class="cls-130" d="M26.463,29.02a3.643,3.643,0,0,1-4.138,3.488A4.326,4.326,0,0,1,18.539,28.1a3.643,3.643,0,0,1,4.137-3.487A4.326,4.326,0,0,1,26.463,29.02Z"/><ellipse class="cls-131" cx="22.501" cy="28.56" rx="3.672" ry="3.946" transform="translate(-13.538 23.742) rotate(-44.153)"/><ellipse class="cls-132" cx="22.501" cy="28.56" rx="3.519" ry="3.781" transform="translate(-13.538 23.744) rotate(-44.156)"/><path class="cls-133" d="M25.987,28.965a3.205,3.205,0,0,1-3.641,3.069,3.807,3.807,0,0,1-3.332-3.878,3.206,3.206,0,0,1,3.641-3.069A3.806,3.806,0,0,1,25.987,28.965Z"/><path class="cls-134" d="M25.829,28.947a3.06,3.06,0,0,1-3.476,2.929,3.633,3.633,0,0,1-3.18-3.7,3.061,3.061,0,0,1,3.475-2.93A3.635,3.635,0,0,1,25.829,28.947Z"/><path class="cls-135" d="M25.67,28.928a2.914,2.914,0,0,1-3.31,2.79,3.461,3.461,0,0,1-3.029-3.526,2.915,2.915,0,0,1,3.31-2.79A3.461,3.461,0,0,1,25.67,28.928Z"/><path class="cls-136" d="M25.512,28.91a2.769,2.769,0,0,1-3.145,2.65,3.287,3.287,0,0,1-2.877-3.349,2.768,2.768,0,0,1,3.144-2.651A3.289,3.289,0,0,1,25.512,28.91Z"/><ellipse class="cls-137" cx="22.501" cy="28.56" rx="2.754" ry="2.959" transform="translate(-13.538 23.742) rotate(-44.153)"/><path class="cls-138" d="M25.2,28.873a2.478,2.478,0,0,1-2.813,2.372,2.942,2.942,0,0,1-2.575-3,2.476,2.476,0,0,1,2.813-2.372A2.942,2.942,0,0,1,25.2,28.873Z"/><path class="cls-139" d="M25.036,28.855a2.332,2.332,0,0,1-2.647,2.232,2.77,2.77,0,0,1-2.424-2.821,2.332,2.332,0,0,1,2.648-2.232A2.769,2.769,0,0,1,25.036,28.855Z"/><path class="cls-140" d="M24.878,28.836A2.187,2.187,0,0,1,22.4,30.929a2.6,2.6,0,0,1-2.272-2.645,2.185,2.185,0,0,1,2.482-2.092A2.6,2.6,0,0,1,24.878,28.836Z"/><path class="cls-141" d="M24.719,28.818A2.039,2.039,0,0,1,22.4,30.771,2.422,2.422,0,0,1,20.282,28.3,2.04,2.04,0,0,1,22.6,26.35,2.422,2.422,0,0,1,24.719,28.818Z"/><path class="cls-142" d="M24.561,28.8a1.894,1.894,0,0,1-2.151,1.813,2.249,2.249,0,0,1-1.969-2.292,1.894,1.894,0,0,1,2.151-1.813A2.25,2.25,0,0,1,24.561,28.8Z"/><path class="cls-143" d="M24.4,28.781a1.749,1.749,0,0,1-1.986,1.674A2.077,2.077,0,0,1,20.6,28.34a1.749,1.749,0,0,1,1.986-1.674A2.077,2.077,0,0,1,24.4,28.781Z"/><path class="cls-143" d="M24.244,28.763a1.6,1.6,0,0,1-1.82,1.534,1.9,1.9,0,0,1-1.666-1.939,1.6,1.6,0,0,1,1.82-1.535A1.9,1.9,0,0,1,24.244,28.763Z"/><path class="cls-144" d="M24.086,28.744a1.457,1.457,0,0,1-1.655,1.395,1.73,1.73,0,0,1-1.515-1.763,1.458,1.458,0,0,1,1.655-1.395A1.732,1.732,0,0,1,24.086,28.744Z"/><path class="cls-145" d="M23.927,28.726a1.311,1.311,0,0,1-1.489,1.255A1.558,1.558,0,0,1,21.074,28.4a1.312,1.312,0,0,1,1.49-1.256A1.558,1.558,0,0,1,23.927,28.726Z"/><path class="cls-145" d="M23.769,28.708a1.166,1.166,0,0,1-1.324,1.116,1.385,1.385,0,0,1-1.212-1.411A1.166,1.166,0,0,1,22.557,27.3,1.385,1.385,0,0,1,23.769,28.708Z"/><path class="cls-146" d="M23.61,28.689a1.02,1.02,0,0,1-1.158.977,1.212,1.212,0,0,1-1.061-1.234,1.021,1.021,0,0,1,1.159-.977A1.211,1.211,0,0,1,23.61,28.689Z"/><path class="cls-146" d="M23.452,28.671a.875.875,0,0,1-.993.837,1.039,1.039,0,0,1-.909-1.058.874.874,0,0,1,.993-.837A1.039,1.039,0,0,1,23.452,28.671Z"/><path class="cls-146" d="M23.293,28.652a.729.729,0,0,1-.827.7.867.867,0,0,1-.758-.882.729.729,0,0,1,.828-.7A.865.865,0,0,1,23.293,28.652Z"/><path class="cls-147" d="M23.135,28.634a.583.583,0,0,1-.662.558.692.692,0,0,1-.606-.705.582.582,0,0,1,.662-.558A.692.692,0,0,1,23.135,28.634Z"/><path class="cls-147" d="M22.976,28.616a.436.436,0,0,1-.5.418.519.519,0,0,1-.455-.529.437.437,0,0,1,.5-.418A.519.519,0,0,1,22.976,28.616Z"/><path class="cls-147" d="M22.818,28.6a.291.291,0,0,1-.331.279.345.345,0,0,1-.3-.352.291.291,0,0,1,.331-.279A.346.346,0,0,1,22.818,28.6Z"/><path class="cls-147" d="M22.659,28.579a.145.145,0,0,1-.165.139.173.173,0,0,1-.152-.176.147.147,0,0,1,.166-.14A.174.174,0,0,1,22.659,28.579Z"/></g><path class="cls-148" d="M62.493,15.813c-.041,1.136-.818,2.526-2.439,3.929v.007C56.1,23.179,47.1,26.685,31.489,26.685c-22,0-28.874-8.545-28.842-11.715A4.3,4.3,0,0,1,3.6,12.615c.1-.144.213-.287.332-.438,2.286-2.78,7.715-6.1,16.93-7.757a68.231,68.231,0,0,1,9.784-1A52.765,52.765,0,0,1,43.966,4.577a.043.043,0,0,1,.019.007.17.17,0,0,1,.057.014,38.191,38.191,0,0,1,12.646,5.19A.019.019,0,0,1,56.7,9.8C60.63,12.389,62.524,14.964,62.493,15.813Z"/><path class="cls-149" d="M62.493,15.813c-.138,3.909-9.005,10.872-31,10.872S2.615,18.14,2.647,14.97A4.3,4.3,0,0,1,3.6,12.615,3.953,3.953,0,0,0,3.652,16.2c1.136,2.787,8.262,9.517,28.7,9.517S60.617,18.079,61.506,16.2c.864-1.828-4.493-6.148-4.8-6.4C60.63,12.389,62.524,14.964,62.493,15.813Z"/><path class="cls-150" d="M24.706,25.343l.395,2.389s3.916,1.243,11.905.291l.89-2.474S32.35,25.714,24.706,25.343Z"/><path class="cls-151" d="M25.1,27.732l.277-.357a43.892,43.892,0,0,0,11.39.178l.238.47A28.238,28.238,0,0,1,25.1,27.732Z"/><path class="cls-152" d="M14.377,11.333s1.628,1.945,1.895,2.334S12.023,21.983,11,22.106,6.98,20.855,6.98,20.855a34.831,34.831,0,0,0,17.726,5.532s-2.1-.482-2.334-1.693S25.1,16.91,25.1,16.91,40.814,18.4,48.837,12.854Z"/><path class="cls-153" d="M14.246,24.423a31.1,31.1,0,0,0,10.46,8.732A43.166,43.166,0,0,1,14.246,24.423Z"/><path class="cls-154" d="M49.977,24.423a31.112,31.112,0,0,1-10.46,8.732A43.186,43.186,0,0,0,49.977,24.423Z"/><path class="cls-155" d="M40.9,32.441s6.508-3.087,9.08-8.018C49.977,24.423,47.654,28.282,40.9,32.441Z"/><path class="cls-156" d="M14.246,24.423a40.378,40.378,0,0,0,10.46,8.732S17.43,28.057,14.246,24.423Z"/><g class="cls-157"><g class="cls-158"><rect class="cls-159" x="44.042" y="4.598" width="18.482" height="15.144"/><path class="cls-160" d="M58.856,16.871a12.564,12.564,0,0,1-2.818,7.884V20.478H43.744v2.346A15.419,15.419,0,0,1,41.47,14.14c.212-6.47,4.276-11.1,9.078-10.35S59.069,10.4,58.856,16.871Z"/><path class="cls-161" d="M58.812,16.864a12.5,12.5,0,0,1-2.8,7.844v-4.23H43.776v2.309a15.355,15.355,0,0,1-2.263-8.64c.212-6.438,4.256-11.048,9.033-10.3S59.024,10.426,58.812,16.864Z"/><path class="cls-162" d="M58.768,16.857a12.434,12.434,0,0,1-2.79,7.8V20.478H43.808V22.75a15.277,15.277,0,0,1-2.251-8.6c.211-6.4,4.234-10.992,8.987-10.246S58.979,10.452,58.768,16.857Z"/><path class="cls-163" d="M58.724,16.85a12.374,12.374,0,0,1-2.775,7.765V20.478H43.841v2.235a15.2,15.2,0,0,1-2.24-8.552c.21-6.373,4.212-10.936,8.941-10.194S58.934,10.477,58.724,16.85Z"/><path class="cls-164" d="M58.68,16.843a12.309,12.309,0,0,1-2.761,7.725v-4.09H43.873v2.2a15.116,15.116,0,0,1-2.228-8.508c.208-6.34,4.191-10.88,8.895-10.142S58.889,10.5,58.68,16.843Z"/><path class="cls-165" d="M58.637,16.836a12.245,12.245,0,0,1-2.748,7.685V20.478H43.906v2.161a15.03,15.03,0,0,1-2.217-8.464C41.9,7.868,45.858,3.351,50.538,4.086S58.844,10.529,58.637,16.836Z"/><path class="cls-166" d="M58.593,16.829a12.19,12.19,0,0,1-2.733,7.646v-4H43.938V22.6a14.958,14.958,0,0,1-2.205-8.42c.206-6.275,4.147-10.768,8.8-10.037S58.8,10.555,58.593,16.829Z"/><path class="cls-167" d="M58.549,16.822a12.126,12.126,0,0,1-2.719,7.606v-3.95H43.971v2.087a14.873,14.873,0,0,1-2.194-8.377c.2-6.241,4.126-10.711,8.757-9.984S58.754,10.581,58.549,16.822Z"/><path class="cls-168" d="M58.505,16.815A12.055,12.055,0,0,1,55.8,24.381v-3.9H44v2.051A14.806,14.806,0,0,1,41.821,14.2c.2-6.209,4.1-10.656,8.711-9.932S58.709,10.606,58.505,16.815Z"/><path class="cls-169" d="M58.461,16.808a12,12,0,0,1-2.69,7.527V20.478H44.035v2.014a14.728,14.728,0,0,1-2.17-8.29c.2-6.176,4.082-10.6,8.665-9.88S58.664,10.632,58.461,16.808Z"/><path class="cls-170" d="M58.417,16.8a11.935,11.935,0,0,1-2.676,7.486v-3.81H44.068v1.977a14.648,14.648,0,0,1-2.159-8.246c.2-6.144,4.06-10.544,8.619-9.828S58.619,10.658,58.417,16.8Z"/><path class="cls-171" d="M58.373,16.8a11.865,11.865,0,0,1-2.662,7.446V20.478H44.1v1.94a14.569,14.569,0,0,1-2.147-8.2c.2-6.111,4.039-10.488,8.573-9.775S58.574,10.684,58.373,16.8Z"/><path class="cls-172" d="M58.329,16.788a11.806,11.806,0,0,1-2.647,7.406V20.478H44.133v1.9A14.5,14.5,0,0,1,42,14.223c.2-6.078,4.018-10.432,8.528-9.723S58.529,10.71,58.329,16.788Z"/><path class="cls-173" d="M58.285,16.781a11.74,11.74,0,0,1-2.633,7.367v-3.67H44.165v1.866A14.417,14.417,0,0,1,42.04,14.23c.2-6.046,4-10.376,8.482-9.671S58.484,10.735,58.285,16.781Z"/><path class="cls-174" d="M58.241,16.774A11.675,11.675,0,0,1,55.622,24.1V20.478H44.2v1.829a14.332,14.332,0,0,1-2.114-8.07c.2-6.013,3.975-10.32,8.436-9.619S58.439,10.761,58.241,16.774Z"/><path class="cls-175" d="M58.2,16.767a11.616,11.616,0,0,1-2.6,7.287V20.478H44.23V22.27a14.259,14.259,0,0,1-2.1-8.026c.2-5.981,3.953-10.264,8.39-9.567S58.394,10.787,58.2,16.767Z"/><path class="cls-176" d="M58.154,16.76a11.552,11.552,0,0,1-2.591,7.247V20.478h-11.3v1.755a14.182,14.182,0,0,1-2.09-7.983c.2-5.947,3.931-10.207,8.344-9.514S58.349,10.813,58.154,16.76Z"/><path class="cls-177" d="M58.11,16.753a11.486,11.486,0,0,1-2.577,7.208V20.478H44.3V22.2a14.1,14.1,0,0,1-2.079-7.939c.194-5.915,3.91-10.151,8.3-9.461S58.3,10.838,58.11,16.753Z"/><path class="cls-178" d="M58.066,16.746A11.43,11.43,0,0,1,55.5,23.914V20.478H44.327v1.681a14.023,14.023,0,0,1-2.067-7.895c.193-5.882,3.888-10.095,8.253-9.409S58.259,10.864,58.066,16.746Z"/><path class="cls-179" d="M58.022,16.74a11.361,11.361,0,0,1-2.548,7.127V20.478H44.36v1.644A13.943,13.943,0,0,1,42.3,14.271C42.5,8.422,46.17,4.232,50.511,4.914S58.214,10.89,58.022,16.74Z"/><path class="cls-180" d="M57.978,16.733a11.3,11.3,0,0,1-2.534,7.088V20.478H44.392v1.607a13.865,13.865,0,0,1-2.044-7.807c.191-5.817,3.845-9.983,8.161-9.3S58.169,10.916,57.978,16.733Z"/><path class="cls-181" d="M57.934,16.726a11.239,11.239,0,0,1-2.519,7.048v-3.3H44.424v1.57a13.793,13.793,0,0,1-2.032-7.763c.19-5.784,3.823-9.927,8.115-9.253S58.124,10.942,57.934,16.726Z"/><path class="cls-182" d="M57.89,16.719a11.169,11.169,0,0,1-2.505,7.008V20.478H44.457v1.533a13.713,13.713,0,0,1-2.022-7.719c.189-5.752,3.8-9.871,8.07-9.2S58.079,10.967,57.89,16.719Z"/><path class="cls-183" d="M57.846,16.712a11.106,11.106,0,0,1-2.491,6.968v-3.2H44.489v1.5a13.635,13.635,0,0,1-2.01-7.675c.188-5.719,3.78-9.815,8.024-9.148S58.034,10.993,57.846,16.712Z"/><path class="cls-184" d="M57.8,16.7a11.047,11.047,0,0,1-2.476,6.929V20.478h-10.8v1.459a13.555,13.555,0,0,1-2-7.631c.187-5.686,3.759-9.759,7.978-9.1S57.989,11.019,57.8,16.7Z"/><path class="cls-185" d="M57.758,16.7A10.978,10.978,0,0,1,55.3,23.587V20.478H44.554V21.9a13.476,13.476,0,0,1-1.987-7.587c.186-5.654,3.737-9.7,7.932-9.044S57.944,11.045,57.758,16.7Z"/><path class="cls-186" d="M57.714,16.691a10.914,10.914,0,0,1-2.448,6.849V20.478H44.587v1.385a13.4,13.4,0,0,1-1.976-7.544C42.8,8.7,46.326,4.673,50.5,5.328S57.9,11.07,57.714,16.691Z"/><path class="cls-187" d="M57.671,16.684a10.863,10.863,0,0,1-2.434,6.81V20.478H49.83v5.145c-4.146-.651-7.359-5.709-7.175-11.3s3.694-9.59,7.84-8.939S57.854,11.1,57.671,16.684Z"/><path class="cls-188" d="M57.627,16.677a10.8,10.8,0,0,1-2.42,6.77V20.478H49.832v5.086c-4.122-.647-7.316-5.675-7.133-11.231S46.371,4.8,50.493,5.446,57.809,11.122,57.627,16.677Z"/><path class="cls-189" d="M57.583,16.671A10.73,10.73,0,0,1,55.177,23.4V20.478H49.834v5.027c-4.1-.643-7.273-5.642-7.091-11.165s3.65-9.478,7.748-8.834S57.764,11.148,57.583,16.671Z"/><path class="cls-190" d="M57.539,16.664a10.659,10.659,0,0,1-2.391,6.689V20.478H49.836v4.968c-4.073-.64-7.23-5.609-7.049-11.1s3.629-9.422,7.7-8.782S57.719,11.174,57.539,16.664Z"/><path class="cls-191" d="M57.5,16.657a10.6,10.6,0,0,1-2.377,6.65V20.478h-5.28v4.909c-4.049-.636-7.187-5.576-7.007-11.033s3.607-9.366,7.656-8.73S57.674,11.2,57.5,16.657Z"/><path class="cls-192" d="M57.451,16.65a10.532,10.532,0,0,1-2.363,6.61V20.478H49.84v4.85c-4.025-.633-7.144-5.543-6.965-10.967s3.585-9.31,7.61-8.678S57.629,11.225,57.451,16.65Z"/><path class="cls-193" d="M57.407,16.643a10.469,10.469,0,0,1-2.348,6.57V20.478H49.842v4.79c-4-.628-7.1-5.508-6.924-10.9s3.564-9.254,7.565-8.626S57.584,11.251,57.407,16.643Z"/><path class="cls-194" d="M57.363,16.636a10.41,10.41,0,0,1-2.334,6.531V20.478H49.844v4.731c-3.977-.624-7.058-5.475-6.882-10.834s3.543-9.2,7.519-8.574S57.539,11.277,57.363,16.636Z"/><path class="cls-195" d="M57.319,16.629A10.339,10.339,0,0,1,55,23.12V20.478H49.846V25.15c-3.952-.621-7.015-5.442-6.84-10.769s3.521-9.141,7.474-8.52S57.494,11.3,57.319,16.629Z"/><path class="cls-196" d="M57.275,16.622a10.277,10.277,0,0,1-2.3,6.451V20.478H49.848v4.613c-3.928-.617-6.972-5.409-6.8-10.7s3.5-9.085,7.428-8.468S57.449,11.328,57.275,16.622Z"/><path class="cls-197" d="M57.232,16.615a10.221,10.221,0,0,1-2.292,6.411V20.478H49.85v4.554c-3.9-.613-6.929-5.375-6.756-10.637s3.478-9.029,7.382-8.416S57.4,11.354,57.232,16.615Z"/><ellipse class="cls-198" cx="50.163" cy="15.505" rx="6.992" ry="9.56" transform="translate(-1.439 5.81) rotate(-6.536)"/><ellipse class="cls-199" cx="50.163" cy="15.505" rx="6.949" ry="9.5" transform="translate(-1.439 5.81) rotate(-6.535)"/><ellipse class="cls-200" cx="50.163" cy="15.505" rx="6.905" ry="9.441" transform="translate(-1.439 5.81) rotate(-6.535)"/><ellipse class="cls-201" cx="50.163" cy="15.505" rx="6.861" ry="9.381" transform="translate(-1.439 5.81) rotate(-6.535)"/><ellipse class="cls-202" cx="50.163" cy="15.505" rx="6.818" ry="9.321" transform="translate(-1.439 5.81) rotate(-6.535)"/><ellipse class="cls-203" cx="50.163" cy="15.505" rx="6.774" ry="9.261" transform="translate(-1.439 5.81) rotate(-6.535)"/><ellipse class="cls-204" cx="50.163" cy="15.505" rx="6.73" ry="9.202" transform="translate(-1.439 5.811) rotate(-6.536)"/><path class="cls-205" d="M56.88,16.56c-.164,5-3.3,8.581-7.015,8s-6.584-5.108-6.42-10.108,3.305-8.58,7.015-8S57.045,11.56,56.88,16.56Z"/><ellipse class="cls-206" cx="50.163" cy="15.505" rx="6.643" ry="9.082" transform="translate(-1.439 5.81) rotate(-6.536)"/><ellipse class="cls-207" cx="50.163" cy="15.505" rx="6.599" ry="9.022" transform="translate(-1.439 5.81) rotate(-6.536)"/><ellipse class="cls-208" cx="50.163" cy="15.505" rx="6.555" ry="8.963" transform="translate(-1.439 5.81) rotate(-6.535)"/><ellipse class="cls-209" cx="50.163" cy="15.505" rx="6.512" ry="8.903" transform="translate(-1.439 5.81) rotate(-6.535)"/><ellipse class="cls-210" cx="50.163" cy="15.505" rx="6.468" ry="8.843" transform="translate(-1.439 5.81) rotate(-6.536)"/><ellipse class="cls-211" cx="50.163" cy="15.505" rx="6.424" ry="8.783" transform="translate(-1.439 5.81) rotate(-6.536)"/><ellipse class="cls-212" cx="50.163" cy="15.505" rx="6.381" ry="8.724" transform="translate(-1.439 5.81) rotate(-6.535)"/><ellipse class="cls-213" cx="50.163" cy="15.505" rx="6.337" ry="8.664" transform="translate(-1.439 5.81) rotate(-6.536)"/><ellipse class="cls-214" cx="50.163" cy="15.505" rx="6.293" ry="8.604" transform="translate(-1.439 5.81) rotate(-6.535)"/><ellipse class="cls-215" cx="50.163" cy="15.505" rx="6.25" ry="8.544" transform="translate(-1.439 5.81) rotate(-6.536)"/><ellipse class="cls-216" cx="50.163" cy="15.505" rx="6.206" ry="8.485" transform="translate(-1.439 5.81) rotate(-6.535)"/><ellipse class="cls-217" cx="50.163" cy="15.505" rx="6.162" ry="8.425" transform="translate(-1.439 5.81) rotate(-6.536)"/><ellipse class="cls-218" cx="50.163" cy="15.505" rx="6.118" ry="8.365" transform="translate(-1.439 5.81) rotate(-6.536)"/><ellipse class="cls-219" cx="50.163" cy="15.505" rx="6.075" ry="8.305" transform="translate(-1.439 5.81) rotate(-6.535)"/><ellipse class="cls-220" cx="50.163" cy="15.505" rx="6.031" ry="8.246" transform="translate(-1.439 5.81) rotate(-6.536)"/><ellipse class="cls-221" cx="50.163" cy="15.505" rx="5.987" ry="8.186" transform="translate(-1.439 5.81) rotate(-6.535)"/><path class="cls-222" d="M56.134,16.443c-.146,4.444-2.938,7.627-6.236,7.11s-5.852-4.541-5.706-8.985,2.937-7.628,6.235-7.11S56.28,12,56.134,16.443Z"/><ellipse class="cls-223" cx="50.163" cy="15.505" rx="5.9" ry="8.066" transform="translate(-1.439 5.81) rotate(-6.535)"/><path class="cls-224" d="M56.046,16.429c-.144,4.379-2.894,7.515-6.144,7.005s-5.766-4.474-5.623-8.853,2.895-7.515,6.144-7S56.19,12.05,56.046,16.429Z"/><ellipse class="cls-225" cx="50.163" cy="15.505" rx="5.812" ry="7.947" transform="translate(-1.439 5.81) rotate(-6.535)"/><path class="cls-226" d="M55.958,16.416c-.141,4.313-2.851,7.4-6.052,6.9s-5.68-4.407-5.539-8.721,2.852-7.4,6.052-6.9S56.1,12.1,55.958,16.416Z"/><ellipse class="cls-227" cx="50.163" cy="15.505" rx="5.725" ry="7.827" transform="translate(-1.439 5.81) rotate(-6.536)"/><ellipse class="cls-228" cx="50.163" cy="15.505" rx="5.681" ry="7.768" transform="translate(-1.439 5.81) rotate(-6.535)"/><path class="cls-229" d="M55.827,16.4c-.139,4.215-2.787,7.234-5.915,6.743s-5.551-4.307-5.413-8.522,2.786-7.235,5.914-6.744S55.965,12.179,55.827,16.4Z"/><ellipse class="cls-230" cx="50.163" cy="15.505" rx="5.594" ry="7.648" transform="translate(-1.439 5.811) rotate(-6.536)"/><ellipse class="cls-231" cx="50.163" cy="15.505" rx="5.55" ry="7.588" transform="translate(-1.439 5.81) rotate(-6.536)"/><ellipse class="cls-232" cx="50.163" cy="15.505" rx="5.507" ry="7.529" transform="translate(-1.439 5.81) rotate(-6.535)"/><path class="cls-233" d="M55.651,16.367c-.134,4.085-2.7,7.011-5.731,6.535s-5.38-4.174-5.245-8.259,2.7-7.01,5.731-6.534S55.785,12.282,55.651,16.367Z"/><path class="cls-234" d="M55.607,16.36c-.133,4.053-2.678,6.955-5.685,6.482s-5.337-4.139-5.2-8.192S47.4,7.7,50.4,8.168,55.74,12.308,55.607,16.36Z"/><ellipse class="cls-235" cx="50.163" cy="15.505" rx="5.375" ry="7.349" transform="translate(-1.439 5.81) rotate(-6.535)"/><path class="cls-236" d="M55.519,16.347c-.131,3.986-2.635,6.842-5.593,6.377s-5.251-4.073-5.12-8.06S47.442,7.822,50.4,8.287,55.65,12.36,55.519,16.347Z"/><ellipse class="cls-237" cx="50.163" cy="15.505" rx="5.288" ry="7.23" transform="translate(-1.439 5.811) rotate(-6.536)"/><path class="cls-238" d="M55.431,16.333c-.128,3.921-2.592,6.73-5.5,6.273s-5.165-4.007-5.036-7.928,2.592-6.73,5.5-6.273S55.56,12.411,55.431,16.333Z"/><path class="cls-239" d="M55.388,16.326c-.128,3.889-2.571,6.674-5.456,6.221s-5.122-3.973-4.994-7.862,2.571-6.674,5.456-6.221S55.515,12.437,55.388,16.326Z"/><ellipse class="cls-240" cx="50.163" cy="15.505" rx="5.157" ry="7.051" transform="translate(-1.439 5.81) rotate(-6.536)"/><ellipse class="cls-241" cx="50.163" cy="15.505" rx="5.113" ry="6.991" transform="translate(-1.439 5.81) rotate(-6.535)"/><path class="cls-242" d="M55.256,16.305c-.125,3.791-2.506,6.506-5.319,6.064S44.945,18.5,45.07,14.706,47.575,8.2,50.388,8.642,55.38,12.514,55.256,16.305Z"/><ellipse class="cls-243" cx="50.163" cy="15.505" rx="5.026" ry="6.871" transform="translate(-1.439 5.81) rotate(-6.536)"/><path class="cls-244" d="M55.168,16.291c-.122,3.726-2.462,6.394-5.227,5.96s-4.906-3.806-4.783-7.532S47.62,8.326,50.384,8.76,55.29,12.566,55.168,16.291Z"/><ellipse class="cls-245" cx="50.163" cy="15.505" rx="4.938" ry="6.752" transform="translate(-1.439 5.81) rotate(-6.535)"/><path class="cls-246" d="M55.08,16.278c-.12,3.66-2.419,6.281-5.135,5.854s-4.82-3.739-4.7-7.4,2.42-6.281,5.135-5.855S55.2,12.618,55.08,16.278Z"/><ellipse class="cls-247" cx="50.163" cy="15.505" rx="4.851" ry="6.632" transform="translate(-1.439 5.81) rotate(-6.535)"/><ellipse class="cls-248" cx="50.163" cy="15.505" rx="4.807" ry="6.573" transform="translate(-1.439 5.81) rotate(-6.536)"/><ellipse class="cls-249" cx="50.163" cy="15.505" rx="4.764" ry="6.513" transform="translate(-1.439 5.811) rotate(-6.536)"/><ellipse class="cls-250" cx="50.163" cy="15.505" rx="4.72" ry="6.453" transform="translate(-1.439 5.81) rotate(-6.535)"/><ellipse class="cls-251" cx="50.163" cy="15.505" rx="4.676" ry="6.393" transform="translate(-1.439 5.81) rotate(-6.536)"/><ellipse class="cls-252" cx="50.163" cy="15.505" rx="4.633" ry="6.334" transform="translate(-1.439 5.811) rotate(-6.536)"/><ellipse class="cls-253" cx="50.163" cy="15.505" rx="4.589" ry="6.274" transform="translate(-1.439 5.81) rotate(-6.536)"/><ellipse class="cls-254" cx="50.163" cy="15.505" rx="4.545" ry="6.214" transform="translate(-1.439 5.81) rotate(-6.535)"/><path class="cls-255" d="M54.685,16.216c-.111,3.365-2.225,5.776-4.722,5.384S45.53,18.161,45.641,14.8s2.224-5.776,4.722-5.384S54.8,12.85,54.685,16.216Z"/><path class="cls-256" d="M54.641,16.209c-.109,3.333-2.2,5.72-4.676,5.332s-4.39-3.406-4.281-6.739,2.2-5.72,4.677-5.332S54.751,12.875,54.641,16.209Z"/><path class="cls-257" d="M54.6,16.2c-.108,3.3-2.181,5.664-4.63,5.28s-4.347-3.373-4.239-6.673,2.182-5.664,4.631-5.28S54.706,12.9,54.6,16.2Z"/><ellipse class="cls-258" cx="50.163" cy="15.505" rx="4.37" ry="5.975" transform="translate(-1.439 5.81) rotate(-6.535)"/><ellipse class="cls-259" cx="50.163" cy="15.505" rx="4.327" ry="5.915" transform="translate(-1.439 5.811) rotate(-6.536)"/><ellipse class="cls-260" cx="50.163" cy="15.505" rx="4.283" ry="5.856" transform="translate(-1.439 5.81) rotate(-6.536)"/><ellipse class="cls-261" cx="50.163" cy="15.505" rx="4.239" ry="5.796" transform="translate(-1.439 5.81) rotate(-6.535)"/><path class="cls-262" d="M54.378,16.167c-.1,3.137-2.074,5.384-4.4,5.019s-4.131-3.2-4.028-6.343,2.074-5.384,4.4-5.018S54.481,13.03,54.378,16.167Z"/><path class="cls-263" d="M54.334,16.16c-.1,3.105-2.052,5.328-4.356,4.967s-4.088-3.172-3.986-6.277,2.052-5.328,4.355-4.966S54.436,13.056,54.334,16.16Z"/><path class="cls-264" d="M54.29,16.153c-.1,3.072-2.031,5.272-4.31,4.914s-4.045-3.138-3.944-6.21,2.03-5.272,4.309-4.914S54.391,13.082,54.29,16.153Z"/><ellipse class="cls-265" cx="50.163" cy="15.505" rx="4.064" ry="5.557" transform="translate(-1.439 5.81) rotate(-6.536)"/><path class="cls-266" d="M54.2,16.14c-.1,3.006-1.987,5.159-4.218,4.809s-3.959-3.072-3.861-6.078,1.988-5.16,4.219-4.809S54.3,13.133,54.2,16.14Z"/><path class="cls-267" d="M54.158,16.133c-.1,2.974-1.965,5.1-4.172,4.757s-3.916-3.038-3.819-6.012,1.966-5.1,4.173-4.757S54.256,13.159,54.158,16.133Z"/><path class="cls-268" d="M54.114,16.126c-.1,2.941-1.944,5.047-4.126,4.7s-3.873-3-3.777-5.946,1.944-5.048,4.127-4.7S54.211,13.185,54.114,16.126Z"/><path class="cls-269" d="M54.07,16.119c-.095,2.908-1.922,4.991-4.08,4.652s-3.83-2.971-3.735-5.879,1.923-4.992,4.081-4.653S54.166,13.211,54.07,16.119Z"/><path class="cls-270" d="M54.026,16.112c-.094,2.876-1.9,4.935-4.034,4.6S46.205,17.774,46.3,14.9s1.9-4.936,4.035-4.6S54.121,13.236,54.026,16.112Z"/><ellipse class="cls-271" cx="50.163" cy="15.505" rx="3.802" ry="5.198" transform="translate(-1.439 5.81) rotate(-6.536)"/><ellipse class="cls-272" cx="50.163" cy="15.505" rx="3.758" ry="5.139" transform="translate(-1.439 5.81) rotate(-6.536)"/><path class="cls-273" d="M53.9,16.091c-.091,2.778-1.836,4.767-3.9,4.444S46.34,17.7,46.431,14.919s1.836-4.767,3.9-4.443S53.986,13.314,53.9,16.091Z"/><path class="cls-274" d="M53.851,16.084C53.761,18.83,52.036,20.8,50,20.476s-3.615-2.8-3.525-5.55,1.814-4.711,3.851-4.391S53.941,13.34,53.851,16.084Z"/><path class="cls-275" d="M53.807,16.078c-.089,2.712-1.793,4.655-3.806,4.338s-3.571-2.771-3.482-5.483,1.792-4.655,3.805-4.339S53.9,13.365,53.807,16.078Z"/><ellipse class="cls-276" cx="50.163" cy="15.505" rx="3.584" ry="4.9" transform="translate(-1.439 5.81) rotate(-6.535)"/><ellipse class="cls-277" cx="50.163" cy="15.505" rx="3.54" ry="4.84" transform="translate(-1.439 5.81) rotate(-6.535)"/><path class="cls-278" d="M53.675,16.057c-.086,2.614-1.728,4.487-3.668,4.182s-3.442-2.671-3.357-5.285,1.728-4.487,3.668-4.182S53.761,13.443,53.675,16.057Z"/><path class="cls-279" d="M53.631,16.05c-.084,2.582-1.706,4.431-3.622,4.13s-3.4-2.638-3.315-5.219,1.707-4.431,3.622-4.13S53.716,13.468,53.631,16.05Z"/><path class="cls-280" d="M53.587,16.043c-.083,2.549-1.684,4.375-3.576,4.078s-3.357-2.605-3.273-5.153,1.685-4.375,3.576-4.078S53.671,13.494,53.587,16.043Z"/><path class="cls-281" d="M53.543,16.036c-.082,2.517-1.663,4.319-3.53,4.025s-3.314-2.57-3.231-5.087,1.663-4.318,3.53-4.025S53.626,13.52,53.543,16.036Z"/><path class="cls-282" d="M53.5,16.029c-.082,2.484-1.642,4.263-3.485,3.973s-3.271-2.537-3.189-5.021,1.642-4.262,3.484-3.973S53.581,13.546,53.5,16.029Z"/><path class="cls-283" d="M53.456,16.022c-.081,2.451-1.62,4.207-3.439,3.921s-3.228-2.5-3.147-4.955,1.62-4.206,3.439-3.92S53.536,13.572,53.456,16.022Z"/><path class="cls-284" d="M53.412,16.016c-.08,2.418-1.6,4.15-3.393,3.868s-3.185-2.471-3.1-4.889,1.6-4.15,3.393-3.868S53.491,13.6,53.412,16.016Z"/><path class="cls-285" d="M53.368,16.009c-.078,2.385-1.577,4.094-3.347,3.816S46.879,17.388,46.958,15s1.577-4.094,3.347-3.816S53.446,13.623,53.368,16.009Z"/><ellipse class="cls-286" cx="50.163" cy="15.505" rx="3.147" ry="4.302" transform="translate(-1.439 5.81) rotate(-6.535)"/><path class="cls-287" d="M53.28,16c-.076,2.32-1.534,3.982-3.255,3.711s-3.056-2.37-2.979-4.69S48.579,11.034,50.3,11.3,53.356,13.675,53.28,16Z"/><path class="cls-288" d="M53.236,15.988c-.075,2.288-1.512,3.926-3.209,3.659s-3.013-2.337-2.938-4.624S48.6,11.1,50.3,11.363,53.311,13.7,53.236,15.988Z"/><path class="cls-289" d="M53.192,15.981c-.074,2.255-1.49,3.87-3.163,3.607s-2.97-2.3-2.9-4.558,1.491-3.87,3.164-3.607S53.266,13.726,53.192,15.981Z"/><ellipse class="cls-290" cx="50.163" cy="15.505" rx="2.972" ry="4.063" transform="translate(-1.439 5.809) rotate(-6.535)"/><path class="cls-291" d="M53.1,15.967c-.071,2.19-1.447,3.758-3.071,3.5s-2.884-2.237-2.812-4.427,1.447-3.757,3.072-3.5S53.176,13.778,53.1,15.967Z"/><path class="cls-292" d="M53.061,15.96c-.071,2.157-1.426,3.7-3.026,3.451s-2.841-2.2-2.77-4.361,1.426-3.7,3.026-3.45S53.131,13.8,53.061,15.96Z"/><path class="cls-293" d="M53.017,15.953c-.07,2.125-1.4,3.646-2.981,3.4s-2.8-2.17-2.727-4.294,1.4-3.645,2.98-3.4S53.086,13.829,53.017,15.953Z"/><path class="cls-294" d="M52.973,15.947c-.069,2.091-1.383,3.589-2.935,3.345s-2.754-2.137-2.685-4.228,1.382-3.589,2.934-3.346S53.041,13.855,52.973,15.947Z"/><path class="cls-295" d="M52.929,15.94c-.068,2.058-1.361,3.533-2.889,3.293s-2.711-2.1-2.643-4.162,1.361-3.533,2.888-3.293S53,13.881,52.929,15.94Z"/><path class="cls-296" d="M52.885,15.933c-.067,2.026-1.339,3.477-2.843,3.241s-2.668-2.07-2.6-4.1,1.339-3.477,2.842-3.241S52.951,13.907,52.885,15.933Z"/><path class="cls-297" d="M52.841,15.926c-.065,1.993-1.318,3.421-2.8,3.189s-2.625-2.037-2.559-4.03,1.317-3.421,2.8-3.189S52.906,13.933,52.841,15.926Z"/><ellipse class="cls-298" cx="50.163" cy="15.505" rx="2.622" ry="3.585" transform="translate(-1.439 5.811) rotate(-6.536)"/><path class="cls-299" d="M52.753,15.912c-.063,1.928-1.274,3.309-2.7,3.084s-2.539-1.969-2.476-3.9,1.275-3.309,2.7-3.085S52.817,13.984,52.753,15.912Z"/><path class="cls-300" d="M52.709,15.905c-.062,1.9-1.253,3.253-2.659,3.032s-2.5-1.936-2.434-3.832,1.253-3.252,2.66-3.031S52.772,14.01,52.709,15.905Z"/><path class="cls-301" d="M52.665,15.9c-.061,1.863-1.231,3.2-2.613,2.98s-2.453-1.9-2.392-3.766,1.231-3.2,2.614-2.979S52.727,14.036,52.665,15.9Z"/><path class="cls-302" d="M52.621,15.891c-.06,1.83-1.209,3.141-2.567,2.928s-2.41-1.87-2.35-3.7,1.21-3.14,2.568-2.927S52.682,14.061,52.621,15.891Z"/><path class="cls-303" d="M52.578,15.885c-.059,1.8-1.188,3.084-2.522,2.875s-2.367-1.837-2.308-3.634,1.188-3.084,2.522-2.875S52.637,14.087,52.578,15.885Z"/><path class="cls-304" d="M52.534,15.878c-.058,1.764-1.167,3.028-2.476,2.823s-2.324-1.8-2.266-3.568,1.166-3.028,2.476-2.823S52.592,14.113,52.534,15.878Z"/><path class="cls-305" d="M52.49,15.871c-.057,1.732-1.145,2.972-2.43,2.77s-2.281-1.769-2.224-3.5,1.145-2.973,2.43-2.771S52.547,14.139,52.49,15.871Z"/><path class="cls-306" d="M52.446,15.864c-.056,1.7-1.123,2.916-2.384,2.718s-2.238-1.736-2.182-3.435S49,12.23,50.264,12.429,52.5,14.165,52.446,15.864Z"/><path class="cls-307" d="M52.4,15.857c-.055,1.667-1.1,2.86-2.338,2.666s-2.2-1.7-2.14-3.369,1.1-2.861,2.338-2.666S52.457,14.19,52.4,15.857Z"/><ellipse class="cls-308" cx="50.163" cy="15.505" rx="2.185" ry="2.988" transform="translate(-1.439 5.81) rotate(-6.536)"/><ellipse class="cls-309" cx="50.163" cy="15.505" rx="2.141" ry="2.928" transform="translate(-1.439 5.81) rotate(-6.536)"/><path class="cls-310" d="M52.27,15.836c-.051,1.569-1.037,2.692-2.2,2.509s-2.066-1.6-2.015-3.171,1.037-2.692,2.2-2.509S52.322,14.268,52.27,15.836Z"/><path class="cls-311" d="M52.226,15.829c-.05,1.536-1.015,2.636-2.155,2.457s-2.022-1.569-1.972-3.105,1.015-2.636,2.155-2.457S52.277,14.294,52.226,15.829Z"/><ellipse class="cls-312" cx="50.163" cy="15.505" rx="2.01" ry="2.749" transform="translate(-1.439 5.81) rotate(-6.535)"/><path class="cls-313" d="M52.139,15.816c-.049,1.47-.973,2.523-2.064,2.352s-1.936-1.5-1.888-2.973.972-2.524,2.063-2.352S52.187,14.345,52.139,15.816Z"/><path class="cls-314" d="M52.1,15.809c-.048,1.438-.951,2.467-2.018,2.3S48.184,16.64,48.231,15.2s.95-2.468,2.017-2.3S52.142,14.371,52.1,15.809Z"/><path class="cls-315" d="M52.051,15.8c-.046,1.405-.929,2.411-1.972,2.248a2.661,2.661,0,0,1-1.8-2.841c.046-1.4.929-2.412,1.971-2.248A2.66,2.66,0,0,1,52.051,15.8Z"/><path class="cls-316" d="M52.007,15.8c-.045,1.372-.907,2.355-1.926,2.195a2.6,2.6,0,0,1-1.762-2.774c.045-1.373.907-2.356,1.925-2.2A2.6,2.6,0,0,1,52.007,15.8Z"/><path class="cls-317" d="M51.963,15.788c-.044,1.34-.886,2.3-1.88,2.143a2.536,2.536,0,0,1-1.72-2.708c.044-1.34.885-2.3,1.879-2.144A2.536,2.536,0,0,1,51.963,15.788Z"/><path class="cls-318" d="M51.919,15.781c-.043,1.307-.864,2.243-1.834,2.091a2.473,2.473,0,0,1-1.678-2.642c.043-1.308.864-2.244,1.834-2.091A2.474,2.474,0,0,1,51.919,15.781Z"/><path class="cls-319" d="M51.875,15.774c-.042,1.275-.842,2.187-1.788,2.039a2.414,2.414,0,0,1-1.637-2.577c.042-1.274.843-2.187,1.789-2.038A2.412,2.412,0,0,1,51.875,15.774Z"/><path class="cls-320" d="M51.831,15.767c-.041,1.242-.821,2.131-1.742,1.987a2.353,2.353,0,0,1-1.595-2.511c.041-1.241.821-2.131,1.743-1.986A2.351,2.351,0,0,1,51.831,15.767Z"/><path class="cls-321" d="M51.787,15.76c-.039,1.21-.8,2.076-1.7,1.935a2.291,2.291,0,0,1-1.553-2.445c.04-1.209.8-2.075,1.7-1.934A2.288,2.288,0,0,1,51.787,15.76Z"/><path class="cls-322" d="M51.743,15.754c-.038,1.176-.777,2.019-1.65,1.881a2.227,2.227,0,0,1-1.511-2.378c.039-1.176.778-2.019,1.651-1.882A2.226,2.226,0,0,1,51.743,15.754Z"/><path class="cls-323" d="M51.7,15.747c-.037,1.143-.756,1.963-1.6,1.829a2.165,2.165,0,0,1-1.469-2.312c.038-1.144.756-1.963,1.605-1.83A2.166,2.166,0,0,1,51.7,15.747Z"/><path class="cls-324" d="M51.656,15.74c-.037,1.111-.735,1.907-1.559,1.777a2.1,2.1,0,0,1-1.427-2.246c.036-1.111.734-1.907,1.559-1.777A2.1,2.1,0,0,1,51.656,15.74Z"/><path class="cls-325" d="M51.612,15.733c-.036,1.078-.713,1.851-1.513,1.725a2.04,2.04,0,0,1-1.385-2.18c.035-1.079.713-1.851,1.513-1.725A2.041,2.041,0,0,1,51.612,15.733Z"/><path class="cls-326" d="M51.568,15.726c-.035,1.046-.691,1.8-1.467,1.673a1.979,1.979,0,0,1-1.343-2.114c.034-1.046.691-1.795,1.467-1.673A1.98,1.98,0,0,1,51.568,15.726Z"/><path class="cls-327" d="M51.524,15.719c-.033,1.013-.67,1.739-1.421,1.621a1.916,1.916,0,0,1-1.3-2.048c.033-1.013.669-1.739,1.421-1.621A1.917,1.917,0,0,1,51.524,15.719Z"/><path class="cls-328" d="M51.48,15.712c-.032.981-.648,1.683-1.375,1.568A1.853,1.853,0,0,1,48.846,15.3c.032-.981.648-1.683,1.375-1.569A1.855,1.855,0,0,1,51.48,15.712Z"/><path class="cls-329" d="M51.436,15.705c-.031.948-.626,1.627-1.33,1.516a1.792,1.792,0,0,1-1.216-1.916c.031-.947.626-1.626,1.329-1.516A1.8,1.8,0,0,1,51.436,15.705Z"/><path class="cls-330" d="M51.392,15.7c-.03.915-.605,1.571-1.284,1.464a1.732,1.732,0,0,1-1.175-1.85c.03-.915.6-1.57,1.284-1.463A1.73,1.73,0,0,1,51.392,15.7Z"/><ellipse class="cls-331" cx="50.163" cy="15.505" rx="1.18" ry="1.613" transform="translate(-1.439 5.81) rotate(-6.535)"/><path class="cls-332" d="M51.3,15.685c-.028.849-.561,1.458-1.192,1.359a1.609,1.609,0,0,1-1.091-1.718c.028-.85.562-1.458,1.192-1.359A1.608,1.608,0,0,1,51.3,15.685Z"/><path class="cls-333" d="M51.26,15.678c-.026.817-.54,1.4-1.146,1.307a1.547,1.547,0,0,1-1.049-1.652c.027-.817.54-1.4,1.146-1.307A1.546,1.546,0,0,1,51.26,15.678Z"/><path class="cls-334" d="M51.217,15.671c-.026.784-.519,1.346-1.1,1.254a1.483,1.483,0,0,1-1.007-1.585c.026-.784.518-1.346,1.1-1.255A1.487,1.487,0,0,1,51.217,15.671Z"/><path class="cls-335" d="M51.173,15.664c-.025.752-.5,1.29-1.055,1.2a1.421,1.421,0,0,1-.965-1.519c.025-.752.5-1.29,1.054-1.2A1.424,1.424,0,0,1,51.173,15.664Z"/><path class="cls-336" d="M51.129,15.657c-.024.719-.476,1.234-1.009,1.15a1.36,1.36,0,0,1-.923-1.453c.023-.719.475-1.234,1.009-1.15A1.361,1.361,0,0,1,51.129,15.657Z"/><path class="cls-337" d="M51.085,15.65c-.023.686-.454,1.178-.963,1.1a1.3,1.3,0,0,1-.881-1.387c.022-.687.453-1.178.963-1.1A1.3,1.3,0,0,1,51.085,15.65Z"/><path class="cls-338" d="M51.041,15.643c-.022.654-.432,1.122-.917,1.046a1.237,1.237,0,0,1-.839-1.322c.021-.653.432-1.121.917-1.045A1.237,1.237,0,0,1,51.041,15.643Z"/><path class="cls-339" d="M51,15.636c-.02.621-.41,1.066-.871.994a1.175,1.175,0,0,1-.8-1.256c.02-.621.41-1.065.871-.993A1.176,1.176,0,0,1,51,15.636Z"/><path class="cls-340" d="M50.953,15.629c-.019.589-.389,1.01-.825.941a1.111,1.111,0,0,1-.755-1.189c.019-.588.388-1.009.825-.941A1.114,1.114,0,0,1,50.953,15.629Z"/><path class="cls-341" d="M50.909,15.623c-.018.555-.367.953-.779.888a1.052,1.052,0,0,1-.714-1.123c.019-.555.368-.953.78-.889A1.053,1.053,0,0,1,50.909,15.623Z"/><path class="cls-342" d="M50.865,15.616c-.017.523-.345.9-.733.836A.99.99,0,0,1,49.46,15.4c.017-.523.346-.9.734-.836A.989.989,0,0,1,50.865,15.616Z"/><path class="cls-343" d="M50.821,15.609c-.016.49-.324.841-.687.784a.928.928,0,0,1-.63-.991c.016-.49.324-.841.688-.784A.927.927,0,0,1,50.821,15.609Z"/><path class="cls-344" d="M50.777,15.6c-.015.457-.3.785-.641.732a.867.867,0,0,1-.588-.925c.015-.458.3-.785.642-.732A.866.866,0,0,1,50.777,15.6Z"/><path class="cls-345" d="M50.734,15.6c-.014.425-.281.729-.6.68a.8.8,0,0,1-.546-.859c.014-.425.281-.729.6-.68A.805.805,0,0,1,50.734,15.6Z"/><path class="cls-346" d="M50.69,15.588c-.013.392-.26.673-.551.627a.74.74,0,0,1-.5-.792c.013-.393.259-.673.55-.628A.743.743,0,0,1,50.69,15.588Z"/><path class="cls-347" d="M50.646,15.581c-.012.36-.238.617-.505.575a.68.68,0,0,1-.461-.726c.012-.36.237-.617.5-.576A.681.681,0,0,1,50.646,15.581Z"/><path class="cls-348" d="M50.6,15.574c-.011.327-.216.561-.459.523a.619.619,0,0,1-.419-.661c.01-.326.216-.56.458-.522A.618.618,0,0,1,50.6,15.574Z"/><path class="cls-349" d="M50.558,15.567c-.01.294-.194.5-.413.471a.557.557,0,0,1-.377-.6c.009-.294.194-.5.412-.47A.555.555,0,0,1,50.558,15.567Z"/><path class="cls-350" d="M50.514,15.56c-.009.262-.173.449-.367.419a.5.5,0,0,1-.335-.529c.008-.261.172-.449.366-.418A.494.494,0,0,1,50.514,15.56Z"/><path class="cls-351" d="M50.47,15.554c-.007.228-.151.392-.321.366a.434.434,0,0,1-.294-.463c.008-.229.152-.393.321-.366A.433.433,0,0,1,50.47,15.554Z"/><path class="cls-352" d="M50.426,15.547c-.006.2-.129.336-.275.313a.371.371,0,0,1-.252-.4c.007-.2.13-.337.275-.314A.371.371,0,0,1,50.426,15.547Z"/><path class="cls-353" d="M50.382,15.54c0,.163-.108.28-.229.261a.31.31,0,0,1-.21-.33c.006-.164.108-.281.229-.262A.309.309,0,0,1,50.382,15.54Z"/><path class="cls-354" d="M50.338,15.533c0,.131-.086.224-.183.209a.248.248,0,0,1-.168-.264c0-.131.087-.225.184-.209A.245.245,0,0,1,50.338,15.533Z"/><path class="cls-355" d="M50.294,15.526c0,.1-.064.168-.137.157a.186.186,0,0,1-.126-.2c0-.1.065-.169.138-.157A.184.184,0,0,1,50.294,15.526Z"/><path class="cls-356" d="M50.251,15.519c0,.065-.044.112-.092.105a.124.124,0,0,1-.084-.132c0-.066.043-.113.092-.105A.125.125,0,0,1,50.251,15.519Z"/><path class="cls-357" d="M50.207,15.512c0,.033-.022.056-.046.053a.063.063,0,0,1-.042-.067c0-.032.021-.056.046-.052A.063.063,0,0,1,50.207,15.512Z"/></g></g><path class="cls-358" d="M14.03,10.861s3.7,6.6,18.54,6.174c16.267-.47,17.9-5.527,17.9-5.527Z"/><path class="cls-359" d="M13.634,9.75c-.019,1.743,4.281,6.434,18.04,6.434s19.305-3.825,19.391-5.972C51.108,9.14,44.752,3,31.146,3.408,18.843,3.774,13.655,7.835,13.634,9.75Z"/><path class="cls-360" d="M48.375,13.067l-.031.021c-.461.28-5.88,3.443-16.974,3.081-4.853-.158-9.937.013-15.78-3.615a21.6,21.6,0,0,1,3.062-5.642.178.178,0,0,0,.013-.02A16.023,16.023,0,0,1,31.759.045c6.738,0,11.118,4.026,13.679,7.593l0,.007h0l.007.013a24.982,24.982,0,0,1,2.583,4.553c.043.1.084.2.125.295.053.137.1.246.131.335S48.35,12.992,48.375,13.067Z"/><path class="cls-357" d="M23.34,30.484c.133-2.016,3.209,1.345,3.124,2.16S23.227,32.215,23.34,30.484Z"/><path class="cls-357" d="M12.436,30.142c.067-1.028,1.636.687,1.593,1.1S12.378,31.025,12.436,30.142Z"/><path class="cls-361" d="M20.86,4.42l-.655.65C8.151,8.925,2.647,14.97,2.647,14.97A4.3,4.3,0,0,1,3.6,12.615c.1-.144.213-.287.332-.438C6.216,9.4,11.645,6.077,20.86,4.42Z"/><path class="cls-362" d="M48.375,13.067l-.031.021c-.461.28-5.88,3.443-16.974,3.081-4.853-.158-9.937.013-15.78-3.615a21.6,21.6,0,0,1,3.062-5.642,9.662,9.662,0,0,0-1.105,3.951c.06,1.766,6.159,5.312,15.023,5.312s13.576-4.06,13.967-5.128c.338-.917-.723-2.786-1.024-3.286a37.846,37.846,0,0,1,2.521,4.45c.043.1.084.2.125.295.053.137.1.246.131.335S48.35,12.992,48.375,13.067Z"/><path class="cls-363" d="M25.637,13.555c-3.21,1.87-6.141.689-6.546-2.638s1.868-7.54,5.079-9.41,6.141-.688,6.546,2.638S28.847,11.685,25.637,13.555Z"/><path class="cls-357" d="M26.3,6.062c-.475-1.213-2.3.723-2.437,1.761S26.74,7.185,26.3,6.062Z"/><path class="cls-364" d="M28.337.4S37.006-.732,41.4,5.675c4.263,6.223,1.36,9.476,1.36,9.476a47.921,47.921,0,0,0,5.619-2.084s-1.093-5.641-7.7-10.1S28.337.4,28.337.4Z"/></g></g></g></svg>