<svg xmlns="http://www.w3.org/2000/svg" xmlns:xlink="http://www.w3.org/1999/xlink" viewBox="0 0 39.205 43.311"><defs><style>.cls-1{isolation:isolate;}.cls-10,.cls-11,.cls-12,.cls-13,.cls-14,.cls-15,.cls-16,.cls-17,.cls-18,.cls-19,.cls-2,.cls-20,.cls-21,.cls-23,.cls-24,.cls-25,.cls-26,.cls-27,.cls-28,.cls-29,.cls-3,.cls-30,.cls-31,.cls-32,.cls-33,.cls-34,.cls-35,.cls-36,.cls-37,.cls-39,.cls-4,.cls-40,.cls-41,.cls-44,.cls-45,.cls-5,.cls-6,.cls-7,.cls-8,.cls-9{fill-rule:evenodd;}.cls-2{fill:url(#Áåçûìÿííûé_ãðàäèåíò_230);}.cls-3{fill:url(#Áåçûìÿííûé_ãðàäèåíò_142);}.cls-4{fill:url(#Áåçûìÿííûé_ãðàäèåíò_119);}.cls-24,.cls-25,.cls-26,.cls-36,.cls-5{opacity:0.71;}.cls-24,.cls-25,.cls-26,.cls-28,.cls-33,.cls-36,.cls-5,.cls-7{mix-blend-mode:multiply;}.cls-5{fill:url(#Áåçûìÿííûé_ãðàäèåíò_4);}.cls-6{fill:#ffac9f;}.cls-7{fill:url(#Áåçûìÿííûé_ãðàäèåíò_210);}.cls-8{fill:#fff;}.cls-9{fill:url(#Áåçûìÿííûé_ãðàäèåíò_230-2);}.cls-10{fill:url(#Áåçûìÿííûé_ãðàäèåíò_142-2);}.cls-11{fill:url(#Áåçûìÿííûé_ãðàäèåíò_162);}.cls-12,.cls-22,.cls-23,.cls-29,.cls-30,.cls-31,.cls-32,.cls-35,.cls-37,.cls-38,.cls-42,.cls-43,.cls-46{mix-blend-mode:screen;}.cls-12{fill:url(#Áåçûìÿííûé_ãðàäèåíò_13);}.cls-13{fill:url(#Áåçûìÿííûé_ãðàäèåíò_119-2);}.cls-14{fill:url(#Áåçûìÿííûé_ãðàäèåíò_72);}.cls-15{fill:url(#Áåçûìÿííûé_ãðàäèåíò_72-2);}.cls-16{fill:url(#Áåçûìÿííûé_ãðàäèåíò_91);}.cls-17{fill:url(#Áåçûìÿííûé_ãðàäèåíò_72-3);}.cls-18{fill:url(#Áåçûìÿííûé_ãðàäèåíò_220);}.cls-19{fill:url(#Áåçûìÿííûé_ãðàäèåíò_184);}.cls-20{fill:url(#Áåçûìÿííûé_ãðàäèåíò_72-4);}.cls-21{fill:url(#Áåçûìÿííûé_ãðàäèåíò_119-3);}.cls-22{fill:url(#Áåçûìÿííûé_ãðàäèåíò_158);}.cls-23,.cls-35{opacity:0.91;}.cls-23{fill:url(#Áåçûìÿííûé_ãðàäèåíò_494);}.cls-24{fill:url(#Áåçûìÿííûé_ãðàäèåíò_190);}.cls-25{fill:url(#Áåçûìÿííûé_ãðàäèåíò_195);}.cls-26{fill:url(#Áåçûìÿííûé_ãðàäèåíò_4-2);}.cls-27{fill:url(#Áåçûìÿííûé_ãðàäèåíò_184-2);}.cls-28{fill:url(#Áåçûìÿííûé_ãðàäèåíò_210-2);}.cls-29{fill:url(#Áåçûìÿííûé_ãðàäèåíò_494-2);}.cls-30{fill:url(#Áåçûìÿííûé_ãðàäèåíò_494-3);}.cls-31{fill:url(#Áåçûìÿííûé_ãðàäèåíò_494-4);}.cls-32,.cls-37,.cls-43{opacity:0.5;}.cls-32{fill:url(#Áåçûìÿííûé_ãðàäèåíò_494-5);}.cls-33{fill:url(#Áåçûìÿííûé_ãðàäèåíò_214);}.cls-34{fill:#72ffff;}.cls-35{fill:url(#Áåçûìÿííûé_ãðàäèåíò_494-6);}.cls-36{fill:#ddcce0;}.cls-37{fill:url(#Áåçûìÿííûé_ãðàäèåíò_494-7);}.cls-38{fill:url(#Áåçûìÿííûé_ãðàäèåíò_223);}.cls-39{fill:url(#Áåçûìÿííûé_ãðàäèåíò_242);}.cls-40{fill:url(#Áåçûìÿííûé_ãðàäèåíò_119-4);}.cls-41{fill:url(#Áåçûìÿííûé_ãðàäèåíò_119-5);}.cls-42{fill:url(#Áåçûìÿííûé_ãðàäèåíò_249);}.cls-43{fill:url(#Áåçûìÿííûé_ãðàäèåíò_249-2);}.cls-44{fill:url(#Áåçûìÿííûé_ãðàäèåíò_242-2);}.cls-45{fill:url(#Áåçûìÿííûé_ãðàäèåíò_242-3);}.cls-46{fill:url(#Áåçûìÿííûé_ãðàäèåíò_249-3);}</style><linearGradient id="Áåçûìÿííûé_ãðàäèåíò_230" x1="-453.822" y1="42.299" x2="-453.822" y2="25.769" gradientTransform="matrix(-1, 0, 0, 1, -419.513, 0)" gradientUnits="userSpaceOnUse"><stop offset="0" stop-color="#860057"/><stop offset="0.026" stop-color="#8c0555"/><stop offset="0.186" stop-color="#a9224b"/><stop offset="0.355" stop-color="#c13842"/><stop offset="0.536" stop-color="#d1483d"/><stop offset="0.736" stop-color="#db5139"/><stop offset="0.994" stop-color="#de5438"/></linearGradient><linearGradient id="Áåçûìÿííûé_ãðàäèåíò_142" x1="-450.986" y1="42.299" x2="-450.986" y2="25.769" gradientTransform="matrix(-1, 0, 0, 1, -419.513, 0)" gradientUnits="userSpaceOnUse"><stop offset="0" stop-color="#720043"/><stop offset="0.058" stop-color="#740547"/><stop offset="0.322" stop-color="#7b1557"/><stop offset="0.616" stop-color="#801f60"/><stop offset="0.994" stop-color="#812263"/></linearGradient><linearGradient id="Áåçûìÿííûé_ãðàäèåíò_119" x1="-449.627" y1="33.724" x2="-449.627" y2="26.899" gradientTransform="matrix(-1, 0, 0, 1, -419.513, 0)" gradientUnits="userSpaceOnUse"><stop offset="0" stop-color="#5b58a3"/><stop offset="0.439" stop-color="#5f59a3"/><stop offset="0.848" stop-color="#6a5ca2"/><stop offset="0.994" stop-color="#705ea2"/></linearGradient><linearGradient id="Áåçûìÿííûé_ãðàäèåíò_4" x1="-451.207" y1="42.299" x2="-451.207" y2="25.769" gradientTransform="matrix(-1, 0, 0, 1, -419.513, 0)" gradientUnits="userSpaceOnUse"><stop offset="0" stop-color="#9a69a4"/><stop offset="0.401" stop-color="#c6abcc"/><stop offset="0.807" stop-color="#efe7f1"/><stop offset="1" stop-color="#fff"/></linearGradient><linearGradient id="Áåçûìÿííûé_ãðàäèåíò_210" x1="-448.684" y1="33.338" x2="-448.684" y2="26.899" gradientTransform="matrix(-1, 0, 0, 1, -419.513, 0)" gradientUnits="userSpaceOnUse"><stop offset="0" stop-color="#b3a6db"/><stop offset="0.413" stop-color="#a685be"/><stop offset="0.766" stop-color="#9d71ab"/><stop offset="1" stop-color="#9a69a4"/></linearGradient><linearGradient id="Áåçûìÿííûé_ãðàäèåíò_230-2" x1="4.897" y1="42.299" x2="4.897" y2="25.769" gradientTransform="matrix(1, 0, 0, 1, 0, 0)" xlink:href="#Áåçûìÿííûé_ãðàäèåíò_230"/><linearGradient id="Áåçûìÿííûé_ãðàäèåíò_142-2" x1="7.732" y1="42.299" x2="7.732" y2="25.769" gradientTransform="matrix(1, 0, 0, 1, 0, 0)" xlink:href="#Áåçûìÿííûé_ãðàäèåíò_142"/><radialGradient id="Áåçûìÿííûé_ãðàäèåíò_162" cx="16.733" cy="16.68" r="21.437" gradientUnits="userSpaceOnUse"><stop offset="0" stop-color="#ffd5bd"/><stop offset="0.103" stop-color="#f8d0bf"/><stop offset="0.253" stop-color="#e5c2c6"/><stop offset="0.43" stop-color="#c5abd2"/><stop offset="0.627" stop-color="#9a8ce1"/><stop offset="0.754" stop-color="#7a75ed"/><stop offset="0.975" stop-color="#7a82ed"/></radialGradient><linearGradient id="Áåçûìÿííûé_ãðàäèåíò_13" x1="20.295" y1="34.223" x2="20.295" y2="8.471" gradientUnits="userSpaceOnUse"><stop offset="0" stop-color="#623964"/><stop offset="1" stop-color="#fff"/></linearGradient><linearGradient id="Áåçûìÿííûé_ãðàäèåíò_119-2" x1="13.378" y1="29.568" x2="25.531" y2="14.669" gradientTransform="matrix(1, 0, 0, 1, 0, 0)" xlink:href="#Áåçûìÿííûé_ãðàäèåíò_119"/><radialGradient id="Áåçûìÿííûé_ãðàäèåíò_72" cx="16.547" cy="7.596" r="7.154" gradientUnits="userSpaceOnUse"><stop offset="0" stop-color="#b1b5bd"/><stop offset="0.137" stop-color="#abaebd"/><stop offset="0.336" stop-color="#9b9bbf"/><stop offset="0.57" stop-color="#817cc0"/><stop offset="0.754" stop-color="#685ec2"/><stop offset="0.975" stop-color="#7a75d8"/></radialGradient><radialGradient id="Áåçûìÿííûé_ãðàäèåíò_72-2" cx="17.896" cy="6.647" r="4.339" xlink:href="#Áåçûìÿííûé_ãðàäèåíò_72"/><radialGradient id="Áåçûìÿííûé_ãðàäèåíò_91" cx="15.878" cy="15.704" r="11.58" gradientUnits="userSpaceOnUse"><stop offset="0.025" stop-color="#6a64b8"/><stop offset="0.939" stop-color="#5a4fbc"/></radialGradient><radialGradient id="Áåçûìÿííûé_ãðàäèåíò_72-3" cx="15.881" cy="15.317" r="11.58" xlink:href="#Áåçûìÿííûé_ãðàäèåíò_72"/><radialGradient id="Áåçûìÿííûé_ãðàäèåíò_220" cx="20.055" cy="22.477" r="8.09" gradientUnits="userSpaceOnUse"><stop offset="0.025" stop-color="#1b95b8"/><stop offset="0.939" stop-color="#5a4fbc"/></radialGradient><radialGradient id="Áåçûìÿííûé_ãðàäèåíò_184" cx="19.718" cy="20.084" r="4.628" gradientUnits="userSpaceOnUse"><stop offset="0.006" stop-color="#60dbff"/><stop offset="0.182" stop-color="#56d6ff"/><stop offset="0.479" stop-color="#3ccaff"/><stop offset="0.857" stop-color="#12b6ff"/><stop offset="1" stop-color="#00aeff"/></radialGradient><radialGradient id="Áåçûìÿííûé_ãðàäèåíò_72-4" cx="15.318" cy="35.083" r="10.171" xlink:href="#Áåçûìÿííûé_ãðàäèåíò_72"/><linearGradient id="Áåçûìÿííûé_ãðàäèåíò_119-3" x1="9.092" y1="33.724" x2="9.092" y2="26.899" gradientTransform="matrix(1, 0, 0, 1, 0, 0)" xlink:href="#Áåçûìÿííûé_ãðàäèåíò_119"/><radialGradient id="Áåçûìÿííûé_ãðàäèåíò_158" cx="-3.251" cy="-82.423" r="6.258" gradientTransform="matrix(0, 0.826, -1.319, 0, -96.223, 17.856)" gradientUnits="userSpaceOnUse"><stop offset="0.006" stop-color="#f4ff09"/><stop offset="0.066" stop-color="#dfe908"/><stop offset="0.267" stop-color="#9ca306"/><stop offset="0.457" stop-color="#646904"/><stop offset="0.631" stop-color="#393c02"/><stop offset="0.785" stop-color="#1a1b01"/><stop offset="0.913" stop-color="#070700"/><stop offset="1"/></radialGradient><radialGradient id="Áåçûìÿííûé_ãðàäèåíò_494" cx="11.905" cy="19.232" r="8.145" gradientUnits="userSpaceOnUse"><stop offset="0" stop-color="#fff"/><stop offset="1" stop-color="#623964"/></radialGradient><linearGradient id="Áåçûìÿííûé_ãðàäèåíò_190" x1="20.004" y1="34.222" x2="20.004" y2="10.212" gradientUnits="userSpaceOnUse"><stop offset="0" stop-color="#9a69a4"/><stop offset="0.039" stop-color="#a87eb1"/><stop offset="0.113" stop-color="#bfa1c6"/><stop offset="0.196" stop-color="#d3bed8"/><stop offset="0.286" stop-color="#e3d6e6"/><stop offset="0.388" stop-color="#f0e8f1"/><stop offset="0.509" stop-color="#f8f5f9"/><stop offset="0.667" stop-color="#fefdfe"/><stop offset="1" stop-color="#fff"/></linearGradient><linearGradient id="Áåçûìÿííûé_ãðàäèåíò_195" x1="19.897" y1="35.221" x2="19.897" y2="34.223" gradientUnits="userSpaceOnUse"><stop offset="0" stop-color="#fff"/><stop offset="0.197" stop-color="#e4d6e6"/><stop offset="0.456" stop-color="#c4a8ca"/><stop offset="0.686" stop-color="#ad85b5"/><stop offset="0.875" stop-color="#9f71a9"/><stop offset="1" stop-color="#9a69a4"/></linearGradient><linearGradient id="Áåçûìÿííûé_ãðàäèåíò_4-2" x1="7.511" y1="42.299" x2="7.511" y2="25.769" gradientTransform="matrix(1, 0, 0, 1, 0, 0)" xlink:href="#Áåçûìÿííûé_ãðàäèåíò_4"/><radialGradient id="Áåçûìÿííûé_ãðàäèåíò_184-2" cx="20.023" cy="37.676" r="5.552" xlink:href="#Áåçûìÿííûé_ãðàäèåíò_184"/><linearGradient id="Áåçûìÿííûé_ãðàäèåíò_210-2" x1="10.034" y1="33.338" x2="10.034" y2="26.899" gradientTransform="matrix(1, 0, 0, 1, 0, 0)" xlink:href="#Áåçûìÿííûé_ãðàäèåíò_210"/><radialGradient id="Áåçûìÿííûé_ãðàäèåíò_494-2" cx="17.348" cy="7.945" r="1.168" xlink:href="#Áåçûìÿííûé_ãðàäèåíò_494"/><radialGradient id="Áåçûìÿííûé_ãðàäèåíò_494-3" cx="18.57" cy="6.891" r="0.944" xlink:href="#Áåçûìÿííûé_ãðàäèåíò_494"/><radialGradient id="Áåçûìÿííûé_ãðàäèåíò_494-4" cx="16.744" cy="35.046" r="1.258" xlink:href="#Áåçûìÿííûé_ãðàäèåíò_494"/><radialGradient id="Áåçûìÿííûé_ãðàäèåíò_494-5" cx="26.182" cy="27.165" r="6.49" xlink:href="#Áåçûìÿííûé_ãðàäèåíò_494"/><linearGradient id="Áåçûìÿííûé_ãðàäèåíò_214" x1="19.802" y1="20.803" x2="19.802" y2="13.822" gradientUnits="userSpaceOnUse"><stop offset="0" stop-color="#e7e3f4"/><stop offset="0.073" stop-color="#dfd6ec"/><stop offset="0.372" stop-color="#c1a7cd"/><stop offset="0.637" stop-color="#ac85b7"/><stop offset="0.856" stop-color="#9f71a9"/><stop offset="1" stop-color="#9a69a4"/></linearGradient><radialGradient id="Áåçûìÿííûé_ãðàäèåíò_494-6" cx="15.87" cy="14.866" r="2.292" xlink:href="#Áåçûìÿííûé_ãðàäèåíò_494"/><radialGradient id="Áåçûìÿííûé_ãðàäèåíò_494-7" cx="28.35" cy="11.612" r="2.45" xlink:href="#Áåçûìÿííûé_ãðàäèåíò_494"/><radialGradient id="Áåçûìÿííûé_ãðàäèåíò_223" cx="-311.513" cy="132.894" r="5.761" gradientTransform="translate(539.414 -104.869) scale(1.667 1.069)" gradientUnits="userSpaceOnUse"><stop offset="0" stop-color="#067fff"/><stop offset="0.173" stop-color="#0562c5"/><stop offset="0.399" stop-color="#034080"/><stop offset="0.602" stop-color="#022449"/><stop offset="0.777" stop-color="#011121"/><stop offset="0.915" stop-color="#000409"/><stop offset="1"/></radialGradient><linearGradient id="Áåçûìÿííûé_ãðàäèåíò_242" x1="20.037" y1="6.614" x2="20.037" y2="2.928" gradientUnits="userSpaceOnUse"><stop offset="0.006" stop-color="#ff5c63"/><stop offset="0.259" stop-color="#fd5963"/><stop offset="0.456" stop-color="#f54f61"/><stop offset="0.633" stop-color="#e93f5f"/><stop offset="0.8" stop-color="#d7275c"/><stop offset="0.957" stop-color="#c10a58"/><stop offset="1" stop-color="#ba0057"/></linearGradient><linearGradient id="Áåçûìÿííûé_ãðàäèåíò_119-4" x1="19.112" y1="29.947" x2="21.062" y2="27.556" gradientTransform="matrix(1, 0, 0, 1, 0, 0)" xlink:href="#Áåçûìÿííûé_ãðàäèåíò_119"/><linearGradient id="Áåçûìÿííûé_ãðàäèåíò_119-5" x1="-616.007" y1="29.991" x2="-613.997" y2="27.526" gradientTransform="matrix(-1, 0, 0, 1, -594.714, 0)" xlink:href="#Áåçûìÿííûé_ãðàäèåíò_119"/><radialGradient id="Áåçûìÿííûé_ãðàäèåíò_249" cx="-311.401" cy="76.48" r="3.221" gradientTransform="translate(539.414 -128.797) scale(1.667 1.758)" gradientUnits="userSpaceOnUse"><stop offset="0" stop-color="#ff2a00"/><stop offset="0.173" stop-color="#c52000"/><stop offset="0.399" stop-color="#801500"/><stop offset="0.602" stop-color="#490c00"/><stop offset="0.777" stop-color="#210500"/><stop offset="0.915" stop-color="#090100"/><stop offset="1"/></radialGradient><radialGradient id="Áåçûìÿííûé_ãðàäèåíò_249-2" cx="-305.78" cy="79.802" r="1.858" xlink:href="#Áåçûìÿííûé_ãðàäèåíò_249"/><linearGradient id="Áåçûìÿííûé_ãðàäèåíò_242-2" x1="29.353" y1="13.26" x2="29.353" y2="9.747" xlink:href="#Áåçûìÿííûé_ãðàäèåíò_242"/><linearGradient id="Áåçûìÿííûé_ãðàäèåíò_242-3" x1="20.192" y1="30.188" x2="20.192" y2="26.993" xlink:href="#Áåçûìÿííûé_ãðàäèåíò_242"/><radialGradient id="Áåçûìÿííûé_ãðàäèåíò_249-3" cx="-311.49" cy="89.488" r="2.272" xlink:href="#Áåçûìÿííûé_ãðàäèåíò_249"/></defs><title>Asset 16</title><g class="cls-1"><g id="Layer_2" data-name="Layer 2"><g id="Layer_1-2" data-name="Layer 1"><g id="aligned"><path class="cls-2" d="M33.662,25.769s4.166,2.8,5.543,6.069c0,0-3.164,7.542-9.793,10.461h0S31.16,34.551,33.662,25.769Z"/><path class="cls-3" d="M33.662,25.769h-.891s-1.9,8.019-3.487,16.514l.128.016S32.069,33.364,33.662,25.769Z"/><path class="cls-4" d="M27.988,32.7l2.126.635,1.294.386.831-3.6a5.788,5.788,0,0,1-1.625-.879,1.353,1.353,0,0,1-.265-.681,6.738,6.738,0,0,1,0-1.66C30.284,27.1,29.157,30.307,27.988,32.7Z"/><path class="cls-5" d="M33.976,39.211s-2.006-.609-2.2-5.486c0,0,1.358-5.011,1.886-7.956l-1.423,4.349L30.982,33.6l-1.57,8.7A12.555,12.555,0,0,0,33.976,39.211Z"/><path class="cls-6" d="M39.205,31.838a28.305,28.305,0,0,0-5.543-6.069S37.879,28.407,39.205,31.838Z"/><path class="cls-7" d="M27.988,32.7l2.126.635.235-4.779a6.738,6.738,0,0,1,0-1.66C30.284,27.1,29.157,30.307,27.988,32.7Z"/><path class="cls-8" d="M38.887,31.268c.047.467-.641-.2-1.02-.956a2.4,2.4,0,0,1-.356-1.013S38.816,30.556,38.887,31.268Z"/><path class="cls-9" d="M5.543,25.769S1.377,28.564,0,31.838c0,0,3.165,7.542,9.794,10.461h0S8.045,34.551,5.543,25.769Z"/><path class="cls-10" d="M5.543,25.769h.891s1.9,8.019,3.487,16.514l-.127.016S7.137,33.364,5.543,25.769Z"/><path class="cls-11" d="M27.994,34.222H12.131a24.149,24.149,0,0,1-2.308-4.491,28.513,28.513,0,0,1-1.6-5.533v0a25.67,25.67,0,0,1-.366-6.364c.423-6.066,3.155-8.44,6.477-9.361h.005A21.562,21.562,0,0,1,20.03,7.9c3.5,0,6.469.5,8.55,2.311l0,0c1.73,1.508,2.852,3.919,3.165,7.7C32.233,23.752,27.994,34.222,27.994,34.222Z"/><path class="cls-12" d="M20.078,8.471l-.049,25.752h.22a235.92,235.92,0,0,0-.113-25.75Z"/><path class="cls-13" d="M20.029,34.223s-.275-14.82.049-25.752l.058,0s.488,17.983-.045,25.75Z"/><path class="cls-14" d="M14.479,8.431l.388-.734a30.784,30.784,0,0,1,10.041-.1l.437.913Z"/><path class="cls-15" d="M16.648,7.428l.446-.853a15.624,15.624,0,0,1,5.87.172l.239.665Z"/><path class="cls-16" d="M16.333,13.087c-4,2.292-4.125,10.114,1.065,11.933a6.686,6.686,0,0,0,8.952-6.777C25.938,14.169,21.059,10.38,16.333,13.087Z"/><path class="cls-17" d="M16.336,12.7c-4,2.292-4.126,10.113,1.064,11.933a6.687,6.687,0,0,0,8.953-6.777C25.94,13.782,21.062,9.992,16.336,12.7Z"/><path class="cls-18" d="M23.683,20.8A4.645,4.645,0,0,1,20.869,22.9c-2.93.821-5.358-1.755-5.593-4.321a3.9,3.9,0,0,1,.33-2.028A4.632,4.632,0,0,1,23.3,15.375,4.772,4.772,0,0,1,23.683,20.8Z"/><path class="cls-19" d="M16.3,16.842c-1.156,2.456,1.283,6.185,4.4,5.31a3.936,3.936,0,0,0,2.028-6.29A3.873,3.873,0,0,0,16.3,16.842Z"/><polygon class="cls-20" points="13.412 34.223 13.985 35.943 26.017 35.917 26.382 34.223 13.412 34.223"/><path class="cls-21" d="M11.217,32.7l-2.125.635-1.3.386-.831-3.6a5.788,5.788,0,0,0,1.625-.879,1.353,1.353,0,0,0,.265-.681,6.738,6.738,0,0,0,0-1.66C8.921,27.1,10.048,30.307,11.217,32.7Z"/><ellipse class="cls-22" cx="12.507" cy="15.169" rx="8.256" ry="5.171" transform="translate(-6.713 19.309) rotate(-62.649)"/><path class="cls-23" d="M8.668,17.2a27.046,27.046,0,0,0,1.357,12.791l-.2-.263a27.146,27.146,0,0,1-1.966-11.9c.423-6.066,3.155-8.44,6.477-9.361h.005l1.673.042A9.992,9.992,0,0,0,8.668,17.2Z"/><path class="cls-24" d="M27.994,34.222H12.131a24.149,24.149,0,0,1-2.308-4.491,28.513,28.513,0,0,1-1.6-5.533,11.255,11.255,0,0,0,11.07,8.541c9.962.094,11.147-11.04,11.813-14.32s-1.44-7.015-2.524-8.207c1.73,1.508,2.852,3.919,3.165,7.7C32.233,23.752,27.994,34.222,27.994,34.222Z"/><path class="cls-25" d="M13.745,35.221a19.16,19.16,0,0,1,6.6-.743c4.393.095,5.827.743,5.827.743l.215-1H13.412Z"/><path class="cls-8" d="M12.462,11.363c-.939-.386-2.34,2.344-1.644,3.226S13.1,11.626,12.462,11.363Z"/><path class="cls-26" d="M5.229,39.211s2.006-.609,2.2-5.486c0,0-1.358-5.011-1.886-7.956l1.423,4.349L8.223,33.6l1.571,8.7A12.554,12.554,0,0,1,5.229,39.211Z"/><path class="cls-27" d="M14.961,35.94s1.391,2.428,5.334,2.428c4.053,0,5.05-2.425,5.05-2.425Z"/><path class="cls-6" d="M0,31.838a28.335,28.335,0,0,1,5.543-6.069S1.326,28.407,0,31.838Z"/><path class="cls-28" d="M11.217,32.7l-2.125.635-.236-4.779a6.738,6.738,0,0,0,0-1.66C8.921,27.1,10.048,30.307,11.217,32.7Z"/><path class="cls-29" d="M16.012,7.5l-.229.967L18.7,8.462l.214-1.04S16.916,7.4,16.012,7.5Z"/><path class="cls-30" d="M17.348,7.42l.239-.911a16.555,16.555,0,0,1,2.205-.144l-.155,1.063Z"/><polygon class="cls-31" points="15.166 34.223 15.522 35.869 18.321 35.869 18.321 34.222 15.166 34.223"/><path class="cls-32" d="M25.207,34.034s2.815-2.434,5.123-9.36a68.936,68.936,0,0,1-2.561,9.36Z"/><path class="cls-33" d="M23.683,20.8c-.216-.083-.323-.343-.248-.869a3.648,3.648,0,0,0-4.522-4.241,3.651,3.651,0,0,0-2.9,3.255l-.736-.373a3.9,3.9,0,0,1,.33-2.028A4.632,4.632,0,0,1,23.3,15.375,4.772,4.772,0,0,1,23.683,20.8Z"/><path class="cls-34" d="M18.868,21.662c.024.379,1.93.43,2.048-.18S18.844,21.282,18.868,21.662Z"/><path class="cls-35" d="M13.743,17.013a6.262,6.262,0,0,1,3.384-4.593l.87,1.4a5.087,5.087,0,0,0-2.91,3.49Z"/><path class="cls-36" d="M22.732,24.152l-.806-1.446s1.66-.639,2.68-3.474l1.376.414S26.006,22.279,22.732,24.152Z"/><path class="cls-37" d="M25.982,9.083s3.368.743,4.735,5.058A15.888,15.888,0,0,0,25.982,9.083Z"/><path class="cls-8" d="M.318,31.268c-.046.467.641-.2,1.02-.956A2.4,2.4,0,0,0,1.694,29.3S.389,30.556.318,31.268Z"/><ellipse class="cls-38" cx="20.153" cy="37.154" rx="9.603" ry="6.157"/><path class="cls-39" d="M17.587,6.509s.647-3.53,2.45-3.58,2.449,3.685,2.449,3.685Z"/><path class="cls-40" d="M20.3,26.9l-.169-.394a2.926,2.926,0,0,0-.664,1.674,3.792,3.792,0,0,0,.788,2.573Z"/><path class="cls-8" d="M19.639,3.493c-.361-.485-1.26,1.1-1.033,1.454S19.8,3.7,19.639,3.493Z"/><path class="cls-41" d="M20.16,26.9l-.034-.358a2.381,2.381,0,0,1,.867,1.638,3.8,3.8,0,0,1-.789,2.573Z"/><ellipse class="cls-42" cx="20.34" cy="5.663" rx="5.369" ry="5.663"/><ellipse class="cls-43" cx="29.71" cy="11.503" rx="3.097" ry="3.267"/><path class="cls-44" d="M27.988,9.747s2.793.106,2.729,3.513Z"/><path class="cls-45" d="M20.153,26.993c-.351,0-.531,1.018-.531,1.635s.345,1.56.576,1.56.55-.858.563-1.6S20.428,26.994,20.153,26.993Z"/><ellipse class="cls-46" cx="20.192" cy="28.531" rx="3.788" ry="3.995"/></g></g></g></g></svg>