<svg xmlns="http://www.w3.org/2000/svg" xmlns:xlink="http://www.w3.org/1999/xlink" viewBox="0 0 333.696 259.827"><defs><style>.cls-1{isolation:isolate;}.cls-10,.cls-12,.cls-13,.cls-14,.cls-15,.cls-16,.cls-18,.cls-19,.cls-2,.cls-20,.cls-21,.cls-22,.cls-24,.cls-25,.cls-26,.cls-27,.cls-28,.cls-30,.cls-31,.cls-32,.cls-33,.cls-34,.cls-36,.cls-37,.cls-38,.cls-39,.cls-4,.cls-40,.cls-42,.cls-43,.cls-44,.cls-45,.cls-46,.cls-48,.cls-49,.cls-5,.cls-50,.cls-51,.cls-6,.cls-7,.cls-9{opacity:0.5;}.cls-2{fill:url(#radial-gradient);}.cls-3{fill:url(#radial-gradient-2);}.cls-13,.cls-14,.cls-15,.cls-19,.cls-20,.cls-21,.cls-26,.cls-27,.cls-32,.cls-33,.cls-38,.cls-39,.cls-4,.cls-44,.cls-45,.cls-5,.cls-50,.cls-51,.cls-55,.cls-56,.cls-6,.cls-7,.cls-9{mix-blend-mode:multiply;}.cls-4{fill:url(#radial-gradient-3);}.cls-5{fill:url(#radial-gradient-4);}.cls-6{fill:url(#radial-gradient-5);}.cls-7{fill:url(#radial-gradient-6);}.cls-8{fill:url(#radial-gradient-7);}.cls-9{fill:url(#radial-gradient-8);}.cls-10{fill:url(#radial-gradient-9);}.cls-11{fill:url(#radial-gradient-10);}.cls-12,.cls-18,.cls-24,.cls-25,.cls-30,.cls-31,.cls-36,.cls-37,.cls-42,.cls-43,.cls-48,.cls-49,.cls-52,.cls-53,.cls-54{mix-blend-mode:screen;}.cls-12{fill:url(#radial-gradient-11);}.cls-13{fill:url(#radial-gradient-12);}.cls-14{fill:url(#radial-gradient-13);}.cls-15{fill:url(#radial-gradient-14);}.cls-16{fill:url(#radial-gradient-15);}.cls-17{fill:url(#radial-gradient-16);}.cls-18{fill:url(#radial-gradient-17);}.cls-19{fill:url(#radial-gradient-18);}.cls-20{fill:url(#radial-gradient-19);}.cls-21{fill:url(#radial-gradient-20);}.cls-22{fill:url(#radial-gradient-21);}.cls-23{fill:url(#radial-gradient-22);}.cls-24{fill:url(#radial-gradient-23);}.cls-25{fill:url(#radial-gradient-24);}.cls-26{fill:url(#radial-gradient-25);}.cls-27{fill:url(#radial-gradient-26);}.cls-28{fill:url(#radial-gradient-27);}.cls-29{fill:url(#radial-gradient-28);}.cls-30{fill:url(#radial-gradient-29);}.cls-31{fill:url(#radial-gradient-30);}.cls-32{fill:url(#radial-gradient-31);}.cls-33{fill:url(#radial-gradient-32);}.cls-34{fill:url(#radial-gradient-33);}.cls-35{fill:url(#radial-gradient-34);}.cls-36{fill:url(#radial-gradient-35);}.cls-37{fill:url(#radial-gradient-36);}.cls-38{fill:url(#radial-gradient-37);}.cls-39{fill:url(#radial-gradient-38);}.cls-40{fill:url(#radial-gradient-39);}.cls-41{fill:url(#radial-gradient-40);}.cls-42{fill:url(#radial-gradient-41);}.cls-43{fill:url(#radial-gradient-42);}.cls-44{fill:url(#radial-gradient-43);}.cls-45{fill:url(#radial-gradient-44);}.cls-46{fill:url(#radial-gradient-45);}.cls-47{fill:url(#radial-gradient-46);}.cls-48{fill:url(#radial-gradient-47);}.cls-49{fill:url(#radial-gradient-48);}.cls-50{fill:url(#radial-gradient-49);}.cls-51{fill:url(#radial-gradient-50);}.cls-52,.cls-53,.cls-54,.cls-55,.cls-56{opacity:0.25;}.cls-52{fill:url(#radial-gradient-51);}.cls-53{fill:url(#radial-gradient-52);}.cls-54{fill:url(#radial-gradient-53);}.cls-55{fill:url(#radial-gradient-54);}.cls-56{fill:url(#radial-gradient-55);}</style><radialGradient id="radial-gradient" cx="172.76" cy="132.964" r="130.158" gradientTransform="translate(141.822 -82.561) rotate(45)" gradientUnits="userSpaceOnUse"><stop offset="0.063" stop-color="#3e8def"/><stop offset="0.24" stop-color="#3e8eef" stop-opacity="0.988"/><stop offset="0.368" stop-color="#3f91ef" stop-opacity="0.949"/><stop offset="0.48" stop-color="#4097ef" stop-opacity="0.883"/><stop offset="0.583" stop-color="#429fef" stop-opacity="0.79"/><stop offset="0.68" stop-color="#45a9ef" stop-opacity="0.669"/><stop offset="0.773" stop-color="#48b5ef" stop-opacity="0.521"/><stop offset="0.862" stop-color="#4bc4ee" stop-opacity="0.345"/><stop offset="0.946" stop-color="#4fd5ee" stop-opacity="0.147"/><stop offset="1" stop-color="#52e1ee" stop-opacity="0"/></radialGradient><radialGradient id="radial-gradient-2" cx="134.989" cy="78.122" r="210.373" gradientTransform="translate(141.822 -82.561) rotate(45)" gradientUnits="userSpaceOnUse"><stop offset="0.081" stop-color="#ff8c2d"/><stop offset="0.526" stop-color="red"/><stop offset="1" stop-color="#fd8413"/></radialGradient><radialGradient id="radial-gradient-3" cx="148.623" cy="57.522" r="159.316" gradientUnits="userSpaceOnUse"><stop offset="0.004" stop-color="#ffa607"/><stop offset="0.937" stop-color="#fcb900"/></radialGradient><radialGradient id="radial-gradient-4" cx="153.454" cy="259.733" r="159.323" gradientTransform="translate(-137.028 -86.474) rotate(-27.072)" gradientUnits="userSpaceOnUse"><stop offset="0.004" stop-color="#52e1ee"/><stop offset="0.937" stop-color="#3e8def"/></radialGradient><radialGradient id="radial-gradient-5" cx="233.386" cy="131.329" r="402.465" gradientTransform="matrix(1, 0, 0, 1, 0, 0)" xlink:href="#radial-gradient-4"/><radialGradient id="radial-gradient-6" cx="208.496" cy="443.364" r="402.449" gradientTransform="matrix(0.725, -0.689, 0.689, 0.725, -240.153, -91)" xlink:href="#radial-gradient-4"/><radialGradient id="radial-gradient-7" cx="169.382" cy="127.076" r="132.645" gradientUnits="userSpaceOnUse"><stop offset="0.019" stop-color="#d42b00"/><stop offset="0.256" stop-color="#d12a00"/><stop offset="0.45" stop-color="#c72700"/><stop offset="0.63" stop-color="#b52101"/><stop offset="0.8" stop-color="#9d1901"/><stop offset="0.962" stop-color="#7f0f02"/><stop offset="0.996" stop-color="#770d02"/><stop offset="1" stop-color="#bd0e15"/></radialGradient><radialGradient id="radial-gradient-8" cx="168.865" cy="126.127" r="125.256" gradientUnits="userSpaceOnUse"><stop offset="0.019" stop-color="#842ba7"/><stop offset="0.347" stop-color="#8129a4"/><stop offset="0.616" stop-color="#77229a"/><stop offset="0.864" stop-color="#671689"/><stop offset="0.996" stop-color="#5b0d7c"/><stop offset="1" stop-color="#5d0e7e"/></radialGradient><radialGradient id="radial-gradient-9" cx="52.03" cy="210.485" r="28.876" gradientTransform="translate(163.454 25.004) rotate(45)" gradientUnits="userSpaceOnUse"><stop offset="0.063" stop-color="#fcb900"/><stop offset="0.237" stop-color="#fcb900" stop-opacity="0.988"/><stop offset="0.362" stop-color="#fcb800" stop-opacity="0.952"/><stop offset="0.472" stop-color="#fcb701" stop-opacity="0.889"/><stop offset="0.573" stop-color="#fdb501" stop-opacity="0.8"/><stop offset="0.668" stop-color="#fdb302" stop-opacity="0.686"/><stop offset="0.759" stop-color="#fdb003" stop-opacity="0.546"/><stop offset="0.846" stop-color="#fead04" stop-opacity="0.379"/><stop offset="0.928" stop-color="#feaa06" stop-opacity="0.191"/><stop offset="1" stop-color="#ffa607" stop-opacity="0"/></radialGradient><radialGradient id="radial-gradient-10" cx="43.65" cy="198.318" r="46.673" gradientUnits="userSpaceOnUse"><stop offset="0" stop-color="#faca66"/><stop offset="0.337" stop-color="#d71307"/><stop offset="0.937" stop-color="#ff1b00"/></radialGradient><radialGradient id="radial-gradient-11" cx="46.675" cy="193.748" r="35.346" gradientUnits="userSpaceOnUse"><stop offset="0.004" stop-color="#ff0007"/><stop offset="0.937" stop-color="#fc1a00"/></radialGradient><radialGradient id="radial-gradient-12" cx="28.196" cy="333.469" r="35.347" gradientTransform="translate(-137.028 -86.474) rotate(-27.072)" xlink:href="#radial-gradient-3"/><radialGradient id="radial-gradient-13" cx="65.48" cy="210.122" r="89.29" xlink:href="#radial-gradient-3"/><radialGradient id="radial-gradient-14" cx="18.283" cy="419.053" r="89.287" gradientTransform="matrix(0.725, -0.689, 0.689, 0.725, -240.153, -91)" xlink:href="#radial-gradient-3"/><radialGradient id="radial-gradient-15" cx="283.479" cy="109.279" r="23.976" gradientTransform="translate(159.786 -168.322) rotate(45)" xlink:href="#radial-gradient"/><radialGradient id="radial-gradient-16" cx="276.521" cy="99.177" r="38.752" gradientTransform="translate(159.786 -168.322) rotate(45)" gradientUnits="userSpaceOnUse"><stop offset="0" stop-color="#ff7a6a"/><stop offset="0.337" stop-color="#bf2000"/><stop offset="0.937" stop-color="#ff3515"/></radialGradient><radialGradient id="radial-gradient-17" cx="279.033" cy="95.382" r="29.347" gradientUnits="userSpaceOnUse"><stop offset="0.004" stop-color="#d4524d"/><stop offset="0.937" stop-color="#c0004e"/></radialGradient><radialGradient id="radial-gradient-18" cx="281.204" cy="351.575" r="29.348" gradientTransform="translate(-137.028 -86.474) rotate(-27.072)" xlink:href="#radial-gradient-3"/><radialGradient id="radial-gradient-19" cx="294.647" cy="108.978" r="74.136" gradientTransform="matrix(1, 0, 0, 1, 0, 0)" xlink:href="#radial-gradient-4"/><radialGradient id="radial-gradient-20" cx="253.404" cy="505.188" r="74.133" gradientTransform="matrix(0.725, -0.689, 0.689, 0.725, -240.153, -91)" xlink:href="#radial-gradient-4"/><radialGradient id="radial-gradient-21" cx="325.487" cy="63.018" r="7.64" gradientUnits="userSpaceOnUse"><stop offset="0.063" stop-color="#ff3700"/><stop offset="0.236" stop-color="#ff3700" stop-opacity="0.989"/><stop offset="0.361" stop-color="#ff3600" stop-opacity="0.952"/><stop offset="0.47" stop-color="#ff3500" stop-opacity="0.89"/><stop offset="0.571" stop-color="#f30" stop-opacity="0.803"/><stop offset="0.665" stop-color="#ff3100" stop-opacity="0.69"/><stop offset="0.756" stop-color="#ff2e00" stop-opacity="0.551"/><stop offset="0.843" stop-color="#ff2b00" stop-opacity="0.386"/><stop offset="0.924" stop-color="#ff2800" stop-opacity="0.2"/><stop offset="1" stop-color="#ff2400" stop-opacity="0"/></radialGradient><radialGradient id="radial-gradient-22" cx="323.27" cy="59.799" r="12.349" gradientUnits="userSpaceOnUse"><stop offset="0" stop-color="#ff4824"/><stop offset="0.337" stop-color="#ff2400"/><stop offset="0.937" stop-color="#ff3700"/></radialGradient><radialGradient id="radial-gradient-23" cx="324.07" cy="58.59" r="9.352" gradientUnits="userSpaceOnUse"><stop offset="0.004" stop-color="#ff2400"/><stop offset="0.937" stop-color="#ff3700"/></radialGradient><radialGradient id="radial-gradient-24" cx="342.492" cy="339.123" r="9.352" gradientTransform="translate(-137.028 -86.474) rotate(-27.072)" xlink:href="#radial-gradient-23"/><radialGradient id="radial-gradient-25" cx="329.046" cy="62.922" r="23.624" xlink:href="#radial-gradient-23"/><radialGradient id="radial-gradient-26" cx="307.768" cy="500.998" r="23.623" gradientTransform="matrix(0.725, -0.689, 0.689, 0.725, -240.153, -91)" xlink:href="#radial-gradient-23"/><radialGradient id="radial-gradient-27" cx="223.869" cy="132.501" r="7.64" gradientUnits="userSpaceOnUse"><stop offset="0.063" stop-color="#c0004e"/><stop offset="0.256" stop-color="#c0014e" stop-opacity="0.985"/><stop offset="0.394" stop-color="#c1054e" stop-opacity="0.936"/><stop offset="0.516" stop-color="#c30c4e" stop-opacity="0.854"/><stop offset="0.628" stop-color="#c5154e" stop-opacity="0.738"/><stop offset="0.733" stop-color="#c8224e" stop-opacity="0.588"/><stop offset="0.834" stop-color="#cc314d" stop-opacity="0.404"/><stop offset="0.928" stop-color="#d0424d" stop-opacity="0.19"/><stop offset="1" stop-color="#d4524d" stop-opacity="0"/></radialGradient><radialGradient id="radial-gradient-28" cx="221.652" cy="129.282" r="12.349" gradientUnits="userSpaceOnUse"><stop offset="0" stop-color="#ff524d"/><stop offset="0.337" stop-color="#d4524d"/><stop offset="0.937" stop-color="#c0004e"/></radialGradient><radialGradient id="radial-gradient-29" cx="222.452" cy="128.073" r="9.352" xlink:href="#radial-gradient-17"/><radialGradient id="radial-gradient-30" cx="220.381" cy="354.745" r="9.352" gradientTransform="translate(-137.028 -86.474) rotate(-27.072)" xlink:href="#radial-gradient-17"/><radialGradient id="radial-gradient-31" cx="227.427" cy="132.405" r="23.624" xlink:href="#radial-gradient-17"/><radialGradient id="radial-gradient-32" cx="186.241" cy="481.397" r="23.623" gradientTransform="matrix(0.725, -0.689, 0.689, 0.725, -240.153, -91)" xlink:href="#radial-gradient-17"/><radialGradient id="radial-gradient-33" cx="95.925" cy="204.081" r="7.64" xlink:href="#radial-gradient-27"/><radialGradient id="radial-gradient-34" cx="93.708" cy="200.862" r="12.349" xlink:href="#radial-gradient-28"/><radialGradient id="radial-gradient-35" cx="94.509" cy="199.652" r="9.352" xlink:href="#radial-gradient-17"/><radialGradient id="radial-gradient-36" cx="73.874" cy="360.253" r="9.352" gradientTransform="translate(-137.028 -86.474) rotate(-27.072)" xlink:href="#radial-gradient-17"/><radialGradient id="radial-gradient-37" cx="99.484" cy="203.985" r="23.624" xlink:href="#radial-gradient-17"/><radialGradient id="radial-gradient-38" cx="44.184" cy="445.188" r="23.623" gradientTransform="matrix(0.725, -0.689, 0.689, 0.725, -240.153, -91)" xlink:href="#radial-gradient-17"/><radialGradient id="radial-gradient-39" cx="113.655" cy="184.301" r="7.64" xlink:href="#radial-gradient-21"/><radialGradient id="radial-gradient-40" cx="111.438" cy="181.082" r="12.349" xlink:href="#radial-gradient-22"/><radialGradient id="radial-gradient-41" cx="112.238" cy="179.873" r="9.352" xlink:href="#radial-gradient-23"/><radialGradient id="radial-gradient-42" cx="98.663" cy="350.709" r="9.352" gradientTransform="translate(-137.028 -86.474) rotate(-27.072)" xlink:href="#radial-gradient-23"/><radialGradient id="radial-gradient-43" cx="117.213" cy="184.206" r="23.624" xlink:href="#radial-gradient-23"/><radialGradient id="radial-gradient-44" cx="70.659" cy="443.056" r="23.623" gradientTransform="matrix(0.725, -0.689, 0.689, 0.725, -240.153, -91)" xlink:href="#radial-gradient-23"/><radialGradient id="radial-gradient-45" cx="7.754" cy="207.387" r="7.64" xlink:href="#radial-gradient-27"/><radialGradient id="radial-gradient-46" cx="5.537" cy="204.168" r="12.349" xlink:href="#radial-gradient-28"/><radialGradient id="radial-gradient-47" cx="6.338" cy="202.959" r="9.352" xlink:href="#radial-gradient-17"/><radialGradient id="radial-gradient-48" cx="-6.144" cy="323.068" r="9.352" gradientTransform="translate(-137.028 -86.474) rotate(-27.072)" xlink:href="#radial-gradient-17"/><radialGradient id="radial-gradient-49" cx="11.313" cy="207.291" r="23.624" xlink:href="#radial-gradient-17"/><radialGradient id="radial-gradient-50" cx="-22.021" cy="386.867" r="23.623" gradientTransform="matrix(0.725, -0.689, 0.689, 0.725, -240.153, -91)" xlink:href="#radial-gradient-17"/><radialGradient id="radial-gradient-51" cx="124.048" cy="79.486" r="72.085" gradientUnits="userSpaceOnUse"><stop offset="0.081" stop-color="#ffe22d"/><stop offset="0.526" stop-color="#ff007e"/><stop offset="1" stop-color="#fd8413"/></radialGradient><radialGradient id="radial-gradient-52" cx="199.896" cy="90.313" r="86.397" gradientTransform="translate(280.44 -97.848) rotate(80.807)" xlink:href="#radial-gradient-51"/><radialGradient id="radial-gradient-53" cx="199.896" cy="90.313" r="86.397" xlink:href="#radial-gradient-51"/><radialGradient id="radial-gradient-54" cx="180.61" cy="186.843" r="24.98" gradientTransform="translate(327.778 -32.789) rotate(76.101)" xlink:href="#radial-gradient-4"/><radialGradient id="radial-gradient-55" cx="223.498" cy="182.18" r="20.698" gradientTransform="matrix(1, 0, 0, 1, 0, 0)" xlink:href="#radial-gradient-4"/></defs><title>Asset 7</title><g class="cls-1"><g id="Layer_2" data-name="Layer 2"><g id="Layer_1-2" data-name="Layer 1"><g id="player_planets"><g id="red_planet"><circle class="cls-2" cx="170.571" cy="129.914" r="129.914" transform="translate(-41.904 158.663) rotate(-45)"/><circle class="cls-3" cx="170.571" cy="129.914" r="105.322" transform="translate(-41.904 158.663) rotate(-45)"/><path class="cls-4" d="M75.994,140.659a105.292,105.292,0,0,1,174.62-79.277A105.3,105.3,0,1,0,102.04,209.958,104.886,104.886,0,0,1,75.994,140.659Z"/><path class="cls-5" d="M90.98,182.04a105.292,105.292,0,0,1,119.4-150.066A105.3,105.3,0,1,0,145.712,231.89,104.89,104.89,0,0,1,90.98,182.04Z"/><path class="cls-6" d="M217.441,35.6A87.611,87.611,0,1,1,74.321,87.158,105.32,105.32,0,1,0,217.441,35.6Z"/><path class="cls-7" d="M138.882,28.459A87.612,87.612,0,1,1,70.619,164.408,105.321,105.321,0,1,0,138.882,28.459Z"/><path class="cls-8" d="M331.993,48.262c-6.49-13.39-28.247-15.254-66.522-5.691-8.57,2.14-17.746,4.832-27.324,7.95a55.222,55.222,0,0,1,6.644,5.867,82.293,82.293,0,0,1,8.167,8.074c4.4-1.329,8.708-2.577,12.849-3.668,38.439-10.133,48.523-5.711,50.122-4.747-.232,1.855-3.013,12.51-34.781,36.405-25.562,19.229-61.052,40.2-99.931,59.04S103.892,185.2,72.96,193.358c-38.436,10.13-48.524,5.715-50.125,4.747.233-1.856,3.015-12.511,34.78-36.4,3.472-2.612,7.17-5.261,11-7.928a58.575,58.575,0,0,1-3-19.43c-7.97,5.342-15.4,10.634-22.089,15.8C12.3,174.266.282,192.5,6.771,205.891c3.78,7.8,12.734,11.685,27.116,11.685,10.315,0,23.421-2,39.406-5.994,32.747-8.181,73.823-23.853,115.659-44.13s79.587-42.811,106.3-63.447C326.464,79.887,338.483,61.652,331.993,48.262Z"/><path class="cls-9" d="M191.853,154.779C316.879,95.141,335.26,56.8,322.069,47.381c-12.6-9-49.955.45-75.931,10.248a87.77,87.77,0,0,1,6.82,6.833c4.4-1.329,8.708-2.577,12.849-3.668,38.439-10.133,48.523-5.711,50.122-4.747-.232,1.855-3.013,12.51-34.781,36.405-25.562,19.229-61.052,40.2-99.931,59.04S103.892,185.2,72.96,193.358c-38.436,10.13-48.524,5.715-50.125,4.747.233-1.856,3.015-12.511,34.78-36.4,3.472-2.612,7.17-5.261,11-7.928a62.258,62.258,0,0,1-2.623-12.182c-14.114,10.1-63.447,46.826-52.333,59.175C26.589,215.136,66.828,214.418,191.853,154.779Z"/><circle class="cls-10" cx="51.544" cy="209.808" r="28.822" transform="translate(-133.26 97.899) rotate(-45)"/><circle class="cls-11" cx="51.544" cy="209.808" r="23.367"/><path class="cls-12" d="M30.562,212.192A23.36,23.36,0,0,1,69.3,194.6,23.361,23.361,0,1,0,36.34,227.567,23.271,23.271,0,0,1,30.562,212.192Z"/><path class="cls-13" d="M33.886,221.373A23.36,23.36,0,0,1,60.377,188.08a23.361,23.361,0,1,0-14.348,44.353A23.271,23.271,0,0,1,33.886,221.373Z"/><path class="cls-14" d="M61.943,188.883a19.435,19.435,0,1,1-31.753,11.44,23.366,23.366,0,1,0,31.753-11.44Z"/><path class="cls-15" d="M44.514,187.3a19.437,19.437,0,1,1-15.145,30.161A23.366,23.366,0,1,0,44.514,187.3Z"/><circle class="cls-16" cx="283.076" cy="108.717" r="23.931" transform="translate(6.036 232.007) rotate(-45)"/><circle class="cls-17" cx="283.076" cy="108.717" r="19.401" transform="translate(6.036 232.007) rotate(-45)"/><path class="cls-18" d="M265.654,110.7a19.4,19.4,0,0,1,32.166-14.6,19.4,19.4,0,1,0-27.368,27.369A19.322,19.322,0,0,1,265.654,110.7Z"/><path class="cls-19" d="M268.415,118.319a19.4,19.4,0,0,1,22-27.643A19.4,19.4,0,1,0,278.5,127.5,19.32,19.32,0,0,1,268.415,118.319Z"/><path class="cls-20" d="M291.71,91.343a16.138,16.138,0,1,1-26.364,9.5,19.4,19.4,0,1,0,26.364-9.5Z"/><path class="cls-21" d="M277.239,90.028a16.138,16.138,0,1,1-12.575,25.043,19.4,19.4,0,1,0,12.575-25.043Z"/><circle class="cls-22" cx="325.359" cy="62.839" r="7.626"/><circle class="cls-23" cx="325.359" cy="62.839" r="6.182"/><path class="cls-24" d="M319.807,63.47a6.18,6.18,0,0,1,10.25-4.654,6.181,6.181,0,1,0-8.721,8.721A6.156,6.156,0,0,1,319.807,63.47Z"/><path class="cls-25" d="M320.687,65.9A6.181,6.181,0,0,1,327.7,57.09a6.181,6.181,0,1,0-3.8,11.735A6.158,6.158,0,0,1,320.687,65.9Z"/><path class="cls-26" d="M328.11,57.3a5.142,5.142,0,1,1-8.4,3.026,6.182,6.182,0,1,0,8.4-3.026Z"/><path class="cls-27" d="M323.5,56.884a5.144,5.144,0,1,1-4.007,7.98,6.182,6.182,0,1,0,4.007-7.98Z"/><path class="cls-28" d="M231.366,132.322a7.626,7.626,0,1,1-7.626-7.626A7.626,7.626,0,0,1,231.366,132.322Z"/><path class="cls-29" d="M229.922,132.322a6.182,6.182,0,1,1-6.182-6.183A6.182,6.182,0,0,1,229.922,132.322Z"/><path class="cls-30" d="M218.188,132.953a6.18,6.18,0,0,1,10.25-4.654,6.181,6.181,0,1,0-8.721,8.721A6.156,6.156,0,0,1,218.188,132.953Z"/><path class="cls-31" d="M219.068,135.382a6.181,6.181,0,0,1,7.009-8.809,6.181,6.181,0,1,0-3.8,11.735A6.157,6.157,0,0,1,219.068,135.382Z"/><path class="cls-32" d="M226.491,126.785a5.141,5.141,0,1,1-8.478,3.911,5.246,5.246,0,0,1,.077-.884,6.182,6.182,0,1,0,8.4-3.027Z"/><path class="cls-33" d="M221.88,126.367a5.141,5.141,0,1,1-3.455,8.673,5.226,5.226,0,0,1-.552-.693,6.183,6.183,0,1,0,4.007-7.98Z"/><path class="cls-34" d="M103.423,203.9a7.626,7.626,0,1,1-7.626-7.626A7.626,7.626,0,0,1,103.423,203.9Z"/><path class="cls-35" d="M101.979,203.9a6.182,6.182,0,1,1-6.182-6.183A6.182,6.182,0,0,1,101.979,203.9Z"/><path class="cls-36" d="M90.245,204.533a6.181,6.181,0,0,1,10.251-4.654,6.181,6.181,0,1,0-8.722,8.721A6.156,6.156,0,0,1,90.245,204.533Z"/><path class="cls-37" d="M91.125,206.961a6.18,6.18,0,0,1,7.009-8.808,6.181,6.181,0,1,0-3.8,11.735A6.158,6.158,0,0,1,91.125,206.961Z"/><path class="cls-38" d="M98.548,198.365a5.142,5.142,0,1,1-8.4,3.027,6.182,6.182,0,1,0,8.4-3.027Z"/><path class="cls-39" d="M93.937,197.946a5.144,5.144,0,1,1-4.007,7.98,6.182,6.182,0,1,0,4.007-7.98Z"/><path class="cls-40" d="M121.152,184.122a7.626,7.626,0,1,1-7.626-7.625A7.626,7.626,0,0,1,121.152,184.122Z"/><path class="cls-41" d="M119.708,184.122a6.182,6.182,0,1,1-6.182-6.182A6.183,6.183,0,0,1,119.708,184.122Z"/><path class="cls-42" d="M107.974,184.753a6.181,6.181,0,0,1,10.251-4.653,6.181,6.181,0,1,0-8.722,8.721A6.158,6.158,0,0,1,107.974,184.753Z"/><path class="cls-43" d="M108.854,187.182a6.181,6.181,0,0,1,7.009-8.809,6.181,6.181,0,1,0-3.8,11.735A6.152,6.152,0,0,1,108.854,187.182Z"/><path class="cls-44" d="M116.277,178.586a5.141,5.141,0,1,1-8.478,3.91,5.243,5.243,0,0,1,.077-.883,6.182,6.182,0,1,0,8.4-3.027Z"/><path class="cls-45" d="M111.666,178.167a5.141,5.141,0,1,1-3.455,8.674,5.235,5.235,0,0,1-.552-.694,6.183,6.183,0,1,0,4.007-7.98Z"/><circle class="cls-46" cx="7.626" cy="207.208" r="7.626"/><circle class="cls-47" cx="7.626" cy="207.208" r="6.182"/><path class="cls-48" d="M2.074,207.839a6.181,6.181,0,0,1,10.25-4.654A6.181,6.181,0,1,0,3.6,211.907,6.16,6.16,0,0,1,2.074,207.839Z"/><path class="cls-49" d="M2.954,210.268a6.181,6.181,0,0,1,7.009-8.809,6.181,6.181,0,1,0-3.8,11.735A6.157,6.157,0,0,1,2.954,210.268Z"/><path class="cls-50" d="M10.377,201.672a5.142,5.142,0,1,1-8.4,3.026,6.182,6.182,0,1,0,8.4-3.026Z"/><path class="cls-51" d="M5.766,201.253a5.141,5.141,0,1,1-3.455,8.674,5.218,5.218,0,0,1-.552-.694,6.182,6.182,0,1,0,4.007-7.98Z"/><circle class="cls-52" cx="136.24" cy="97.232" r="36.089"/><circle class="cls-53" cx="197.698" cy="115.813" r="13.935" transform="translate(51.79 292.47) rotate(-80.807)"/><path class="cls-54" d="M218.909,91.776a6.454,6.454,0,1,1-6.454-6.454A6.454,6.454,0,0,1,218.909,91.776Z"/><circle class="cls-55" cx="184.835" cy="192.993" r="12.506" transform="translate(-46.907 326.057) rotate(-76.101)"/><path class="cls-56" d="M237.36,187.276A10.362,10.362,0,1,1,227,176.914,10.362,10.362,0,0,1,237.36,187.276Z"/></g></g></g></g></g></svg>