<svg xmlns="http://www.w3.org/2000/svg" xmlns:xlink="http://www.w3.org/1999/xlink" viewBox="0 0 279.296 279.296"><defs><style>.cls-1{isolation:isolate;}.cls-2,.cls-34,.cls-35{mix-blend-mode:screen;}.cls-2{fill:url(#radial-gradient);}.cls-3{fill:url(#radial-gradient-2);}.cls-4{opacity:0.25;fill:url(#radial-gradient-3);}.cls-10,.cls-11,.cls-12,.cls-13,.cls-14,.cls-15,.cls-16,.cls-17,.cls-18,.cls-19,.cls-20,.cls-21,.cls-22,.cls-23,.cls-24,.cls-25,.cls-26,.cls-27,.cls-28,.cls-29,.cls-30,.cls-31,.cls-32,.cls-33,.cls-4,.cls-5,.cls-6,.cls-7,.cls-8,.cls-9{mix-blend-mode:multiply;}.cls-5{fill:url(#radial-gradient-4);}.cls-6{fill:url(#radial-gradient-5);}.cls-7{fill:url(#radial-gradient-6);}.cls-8{fill:url(#radial-gradient-7);}.cls-9{fill:url(#radial-gradient-8);}.cls-10{fill:url(#radial-gradient-9);}.cls-11{fill:url(#radial-gradient-10);}.cls-12{fill:url(#radial-gradient-11);}.cls-13{fill:url(#radial-gradient-12);}.cls-14{fill:url(#radial-gradient-13);}.cls-15{fill:url(#radial-gradient-14);}.cls-16{fill:url(#radial-gradient-15);}.cls-17{fill:url(#radial-gradient-16);}.cls-18{fill:url(#radial-gradient-17);}.cls-19{fill:url(#radial-gradient-18);}.cls-20{fill:url(#radial-gradient-19);}.cls-21{fill:url(#radial-gradient-20);}.cls-22{fill:url(#radial-gradient-21);}.cls-23{fill:url(#radial-gradient-22);}.cls-24{fill:url(#radial-gradient-23);}.cls-25{fill:url(#radial-gradient-24);}.cls-26{fill:url(#radial-gradient-25);}.cls-27{fill:url(#radial-gradient-26);}.cls-28{fill:url(#radial-gradient-27);}.cls-29{fill:url(#radial-gradient-28);}.cls-30{fill:url(#radial-gradient-29);}.cls-31{fill:url(#radial-gradient-30);}.cls-32{fill:url(#radial-gradient-31);}.cls-33{fill:url(#radial-gradient-32);}.cls-34,.cls-35{opacity:0.5;}.cls-34{fill:url(#radial-gradient-33);}.cls-35{fill:url(#radial-gradient-34);}</style><radialGradient id="radial-gradient" cx="133.946" cy="142.879" r="173.207" gradientTransform="translate(139.648 -57.844) rotate(45)" gradientUnits="userSpaceOnUse"><stop offset="0.004" stop-color="#00e300"/><stop offset="0.915" stop-color="#ffe22d" stop-opacity="0"/></radialGradient><radialGradient id="radial-gradient-2" cx="112.016" cy="45.505" r="308.488" gradientUnits="userSpaceOnUse"><stop offset="0.081" stop-color="#ffe22d"/><stop offset="0.996" stop-color="#00e300"/></radialGradient><radialGradient id="radial-gradient-3" cx="236.476" cy="185.414" r="196.938" gradientUnits="userSpaceOnUse"><stop offset="0.081" stop-color="#ffe22d"/><stop offset="0.996" stop-color="#fd8413"/></radialGradient><radialGradient id="radial-gradient-4" cx="112.016" cy="95.222" r="262.312" xlink:href="#radial-gradient-2"/><radialGradient id="radial-gradient-5" cx="113.094" cy="83.982" r="271.512" xlink:href="#radial-gradient-2"/><radialGradient id="radial-gradient-6" cx="114.525" cy="45.497" r="298.147" xlink:href="#radial-gradient-2"/><radialGradient id="radial-gradient-7" cx="112.304" cy="128.226" r="36.645" xlink:href="#radial-gradient-2"/><radialGradient id="radial-gradient-8" cx="150.782" cy="182.593" r="15.97" xlink:href="#radial-gradient-2"/><radialGradient id="radial-gradient-9" cx="133.523" cy="73.966" r="15.97" xlink:href="#radial-gradient-2"/><radialGradient id="radial-gradient-10" cx="108.403" cy="22.389" r="36.597" xlink:href="#radial-gradient-2"/><radialGradient id="radial-gradient-11" cx="104.474" cy="87.238" r="16.974" xlink:href="#radial-gradient-2"/><radialGradient id="radial-gradient-12" cx="176.326" cy="24.123" r="27.758" xlink:href="#radial-gradient-2"/><radialGradient id="radial-gradient-13" cx="53.425" cy="49.692" r="35.722" xlink:href="#radial-gradient-2"/><radialGradient id="radial-gradient-14" cx="219.192" cy="141.043" r="16.974" xlink:href="#radial-gradient-2"/><radialGradient id="radial-gradient-15" cx="155.931" cy="148.645" r="10.368" xlink:href="#radial-gradient-2"/><radialGradient id="radial-gradient-16" cx="222.046" cy="53.074" r="34.25" xlink:href="#radial-gradient-2"/><radialGradient id="radial-gradient-17" cx="174.942" cy="80.984" r="43.456" xlink:href="#radial-gradient-2"/><radialGradient id="radial-gradient-18" cx="182.804" cy="152.426" r="19.947" xlink:href="#radial-gradient-2"/><radialGradient id="radial-gradient-19" cx="58.325" cy="98.69" r="20.931" xlink:href="#radial-gradient-2"/><radialGradient id="radial-gradient-20" cx="27.391" cy="128.453" r="11.664" xlink:href="#radial-gradient-2"/><radialGradient id="radial-gradient-21" cx="157.524" cy="216.819" r="40.536" xlink:href="#radial-gradient-2"/><radialGradient id="radial-gradient-22" cx="222.934" cy="190.268" r="10.367" xlink:href="#radial-gradient-2"/><radialGradient id="radial-gradient-23" cx="187.01" cy="199.293" r="9.072" xlink:href="#radial-gradient-2"/><radialGradient id="radial-gradient-24" cx="249.069" cy="104.781" r="19.654" xlink:href="#radial-gradient-2"/><radialGradient id="radial-gradient-25" cx="255.006" cy="157.059" r="12.42" xlink:href="#radial-gradient-2"/><radialGradient id="radial-gradient-26" cx="204.484" cy="232.591" r="20.118" xlink:href="#radial-gradient-2"/><radialGradient id="radial-gradient-27" cx="57.324" cy="129.03" r="33.671" xlink:href="#radial-gradient-2"/><radialGradient id="radial-gradient-28" cx="30.763" cy="172.639" r="19.885" xlink:href="#radial-gradient-2"/><radialGradient id="radial-gradient-29" cx="76.308" cy="183.317" r="40.536" xlink:href="#radial-gradient-2"/><radialGradient id="radial-gradient-30" cx="126.649" cy="230.157" r="13.94" xlink:href="#radial-gradient-2"/><radialGradient id="radial-gradient-31" cx="82.993" cy="234.647" r="23.472" xlink:href="#radial-gradient-2"/><radialGradient id="radial-gradient-32" cx="119.702" cy="203.986" r="16.974" xlink:href="#radial-gradient-2"/><radialGradient id="radial-gradient-33" cx="143.857" cy="137.836" r="96.536" xlink:href="#radial-gradient-3"/><radialGradient id="radial-gradient-34" cx="186.482" cy="82.332" r="28.393" xlink:href="#radial-gradient-3"/></defs><title>Asset 6</title><g class="cls-1"><g id="Layer_2" data-name="Layer 2"><g id="Layer_1-2" data-name="Layer 1"><g id="player_planets"><g id="green_planet"><circle class="cls-2" cx="139.648" cy="139.648" r="139.648" transform="translate(-57.844 139.648) rotate(-45)"/><circle class="cls-3" cx="139.648" cy="139.648" r="120.829"/><path class="cls-4" d="M139.648,18.819A120.373,120.373,0,0,0,57.258,51.3,120.818,120.818,0,0,1,180.5,253.381,120.839,120.839,0,0,0,139.648,18.819Z"/><path class="cls-5" d="M156.066,170.813a120.865,120.865,0,0,1-118.288-96.1,120.8,120.8,0,1,0,220.158,40.216A120.7,120.7,0,0,1,156.066,170.813Z"/><path class="cls-6" d="M232.265,62.073a120.807,120.807,0,0,1-211.692,98,120.82,120.82,0,1,0,211.692-98Z"/><path class="cls-7" d="M135.032,85.82a6.6,6.6,0,1,1,6.6-6.6A6.6,6.6,0,0,1,135.032,85.82Zm-106.6,50.76a4.568,4.568,0,1,0-4.569-4.568A4.568,4.568,0,0,0,28.436,136.58ZM60.415,96.987a9.137,9.137,0,1,0,9.136,9.137A9.137,9.137,0,0,0,60.415,96.987ZM31.9,194.3a11.645,11.645,0,1,0-8.278-20.949A119.943,119.943,0,0,0,31.9,194.3Zm44.76-52.139A15.736,15.736,0,1,0,60.922,157.9,15.736,15.736,0,0,0,76.658,142.164ZM97.977,245.715a12.69,12.69,0,0,0-24.39-4.915,120.4,120.4,0,0,0,22.477,11.541A12.573,12.573,0,0,0,97.977,245.715ZM42.027,68.476A15.733,15.733,0,1,0,62.469,46.688,121.475,121.475,0,0,0,42.027,68.476Zm85.9,171.656a5.584,5.584,0,1,0-5.584-5.584A5.584,5.584,0,0,0,127.926,240.132Zm.507-30.457a7.106,7.106,0,1,0-7.106,7.107A7.105,7.105,0,0,0,128.433,209.675ZM93.916,34.552a18.782,18.782,0,1,0,30.409-14.731,120,120,0,0,0-28.92,7.394A18.714,18.714,0,0,0,93.916,34.552Zm-13.2,145.682a19.289,19.289,0,1,0,19.289,19.289A19.289,19.289,0,0,0,80.719,180.234Zm32.486-87.307a7.106,7.106,0,1,0-7.106,7.106A7.106,7.106,0,0,0,113.205,92.927Zm3.046,32.486a17.259,17.259,0,1,0,17.258,17.259A17.258,17.258,0,0,0,116.251,125.413Zm94.414-60.4a15.734,15.734,0,0,0,29.51,7.6,121.462,121.462,0,0,0-19.227-22.349A15.727,15.727,0,0,0,210.665,65.008Zm-2.03,165.986a11.168,11.168,0,0,0-11.168,11.168,11.046,11.046,0,0,0,.549,3.287,120.957,120.957,0,0,0,17.646-11.9A11.062,11.062,0,0,0,208.635,230.994ZM164.981,31.507a14.712,14.712,0,0,0,29.418.44,119.876,119.876,0,0,0-26.142-9.69A14.652,14.652,0,0,0,164.981,31.507Zm35.532,67A20.812,20.812,0,1,0,179.7,119.322,20.811,20.811,0,0,0,200.513,98.51Zm27.41,94.922a4.061,4.061,0,1,0-4.06,4.061A4.06,4.06,0,0,0,227.923,193.432Zm29.949-37.563a5.569,5.569,0,0,0-.538,11.113q1.239-5.361,2-10.9A5.521,5.521,0,0,0,257.872,155.869Zm-95.937,96.445a19.289,19.289,0,1,0-19.289-19.289A19.289,19.289,0,0,0,161.935,252.314Zm-16.243-64.466a6.6,6.6,0,1,0,6.6-6.6A6.6,6.6,0,0,0,145.692,187.848Zm15.228-36.039a4.061,4.061,0,1,0-4.061,4.06A4.061,4.061,0,0,0,160.92,151.809Zm59.9-12.183a7.107,7.107,0,1,0,7.106,7.106A7.106,7.106,0,0,0,220.817,139.626Zm-36.04,11.167a8.63,8.63,0,1,0,8.63,8.629A8.629,8.629,0,0,0,184.777,150.793Zm58.375-38.578a9.124,9.124,0,0,0,15.489,6.55,120.149,120.149,0,0,0-3.66-15.236,9.031,9.031,0,0,0-2.693-.45A9.136,9.136,0,0,0,243.152,112.215Zm-55.329,86.293a3.553,3.553,0,1,0,3.553,3.553A3.553,3.553,0,0,0,187.823,198.508Z"/><path class="cls-8" d="M116.251,125.413a17.265,17.265,0,0,0-15.182,25.473,17.246,17.246,0,0,1,32.394-7.291c.016-.308.046-.612.046-.923A17.258,17.258,0,0,0,116.251,125.413Z"/><path class="cls-9" d="M148.783,193.419a6.545,6.545,0,0,1,9.046-2,6.6,6.6,0,1,0-9.046,2Z"/><path class="cls-10" d="M128.433,79.221a6.581,6.581,0,0,0,3.091,5.571,6.546,6.546,0,0,1,9.047-2,6.594,6.594,0,1,0-12.138-3.567Z"/><path class="cls-11" d="M97.436,36.352a119.992,119.992,0,0,1,28.919-7.395,18.905,18.905,0,0,1,5.093,6.21c.007-.206.031-.407.031-.615a18.731,18.731,0,0,0-7.154-14.731,120,120,0,0,0-28.92,7.394,18.732,18.732,0,0,0,.573,15.863A18.715,18.715,0,0,1,97.436,36.352Z"/><path class="cls-12" d="M98.993,92.927a7.078,7.078,0,0,0,2.936,5.73,7.031,7.031,0,0,1,10.37-2.324,7.023,7.023,0,0,0,.906-3.406,7.106,7.106,0,1,0-14.212,0Z"/><path class="cls-13" d="M170.287,31.394a119.621,119.621,0,0,1,21.989,7.722,14.647,14.647,0,0,0,2.123-7.169,119.876,119.876,0,0,0-26.142-9.69,14.663,14.663,0,0,0-1.116,16.9A14.644,14.644,0,0,1,170.287,31.394Z"/><path class="cls-14" d="M46.954,73.89A121.214,121.214,0,0,1,64.5,55.825a15.8,15.8,0,0,1,7.013,6.49c.039-.451.069-.906.069-1.367a15.725,15.725,0,0,0-9.113-14.26A121.475,121.475,0,0,0,42.027,68.476,15.8,15.8,0,0,0,46.954,73.89Z"/><path class="cls-15" d="M222.848,148.763a7.049,7.049,0,0,1,4.17,1.376,7.034,7.034,0,0,0,.905-3.407,7.106,7.106,0,1,0-11.276,5.731A7.076,7.076,0,0,1,222.848,148.763Z"/><path class="cls-16" d="M156.859,155.869a4.061,4.061,0,1,0-4.061-4.06A4.061,4.061,0,0,0,156.859,155.869Z"/><path class="cls-17" d="M222.979,59.4A121.308,121.308,0,0,1,237.9,75.716a15.826,15.826,0,0,0,2.271-3.1,121.462,121.462,0,0,0-19.227-22.349,15.695,15.695,0,0,0-8.154,22.625A15.708,15.708,0,0,1,222.979,59.4Z"/><path class="cls-18" d="M181.732,86.835A20.792,20.792,0,0,1,200.5,98.706c0-.066.01-.13.01-.2a20.812,20.812,0,1,0-39.583,8.942A20.805,20.805,0,0,1,181.732,86.835Z"/><path class="cls-19" d="M184.777,150.793a8.622,8.622,0,0,0-6.037,14.784,8.592,8.592,0,0,1,14.1-3.172,8.561,8.561,0,0,0-8.068-11.612Z"/><path class="cls-20" d="M62.445,106.124a9.09,9.09,0,0,1,6.607,2.854,9.119,9.119,0,1,0-15.244,3.43A9.106,9.106,0,0,1,62.445,106.124Z"/><path class="cls-21" d="M28.436,136.58a4.568,4.568,0,1,0-4.569-4.568A4.568,4.568,0,0,0,28.436,136.58Z"/><path class="cls-22" d="M163.966,222.873A19.273,19.273,0,0,1,181.2,233.532c0-.17.025-.336.025-.507a19.289,19.289,0,1,0-36.522,8.63A19.276,19.276,0,0,1,163.966,222.873Z"/><path class="cls-23" d="M227.923,193.432a4.061,4.061,0,1,0-4.06,4.061A4.06,4.06,0,0,0,227.923,193.432Z"/><circle class="cls-24" cx="187.823" cy="202.061" r="3.553"/><path class="cls-25" d="M254.319,112.215a9.051,9.051,0,0,1,2.692.45c.555,1.774,1.016,3.587,1.485,5.4a119.748,119.748,0,0,0-3.515-14.533,9.031,9.031,0,0,0-2.693-.45,9.117,9.117,0,0,0-6.606,15.42A9.106,9.106,0,0,1,254.319,112.215Z"/><path class="cls-26" d="M257.643,165.492c.676-3.095,1.258-6.225,1.691-9.405a5.521,5.521,0,0,0-1.462-.218,5.555,5.555,0,0,0-1.921,10.777A5.578,5.578,0,0,1,257.643,165.492Z"/><path class="cls-27" d="M208.635,230.994a11.168,11.168,0,0,0-11.168,11.168,11.046,11.046,0,0,0,.549,3.287,120.957,120.957,0,0,0,17.646-11.9A11.062,11.062,0,0,0,208.635,230.994Z"/><path class="cls-28" d="M62.953,135.565a15.72,15.72,0,0,1,13.639,7.91c.036-.433.066-.868.066-1.311a15.736,15.736,0,1,0-29.375,7.826A15.729,15.729,0,0,1,62.953,135.565Z"/><path class="cls-29" d="M32.5,180.234a11.63,11.63,0,0,1,9.411,4.82,11.635,11.635,0,0,0-18.287-11.7c.847,2.921,1.83,5.781,2.886,8.606A11.471,11.471,0,0,1,32.5,180.234Z"/><path class="cls-30" d="M82.749,189.371A19.271,19.271,0,0,1,99.982,200.03c0-.17.026-.336.026-.507a19.289,19.289,0,1,0-36.522,8.63A19.276,19.276,0,0,1,82.749,189.371Z"/><path class="cls-31" d="M129.956,238.1a5.533,5.533,0,0,1,1.941.367,5.591,5.591,0,1,0-5.913,1.3A5.564,5.564,0,0,1,129.956,238.1Z"/><path class="cls-32" d="M87.318,242.162A12.669,12.669,0,0,1,97.8,247.709a12.239,12.239,0,0,0,.176-1.994,12.69,12.69,0,0,0-24.39-4.915c2.046,1.339,4.147,2.6,6.276,3.812A12.6,12.6,0,0,1,87.318,242.162Z"/><path class="cls-33" d="M117.157,215.406a7.032,7.032,0,0,1,10.371-2.324,7.034,7.034,0,0,0,.9-3.407,7.106,7.106,0,1,0-11.276,5.731Z"/><circle class="cls-34" cx="100.735" cy="114.096" r="56.459"/><path class="cls-35" d="M190.4,75.35a16.606,16.606,0,1,1-16.6-16.6A16.606,16.606,0,0,1,190.4,75.35Z"/></g></g></g></g></g></svg>